<?xml version="1.0" encoding="UTF-8"?>
<svg id="Layer_1" data-name="Layer 1" xmlns="http://www.w3.org/2000/svg" viewBox="0 0 726.09 171.86">
  <defs>
    <style>
      .cls-1 {
        fill: #778da9;
      }

      .cls-1, .cls-2 {
        stroke-width: 0px;
      }

      .cls-2 {
        fill: #c11111;
      }
    </style>
  </defs>
  <g>
    <path class="cls-1" d="m224.42,15.19h20.8v96.91h-20.8V15.19Z"/>
    <path class="cls-1" d="m264.46,73.05c0-22.35,16.13-38.06,37.63-38.06s37.63,15.7,37.63,38.06v39.05h-19.81v-39.05c0-11.46-7.22-18.25-17.83-18.25s-17.83,6.79-17.83,18.25v39.05h-19.81v-39.05Z"/>
    <path class="cls-1" d="m361.37,56.21h-9.05v-19.81h9.05c0-16.84,11.88-36.5,44-26.46l-3.82,18.25c-11.04-3.96-20.94-.57-20.94,8.21h21.08v19.81h-20.51v55.88h-19.81v-55.88Z"/>
    <path class="cls-1" d="m408.19,74.32c0-21.65,17.69-39.33,39.33-39.33s39.33,17.69,39.33,39.33-17.68,39.33-39.33,39.33-39.33-17.54-39.33-39.33Zm58.86,0c0-10.75-8.77-19.52-19.52-19.52s-19.52,8.77-19.52,19.52,8.77,19.52,19.52,19.52,19.52-8.63,19.52-19.52Z"/>
    <path class="cls-1" d="m501.29,88.61c17.69,10.04,43.43,14.15,43.43,1.84,0-10.75-49.66-6.23-48.25-34.95,1.84-25.04,39.05-29.71,67.06-11.18l-8.06,13.58c-15-11.6-37.92-10.75-38.34-1.27-.42,10.47,48.1,8.06,48.1,32.96s-27.87,36.64-70.88,15.42l6.93-16.41Z"/>
    <path class="cls-1" d="m573.15,73.76c0-20.37,13.44-39.61,36.5-39.47,25.18.14,42.73,19.95,35.65,48.24h-50.51c.99,6.79,9.05,13.3,18.67,13.3,5.24.14,14.29-2.26,16.84-5.8l15,11.46c-7.64,8.63-19.95,12.03-33.81,12.03-22.92,0-38.34-20.23-38.34-39.76Zm52.77-8.35c.71-5.09-3.4-13.72-15.56-13.72-10.47,0-15.7,7.64-15.7,13.72h31.27Z"/>
    <path class="cls-1" d="m656.06,75.03c0-23.2,18.67-39.76,39.47-39.76,12.59,0,24.19,6.23,30.56,15.42l-14.29,13.87c-3.4-6.65-10.61-9.48-16.13-9.48-9.9,0-19.81,7.64-19.81,19.95,0,11.18,8.77,20.23,19.81,20.23,7.07,0,13.58-4.1,16.27-9.62l14.15,13.86c-6.22,9.34-17.97,15.56-30.56,15.56-21.79,0-39.47-17.97-39.47-40.04Z"/>
  </g>
  <g>
    <path class="cls-2" d="m239.3,157.58h-.17l-9.44-14.14v21.56h-5.26v-30.19h5.65l9.19,14.27,9.19-14.27h5.65v30.19h-5.26v-21.65l-9.53,14.23Z"/>
    <path class="cls-2" d="m290.23,139.6h-17.08v7.76h15.14v4.79h-15.14v8.06h17.29v4.79h-22.55v-30.19h22.34v4.79Z"/>
    <path class="cls-2" d="m328.96,155.84c-.78,1.85-1.88,3.46-3.3,4.81-1.42,1.35-3.12,2.41-5.09,3.19-1.97.78-4.13,1.16-6.49,1.16h-11.26v-30.19h11.26c2.36,0,4.52.38,6.49,1.14,1.97.76,3.67,1.82,5.09,3.17,1.42,1.35,2.52,2.95,3.3,4.79.78,1.84,1.16,3.82,1.16,5.95s-.39,4.12-1.16,5.97Zm-5.16-10.02c-.51-1.26-1.21-2.35-2.12-3.27-.91-.92-2.01-1.65-3.31-2.17-1.3-.52-2.74-.78-4.32-.78h-5.97v20.61h5.97c1.58,0,3.03-.25,4.32-.76,1.3-.51,2.4-1.21,3.31-2.12.91-.91,1.61-1.99,2.12-3.25.5-1.26.76-2.63.76-4.14s-.25-2.88-.76-4.14Z"/>
    <path class="cls-2" d="m348.15,134.81v30.19h-5.26v-30.19h5.26Z"/>
    <path class="cls-2" d="m391.18,165h-5.61l-3.06-7.29h-14.27l-3.1,7.29h-5.43l13.28-30.4h4.92l13.28,30.4Zm-15.83-24.06l-5.18,12.07h10.39l-5.22-12.07Z"/>
    <path class="cls-2" d="m426.12,144.26c.2.43.57.83,1.1,1.21.53.37,1.27.72,2.2,1.04.94.32,2.13.65,3.57.99,1.58.4,2.99.85,4.22,1.34,1.22.49,2.24,1.09,3.05,1.79.81.71,1.42,1.53,1.84,2.46.42.93.63,2.03.63,3.3,0,1.44-.26,2.72-.79,3.84-.53,1.12-1.26,2.07-2.2,2.85-.94.78-2.07,1.37-3.39,1.77-1.32.4-2.77.6-4.35.6-2.33,0-4.56-.4-6.68-1.19-2.13-.79-4.1-2.01-5.91-3.64l3.19-3.79c1.47,1.27,2.95,2.24,4.44,2.91,1.49.68,3.19,1.01,5.09,1.01,1.64,0,2.94-.35,3.9-1.04.96-.69,1.44-1.62,1.44-2.8,0-.54-.09-1.04-.28-1.47-.19-.43-.53-.83-1.04-1.19-.5-.36-1.2-.7-2.08-1.01-.88-.32-2.02-.65-3.44-.99-1.61-.37-3.05-.79-4.3-1.25-1.25-.46-2.31-1.04-3.16-1.72-.85-.69-1.5-1.52-1.95-2.5s-.67-2.17-.67-3.58c0-1.32.26-2.52.77-3.6.51-1.08,1.22-2.01,2.12-2.78.9-.78,1.98-1.37,3.24-1.79,1.26-.42,2.64-.62,4.14-.62,2.21,0,4.2.32,5.97.97s3.43,1.59,4.98,2.82l-2.85,4.01c-1.38-1.01-2.75-1.77-4.1-2.31-1.35-.53-2.72-.8-4.1-.8-1.55,0-2.76.35-3.62,1.06-.86.7-1.29,1.56-1.29,2.57,0,.6.1,1.12.3,1.55Z"/>
    <path class="cls-2" d="m484.08,155.9c-.78,1.9-1.87,3.56-3.28,4.98-1.41,1.42-3.08,2.55-5,3.39-1.93.83-4.05,1.25-6.38,1.25s-4.46-.41-6.38-1.23c-1.93-.82-3.58-1.93-4.96-3.34-1.38-1.41-2.46-3.06-3.23-4.96-.78-1.9-1.16-3.91-1.16-6.04s.39-4.14,1.16-6.04c.78-1.9,1.87-3.56,3.28-4.98,1.41-1.42,3.08-2.55,5-3.39,1.93-.83,4.05-1.25,6.38-1.25s4.46.41,6.38,1.23c1.93.82,3.58,1.93,4.96,3.34,1.38,1.41,2.46,3.06,3.24,4.96.78,1.9,1.16,3.91,1.16,6.04s-.39,4.14-1.16,6.04Zm-5.15-10.11c-.5-1.31-1.21-2.45-2.11-3.43-.91-.98-1.99-1.75-3.26-2.33-1.27-.57-2.65-.86-4.14-.86s-2.87.28-4.12.84-2.32,1.32-3.21,2.29c-.89.96-1.59,2.1-2.09,3.41-.5,1.31-.75,2.7-.75,4.16s.25,2.85.75,4.16c.5,1.31,1.21,2.45,2.11,3.43s1.99,1.75,3.26,2.33c1.27.58,2.64.86,4.14.86s2.87-.28,4.12-.84,2.32-1.32,3.21-2.29c.89-.96,1.59-2.1,2.09-3.41.5-1.31.75-2.69.75-4.16s-.25-2.85-.75-4.16Z"/>
    <path class="cls-2" d="m497.7,134.81h5.26v25.4h15.87v4.79h-21.13v-30.19Z"/>
    <path class="cls-2" d="m554.93,151.93c0,2.24-.31,4.21-.93,5.91-.62,1.7-1.49,3.11-2.61,4.25-1.12,1.14-2.48,1.98-4.08,2.54-1.6.56-3.39.84-5.37.84s-3.72-.28-5.3-.84c-1.58-.56-2.93-1.4-4.05-2.52s-1.98-2.51-2.59-4.16-.91-3.57-.91-5.76v-17.38h5.26v17.16c0,2.82.68,4.96,2.04,6.43,1.36,1.47,3.24,2.2,5.64,2.2s4.24-.7,5.59-2.11,2.04-3.51,2.04-6.3v-17.38h5.26v17.12Z"/>
    <path class="cls-2" d="m581.02,165h-5.35v-25.27h-9.57v-4.92h24.49v4.92h-9.57v25.27Z"/>
    <path class="cls-2" d="m607.8,134.81v30.19h-5.26v-30.19h5.26Z"/>
    <path class="cls-2" d="m651.01,155.9c-.78,1.9-1.87,3.56-3.28,4.98-1.41,1.42-3.08,2.55-5,3.39-1.93.83-4.05,1.25-6.38,1.25s-4.46-.41-6.38-1.23c-1.93-.82-3.58-1.93-4.96-3.34s-2.46-3.06-3.23-4.96-1.16-3.91-1.16-6.04.39-4.14,1.16-6.04c.78-1.9,1.87-3.56,3.28-4.98s3.08-2.55,5-3.39c1.93-.83,4.05-1.25,6.38-1.25s4.46.41,6.38,1.23c1.93.82,3.58,1.93,4.96,3.34,1.38,1.41,2.46,3.06,3.24,4.96.78,1.9,1.16,3.91,1.16,6.04s-.39,4.14-1.16,6.04Zm-5.15-10.11c-.5-1.31-1.21-2.45-2.11-3.43-.91-.98-1.99-1.75-3.26-2.33-1.27-.57-2.65-.86-4.14-.86s-2.87.28-4.12.84c-1.25.56-2.32,1.32-3.21,2.29-.89.96-1.59,2.1-2.09,3.41-.5,1.31-.75,2.7-.75,4.16s.25,2.85.75,4.16c.5,1.31,1.21,2.45,2.11,3.43s1.99,1.75,3.26,2.33c1.26.58,2.64.86,4.14.86s2.87-.28,4.12-.84,2.32-1.32,3.21-2.29c.89-.96,1.59-2.1,2.09-3.41.5-1.31.75-2.69.75-4.16s-.25-2.85-.75-4.16Z"/>
    <path class="cls-2" d="m685.68,134.81h5.26v30.19h-4.43l-16.61-21.48v21.48h-5.26v-30.19h4.91l16.14,20.87v-20.87Z"/>
    <path class="cls-2" d="m709.49,144.26c.2.43.57.83,1.1,1.21.53.37,1.27.72,2.2,1.04.94.32,2.13.65,3.57.99,1.58.4,2.99.85,4.22,1.34,1.22.49,2.24,1.09,3.05,1.79.81.71,1.42,1.53,1.84,2.46s.63,2.03.63,3.3c0,1.44-.26,2.72-.79,3.84-.53,1.12-1.26,2.07-2.2,2.85-.94.78-2.07,1.37-3.39,1.77-1.32.4-2.77.6-4.35.6-2.33,0-4.56-.4-6.68-1.19-2.13-.79-4.1-2.01-5.91-3.64l3.19-3.79c1.47,1.27,2.95,2.24,4.44,2.91,1.49.68,3.19,1.01,5.09,1.01,1.64,0,2.94-.35,3.9-1.04.96-.69,1.45-1.62,1.45-2.8,0-.54-.09-1.04-.28-1.47-.19-.43-.53-.83-1.04-1.19-.5-.36-1.2-.7-2.07-1.01-.88-.32-2.02-.65-3.44-.99-1.61-.37-3.05-.79-4.3-1.25-1.25-.46-2.31-1.04-3.16-1.72-.85-.69-1.5-1.52-1.95-2.5s-.67-2.17-.67-3.58c0-1.32.26-2.52.77-3.6.51-1.08,1.22-2.01,2.12-2.78s1.98-1.37,3.24-1.79c1.26-.42,2.64-.62,4.14-.62,2.21,0,4.2.32,5.97.97,1.77.65,3.43,1.59,4.98,2.82l-2.85,4.01c-1.38-1.01-2.75-1.77-4.1-2.31-1.35-.53-2.72-.8-4.1-.8-1.55,0-2.76.35-3.62,1.06s-1.29,1.56-1.29,2.57c0,.6.1,1.12.3,1.55Z"/>
  </g>
  <g>
    <path class="cls-1" d="m73.32,1.59l5.27,16.19c3.86-.6,7.83-.91,11.87-.91.35,0,.7,0,1.05,0V.07c-.35,0-.69,0-1.05,0-5.86,0-11.59.53-17.14,1.53Z"/>
    <path class="cls-2" d="m181.79,83.89l-.03-1.02c-.01-.33-.02-.67-.05-1.01-.01-.35-.03-.71-.06-1.07-.02-.46-.06-.92-.09-1.38-.02-.35-.06-.7-.09-1.06-.02-.31-.06-.62-.09-.92-.03-.31-.07-.62-.1-.92-.26-2.26-.62-4.52-1.06-6.76-.26-1.26-.53-2.51-.85-3.75-.08-.31-.16-.63-.24-.93-.07-.31-.16-.62-.24-.92-.07-.24-.14-.48-.21-.73-.09-.34-.2-.68-.29-1.02-2.21-7.37-5.43-14.42-9.65-21.01-3.42-5.35-7.48-10.36-12.06-14.92l-.05.05-11.21,13.26-.93,1.09-3.61,4.25-.05.05-.13.15-3.41,4.03-15.65-18.46-.22-.26-.09-.11-4.91-5.79-.51-.62-3.7-4.36L97.91,0l.09,23.95v.06l.07,16.89.37,90.02.07,16.89c.21-.02.43-.04.64-.08.55-.07,1.09-.13,1.64-.21.66-.1,1.32-.2,1.99-.32,2.12-.35,4.2-.81,6.23-1.36h.03l.12-.03c2.11-.58,4.17-1.24,6.19-2l.07-.03c.2-.08.41-.14.6-.22V51.65l8.75,10.36,5.39,6.35,7.12,8.39.51-.6.15-.18,6.42-7.61,5.39-6.35,1.17-1.38h0s.19-.22.19-.22l.05-.05,4.95-5.85.06-.07,1.21,2.48c.51,1.03.99,2.09,1.43,3.17.14.32.28.64.41.96.02.07.06.14.08.22.1.24.21.49.3.74.03.09.06.16.09.25.09.22.17.45.26.69.1.26.21.53.29.79.2.54.38,1.08.56,1.62.09.27.17.54.26.81.09.27.17.55.26.82.17.54.33,1.09.48,1.65.03.12.07.24.1.37.1.42.22.85.31,1.29.08.27.14.55.21.84.06.29.13.56.19.85.06.27.12.56.17.85.08.41.16.84.24,1.26.05.24.09.49.13.75,0,.01.01.02.01.03s0,.03.01.04c.06.35.12.7.16,1.06.09.59.17,1.2.24,1.8.05.35.09.7.13,1.07,0,.04.01.09.01.14.05.4.08.79.12,1.19.01.13.02.27.03.42.03.35.06.71.08,1.07,0,.08,0,.14.01.22.02.41.05.8.06,1.21.01.04.01.1.01.15.02.4.02.8.03,1.2v.18c.01.43.02.87.02,1.3,0,.15,0,.31-.01.47v.33c0,.11,0,.22-.01.34,0,.48-.01.99-.03,1.53-.01.29-.02.59-.03.9-.01.19-.02.37-.03.57-.15,2.42-.43,4.84-.86,7.23-.51,2.9-1.21,5.79-2.11,8.62-6.41,20.13-21.88,36.24-42.48,44.21-6.61,2.54-13.51,4.14-20.57,4.77v16.88c6.52-.46,13.04-1.62,19.38-3.43,24.44-7.02,44.77-23.6,55.75-45.45,1.06-2.1,2.01-4.24,2.87-6.42.17-.43.35-.86.5-1.27.22-.58.44-1.15.65-1.73.12-.34.23-.67.35-1,.23-.67.45-1.34.66-2.02.08-.26.16-.54.24-.8.13-.42.24-.82.36-1.23.13-.41.23-.81.34-1.22.14-.49.27-.99.38-1.48.24-.98.48-1.96.67-2.93.01-.02.02-.05.02-.09.19-.87.35-1.75.51-2.63,0-.04.01-.08.01-.11.02-.08.03-.16.05-.24.05-.24.08-.47.12-.71.06-.35.12-.7.16-1.07.16-1.07.3-2.14.42-3.23.06-.6.12-1.21.17-1.82.01-.15.02-.32.03-.47.03-.38.06-.77.08-1.14.02-.31.05-.62.06-.92.01-.08.01-.15.01-.23v-.23c.02-.13.02-.26.03-.4,0-.14.01-.27.01-.42.01-.03.01-.07.01-.1.02-.62.03-1.27.05-1.97v-1.08c0-.68-.01-1.35-.02-2.02Z"/>
    <path class="cls-2" d="m20.27,104.95s-.02-.09-.03-.13c-.13-.43-.24-.85-.37-1.27-.79-2.88-1.39-5.82-1.8-8.82-.07-.52-.13-1.03-.19-1.55-.06-.52-.12-1.03-.15-1.56-.02-.23-.03-.47-.06-.7-.02-.3-.05-.6-.06-.9-.02-.36-.05-.71-.06-1.08v-.04c-.02-.34-.03-.67-.03-1.01-.02-.65-.03-1.3-.03-1.95,0-.52.01-1.02.02-1.54,0-.37.01-.76.03-1.13,0-.19.01-.36.02-.55.02-.45.05-.91.08-1.36.02-.42.06-.85.09-1.26.06-.59.12-1.18.19-1.76.03-.33.07-.66.13-.99.03-.37.09-.75.15-1.13.09-.64.2-1.26.31-1.89.1-.64.23-1.26.36-1.89.1-.49.21-.98.33-1.45.08-.41.19-.81.29-1.21.02-.14.06-.27.1-.42.36-1.37.75-2.73,1.21-4.07.36-1.1.77-2.19,1.19-3.27,0,0,0,0,0,0,.21-.54.43-1.09.66-1.62.21-.51.44-1.01.66-1.51.06-.13.11-.25.17-.38,9.13-19.95,27.93-35.02,50.8-39.93l-.27-.82-4.98-15.28C47.21,7.47,28.49,19.92,16.01,36.84c-.01.01-.02.03-.03.04C5.79,50.77,0,67.74,0,85.93c0,2.97.16,5.9.46,8.79.31,2.88.78,5.71,1.38,8.51.21.96.44,1.9.68,2.84h18.1c-.13-.37-.25-.74-.36-1.12Z"/>
    <path class="cls-1" d="m90.77,23.63c-30.36,0-55.93,19.46-63.53,45.93-1.5,5.21-2.3,10.7-2.3,16.38,0,1.24.03,2.46.13,3.68.09,1.73.27,3.43.52,5.11.14.96.31,1.91.51,2.86.33,1.67.73,3.32,1.21,4.95.3,1.01.62,2.02.96,3.01h46.25v47.86c-.52-.11-1.06-.23-1.58-.35v.15c-1.54-.37-3.08-.78-4.57-1.24-14.77-4.55-28.01-13.5-37.05-25.5-1.79-2.38-3.38-4.88-4.8-7.48-.99-1.81-2.05-3.71-3-5.63H4.8c5.04,13.58,12.82,25.74,24.1,35.66,11,9.67,24.49,16.7,39.03,20.26.15.04.3.07.44.11,1.51.36,3.03.69,4.57.98v.08c.52.1,1.06.2,1.58.29,3.02.52,6.06.88,9.09,1.1,0,0,0-.07.01-.07v-.13c2.25.16,4.54.24,6.84.24h.88v-82.25h-48.57c-.1-1.21-.15-2.44-.15-3.68,0-2.43.2-4.8.59-7.12,1.1-6.73,3.77-12.96,7.63-18.35.02-.02.03-.04.05-.07.26-.34.52-.66.79-.99,5.55-6.76,12.82-12.2,21.18-15.74.02-.01.05-.02.06-.02.24-.11.5-.21.74-.31.02-.01.05-.02.06-.02.27-.1.55-.2.81-.29v16.37h16.82V23.64c-.2-.01-.38-.01-.58-.01Z"/>
  </g>
</svg>