<?xml version="1.0" encoding="UTF-8"?>
<svg id="Layer_1" data-name="Layer 1" xmlns="http://www.w3.org/2000/svg" viewBox="0 0 181.81 171.86">
  <defs>
    <style>
      .cls-1 {
        fill: #778da9;
      }

      .cls-1, .cls-2 {
        stroke-width: 0px;
      }

      .cls-2 {
        fill: #c11111;
      }
    </style>
  </defs>
  <path class="cls-1" d="m73.32,1.59l5.27,16.19c3.86-.6,7.83-.91,11.87-.91.35,0,.7,0,1.05,0V.07c-.35,0-.69,0-1.05,0-5.86,0-11.59.53-17.14,1.53Z"/>
  <path class="cls-2" d="m181.79,83.89l-.03-1.02c-.01-.33-.02-.67-.05-1.01-.01-.35-.03-.71-.06-1.07-.02-.46-.06-.92-.09-1.38-.02-.35-.06-.7-.09-1.06-.02-.31-.06-.62-.09-.92-.03-.31-.07-.62-.1-.92-.26-2.26-.62-4.52-1.06-6.76-.26-1.26-.53-2.51-.85-3.75-.08-.31-.16-.63-.24-.93-.07-.31-.16-.62-.24-.92-.07-.24-.14-.48-.21-.73-.09-.34-.2-.68-.29-1.02-2.21-7.37-5.43-14.42-9.65-21.01-3.42-5.35-7.48-10.36-12.06-14.92l-.05.05-11.21,13.26-.93,1.09-3.61,4.25-.05.05-.13.15-3.41,4.03-15.65-18.46-.22-.26-.09-.11-4.91-5.79-.51-.62-3.7-4.36L97.91,0l.09,23.95v.06l.07,16.89.37,90.02.07,16.89c.21-.02.43-.04.64-.08.55-.07,1.09-.13,1.64-.21.66-.1,1.32-.2,1.99-.32,2.12-.35,4.2-.81,6.23-1.36h.03l.12-.03c2.11-.58,4.17-1.24,6.19-2l.07-.03c.2-.08.41-.14.6-.22V51.65l8.75,10.36,5.39,6.35,7.12,8.39.51-.6.15-.18,6.42-7.61,5.39-6.35,1.17-1.38h0s.19-.22.19-.22l.05-.05,4.95-5.85.06-.07,1.21,2.48c.51,1.03.99,2.09,1.43,3.17.14.32.28.64.41.96.02.07.06.14.08.22.1.24.21.49.3.74.03.09.06.16.09.25.09.22.17.45.26.69.1.26.21.53.29.79.2.54.38,1.08.56,1.62.09.27.17.54.26.81.09.27.17.55.26.82.17.54.33,1.09.48,1.65.03.12.07.24.1.37.1.42.22.85.31,1.29.08.27.14.55.21.84.06.29.13.56.19.85.06.27.12.56.17.85.08.41.16.84.24,1.26.05.24.09.49.13.75,0,.01.01.02.01.03s0,.03.01.04c.06.35.12.7.16,1.06.09.59.17,1.2.24,1.8.05.35.09.7.13,1.07,0,.04.01.09.01.14.05.4.08.79.12,1.19.01.13.02.27.03.42.03.35.06.71.08,1.07,0,.08,0,.14.01.22.02.41.05.8.06,1.21.01.04.01.1.01.15.02.4.02.8.03,1.2v.18c.01.43.02.87.02,1.3,0,.15,0,.31-.01.47v.33c0,.11,0,.22-.01.34,0,.48-.01.99-.03,1.53-.01.29-.02.59-.03.9-.01.19-.02.37-.03.57-.15,2.42-.43,4.84-.86,7.23-.51,2.9-1.21,5.79-2.11,8.62-6.41,20.13-21.88,36.24-42.48,44.21-6.61,2.54-13.51,4.14-20.57,4.77v16.88c6.52-.46,13.04-1.62,19.38-3.43,24.44-7.02,44.77-23.6,55.75-45.45,1.06-2.1,2.01-4.24,2.87-6.42.17-.43.35-.86.5-1.27.22-.58.44-1.15.65-1.73.12-.34.23-.67.35-1,.23-.67.45-1.34.66-2.02.08-.26.16-.54.24-.8.13-.42.24-.82.36-1.23.13-.41.23-.81.34-1.22.14-.49.27-.99.38-1.48.24-.98.48-1.96.67-2.93.01-.02.02-.05.02-.09.19-.87.35-1.75.51-2.63,0-.04.01-.08.01-.11.02-.08.03-.16.05-.24.05-.24.08-.47.12-.71.06-.35.12-.7.16-1.07.16-1.07.3-2.14.42-3.23.06-.6.12-1.21.17-1.82.01-.15.02-.32.03-.47.03-.38.06-.77.08-1.14.02-.31.05-.62.06-.92.01-.08.01-.15.01-.23v-.23c.02-.13.02-.26.03-.4,0-.14.01-.27.01-.42.01-.03.01-.07.01-.1.02-.62.03-1.27.05-1.97v-1.08c0-.68-.01-1.35-.02-2.02Z"/>
  <path class="cls-2" d="m20.27,104.95s-.02-.09-.03-.13c-.13-.43-.24-.85-.37-1.27-.79-2.88-1.39-5.82-1.8-8.82-.07-.52-.13-1.03-.19-1.55-.06-.52-.12-1.03-.15-1.56-.02-.23-.03-.47-.06-.7-.02-.3-.05-.6-.06-.9-.02-.36-.05-.71-.06-1.08v-.04c-.02-.34-.03-.67-.03-1.01-.02-.65-.03-1.3-.03-1.95,0-.52.01-1.02.02-1.54,0-.37.01-.76.03-1.13,0-.19.01-.36.02-.55.02-.45.05-.91.08-1.36.02-.42.06-.85.09-1.26.06-.59.12-1.18.19-1.76.03-.33.07-.66.13-.99.03-.37.09-.75.15-1.13.09-.64.2-1.26.31-1.89.1-.64.23-1.26.36-1.89.1-.49.21-.98.33-1.45.08-.41.19-.81.29-1.21.02-.14.06-.27.1-.42.36-1.37.75-2.73,1.21-4.07.36-1.1.77-2.19,1.19-3.27,0,0,0,0,0,0,.21-.54.43-1.09.66-1.62.21-.51.44-1.01.66-1.51.06-.13.11-.25.17-.38,9.13-19.95,27.93-35.02,50.8-39.93l-.27-.82-4.98-15.28C47.21,7.47,28.49,19.92,16.01,36.84c-.01.01-.02.03-.03.04C5.79,50.77,0,67.74,0,85.93c0,2.97.16,5.9.46,8.79.31,2.88.78,5.71,1.38,8.51.21.96.44,1.9.68,2.84h18.1c-.13-.37-.25-.74-.36-1.12Z"/>
  <path class="cls-1" d="m90.77,23.63c-30.36,0-55.93,19.46-63.53,45.93-1.5,5.21-2.3,10.7-2.3,16.38,0,1.24.03,2.46.13,3.68.09,1.73.27,3.43.52,5.11.14.96.31,1.91.51,2.86.33,1.67.73,3.32,1.21,4.95.3,1.01.62,2.02.96,3.01h46.25v47.86c-.52-.11-1.06-.23-1.58-.35v.15c-1.54-.37-3.08-.78-4.57-1.24-14.77-4.55-28.01-13.5-37.05-25.5-1.79-2.38-3.38-4.88-4.8-7.48-.99-1.81-2.05-3.71-3-5.63H4.8c5.04,13.58,12.82,25.74,24.1,35.66,11,9.67,24.49,16.7,39.03,20.26.15.04.3.07.44.11,1.51.36,3.03.69,4.57.98v.08c.52.1,1.06.2,1.58.29,3.02.52,6.06.88,9.09,1.1,0,0,0-.07.01-.07v-.13c2.25.16,4.54.24,6.84.24h.88v-82.25h-48.57c-.1-1.21-.15-2.44-.15-3.68,0-2.43.2-4.8.59-7.12,1.1-6.73,3.77-12.96,7.63-18.35.02-.02.03-.04.05-.07.26-.34.52-.66.79-.99,5.55-6.76,12.82-12.2,21.18-15.74.02-.01.05-.02.06-.02.24-.11.5-.21.74-.31.02-.01.05-.02.06-.02.27-.1.55-.2.81-.29v16.37h16.82V23.64c-.2-.01-.38-.01-.58-.01Z"/>
</svg>