<?xml version="1.0" encoding="UTF-8"?>
<svg id="Layer_1" data-name="Layer 1" xmlns="http://www.w3.org/2000/svg" viewBox="0 0 501.67 410.62">
  <defs>
    <style>
      .cls-1 {
        fill: #778da9;
      }

      .cls-1, .cls-2 {
        stroke-width: 0px;
      }

      .cls-2 {
        fill: #c11111;
      }
    </style>
  </defs>
  <g>
    <path class="cls-1" d="m0,260.28h20.8v96.91H0v-96.91Z"/>
    <path class="cls-1" d="m40.04,318.15c0-22.35,16.13-38.06,37.63-38.06s37.63,15.7,37.63,38.06v39.05h-19.81v-39.05c0-11.46-7.22-18.25-17.83-18.25s-17.83,6.79-17.83,18.25v39.05h-19.81v-39.05Z"/>
    <path class="cls-1" d="m136.95,301.31h-9.05v-19.81h9.05c0-16.84,11.88-36.5,44-26.46l-3.82,18.25c-11.04-3.96-20.94-.57-20.94,8.21h21.08v19.81h-20.51v55.88h-19.81v-55.88Z"/>
    <path class="cls-1" d="m183.77,319.42c0-21.65,17.69-39.33,39.33-39.33s39.33,17.69,39.33,39.33-17.68,39.33-39.33,39.33-39.33-17.54-39.33-39.33Zm58.86,0c0-10.75-8.77-19.52-19.52-19.52s-19.52,8.77-19.52,19.52,8.77,19.52,19.52,19.52,19.52-8.63,19.52-19.52Z"/>
    <path class="cls-1" d="m276.86,333.71c17.69,10.04,43.43,14.15,43.43,1.84,0-10.75-49.66-6.23-48.25-34.95,1.84-25.04,39.05-29.71,67.06-11.18l-8.06,13.58c-15-11.6-37.92-10.75-38.34-1.27-.42,10.47,48.1,8.06,48.1,32.96s-27.87,36.64-70.88,15.42l6.93-16.41Z"/>
    <path class="cls-1" d="m348.73,318.86c0-20.37,13.44-39.61,36.5-39.47,25.18.14,42.73,19.95,35.65,48.24h-50.51c.99,6.79,9.05,13.3,18.67,13.3,5.24.14,14.29-2.26,16.84-5.8l15,11.46c-7.64,8.63-19.95,12.03-33.81,12.03-22.92,0-38.34-20.23-38.34-39.76Zm52.77-8.35c.71-5.09-3.4-13.72-15.56-13.72-10.47,0-15.7,7.64-15.7,13.72h31.27Z"/>
    <path class="cls-1" d="m431.64,320.13c0-23.2,18.67-39.76,39.47-39.76,12.59,0,24.19,6.23,30.56,15.42l-14.29,13.87c-3.4-6.65-10.61-9.48-16.13-9.48-9.9,0-19.81,7.64-19.81,19.95,0,11.18,8.77,20.23,19.81,20.23,7.07,0,13.58-4.1,16.27-9.62l14.15,13.86c-6.22,9.34-17.97,15.56-30.56,15.56-21.79,0-39.47-17.97-39.47-40.04Z"/>
  </g>
  <g>
    <path class="cls-2" d="m14.88,402.68h-.17l-9.44-14.14v21.56H0v-30.19h5.65l9.19,14.27,9.19-14.27h5.65v30.19h-5.26v-21.65l-9.53,14.23Z"/>
    <path class="cls-2" d="m65.81,384.7h-17.08v7.76h15.14v4.79h-15.14v8.06h17.29v4.79h-22.55v-30.19h22.34v4.79Z"/>
    <path class="cls-2" d="m104.53,400.94c-.78,1.85-1.88,3.46-3.3,4.81-1.42,1.35-3.12,2.41-5.09,3.19-1.97.78-4.13,1.16-6.49,1.16h-11.26v-30.19h11.26c2.36,0,4.52.38,6.49,1.14,1.97.76,3.67,1.82,5.09,3.17,1.42,1.35,2.52,2.95,3.3,4.79.78,1.84,1.16,3.82,1.16,5.95s-.39,4.12-1.16,5.97Zm-5.16-10.02c-.51-1.26-1.21-2.35-2.12-3.27-.91-.92-2.01-1.65-3.31-2.17-1.3-.52-2.74-.78-4.32-.78h-5.97v20.61h5.97c1.58,0,3.03-.25,4.32-.76,1.3-.51,2.4-1.21,3.31-2.12.91-.91,1.61-1.99,2.12-3.25.5-1.26.76-2.63.76-4.14s-.25-2.88-.76-4.14Z"/>
    <path class="cls-2" d="m123.73,379.91v30.19h-5.26v-30.19h5.26Z"/>
    <path class="cls-2" d="m166.76,410.1h-5.61l-3.06-7.29h-14.27l-3.1,7.29h-5.43l13.28-30.4h4.92l13.28,30.4Zm-15.83-24.06l-5.18,12.07h10.39l-5.22-12.07Z"/>
    <path class="cls-2" d="m201.69,389.36c.2.43.57.83,1.1,1.21.53.37,1.27.72,2.2,1.04.94.32,2.13.65,3.57.99,1.58.4,2.99.85,4.22,1.34,1.22.49,2.24,1.09,3.05,1.79.81.71,1.42,1.53,1.84,2.46.42.93.63,2.03.63,3.3,0,1.44-.26,2.72-.79,3.84-.53,1.12-1.26,2.07-2.2,2.85-.94.78-2.07,1.37-3.39,1.77-1.32.4-2.77.6-4.35.6-2.33,0-4.56-.4-6.68-1.19-2.13-.79-4.1-2.01-5.91-3.64l3.19-3.79c1.47,1.27,2.95,2.24,4.44,2.91,1.49.68,3.19,1.01,5.09,1.01,1.64,0,2.94-.35,3.9-1.04.96-.69,1.44-1.62,1.44-2.8,0-.54-.09-1.04-.28-1.47-.19-.43-.53-.83-1.04-1.19-.5-.36-1.2-.7-2.08-1.01-.88-.32-2.02-.65-3.44-.99-1.61-.37-3.05-.79-4.3-1.25-1.25-.46-2.31-1.04-3.16-1.72-.85-.69-1.5-1.52-1.95-2.5s-.67-2.17-.67-3.58c0-1.32.26-2.52.77-3.6.51-1.08,1.22-2.01,2.12-2.78.9-.78,1.98-1.37,3.24-1.79,1.26-.42,2.64-.62,4.14-.62,2.21,0,4.2.32,5.97.97s3.43,1.59,4.98,2.82l-2.85,4.01c-1.38-1.01-2.75-1.77-4.1-2.31-1.35-.53-2.72-.8-4.1-.8-1.55,0-2.76.35-3.62,1.06-.86.7-1.29,1.56-1.29,2.57,0,.6.1,1.12.3,1.55Z"/>
    <path class="cls-2" d="m259.65,401c-.78,1.9-1.87,3.56-3.28,4.98-1.41,1.42-3.08,2.55-5,3.39-1.93.83-4.05,1.25-6.38,1.25s-4.46-.41-6.38-1.23c-1.93-.82-3.58-1.93-4.96-3.34-1.38-1.41-2.46-3.06-3.23-4.96-.78-1.9-1.16-3.91-1.16-6.04s.39-4.14,1.16-6.04c.78-1.9,1.87-3.56,3.28-4.98,1.41-1.42,3.08-2.55,5-3.39,1.93-.83,4.05-1.25,6.38-1.25s4.46.41,6.38,1.23c1.93.82,3.58,1.93,4.96,3.34,1.38,1.41,2.46,3.06,3.24,4.96.78,1.9,1.16,3.91,1.16,6.04s-.39,4.14-1.16,6.04Zm-5.15-10.11c-.5-1.31-1.21-2.45-2.11-3.43-.91-.98-1.99-1.75-3.26-2.33-1.27-.57-2.65-.86-4.14-.86s-2.87.28-4.12.84-2.32,1.32-3.21,2.29c-.89.96-1.59,2.1-2.09,3.41-.5,1.31-.75,2.7-.75,4.16s.25,2.85.75,4.16c.5,1.31,1.21,2.45,2.11,3.43s1.99,1.75,3.26,2.33c1.27.58,2.64.86,4.14.86s2.87-.28,4.12-.84,2.32-1.32,3.21-2.29c.89-.96,1.59-2.1,2.09-3.41.5-1.31.75-2.69.75-4.16s-.25-2.85-.75-4.16Z"/>
    <path class="cls-2" d="m273.28,379.91h5.26v25.4h15.87v4.79h-21.13v-30.19Z"/>
    <path class="cls-2" d="m330.51,397.03c0,2.24-.31,4.21-.93,5.91-.62,1.7-1.49,3.11-2.61,4.25-1.12,1.14-2.48,1.98-4.08,2.54-1.6.56-3.39.84-5.37.84s-3.72-.28-5.3-.84c-1.58-.56-2.93-1.4-4.05-2.52s-1.98-2.51-2.59-4.16-.91-3.57-.91-5.76v-17.38h5.26v17.16c0,2.82.68,4.96,2.04,6.43,1.36,1.47,3.24,2.2,5.64,2.2s4.24-.7,5.59-2.11,2.04-3.51,2.04-6.3v-17.38h5.26v17.12Z"/>
    <path class="cls-2" d="m356.6,410.1h-5.35v-25.27h-9.57v-4.92h24.49v4.92h-9.57v25.27Z"/>
    <path class="cls-2" d="m383.38,379.91v30.19h-5.26v-30.19h5.26Z"/>
    <path class="cls-2" d="m426.59,401c-.78,1.9-1.87,3.56-3.28,4.98-1.41,1.42-3.08,2.55-5,3.39-1.93.83-4.05,1.25-6.38,1.25s-4.46-.41-6.38-1.23c-1.93-.82-3.58-1.93-4.96-3.34s-2.46-3.06-3.23-4.96-1.16-3.91-1.16-6.04.39-4.14,1.16-6.04c.78-1.9,1.87-3.56,3.28-4.98s3.08-2.55,5-3.39c1.93-.83,4.05-1.25,6.38-1.25s4.46.41,6.38,1.23c1.93.82,3.58,1.93,4.96,3.34,1.38,1.41,2.46,3.06,3.24,4.96.78,1.9,1.16,3.91,1.16,6.04s-.39,4.14-1.16,6.04Zm-5.15-10.11c-.5-1.31-1.21-2.45-2.11-3.43-.91-.98-1.99-1.75-3.26-2.33-1.27-.57-2.65-.86-4.14-.86s-2.87.28-4.12.84c-1.25.56-2.32,1.32-3.21,2.29-.89.96-1.59,2.1-2.09,3.41-.5,1.31-.75,2.7-.75,4.16s.25,2.85.75,4.16c.5,1.31,1.21,2.45,2.11,3.43s1.99,1.75,3.26,2.33c1.26.58,2.64.86,4.14.86s2.87-.28,4.12-.84,2.32-1.32,3.21-2.29c.89-.96,1.59-2.1,2.09-3.41.5-1.31.75-2.69.75-4.16s-.25-2.85-.75-4.16Z"/>
    <path class="cls-2" d="m461.26,379.91h5.26v30.19h-4.43l-16.61-21.48v21.48h-5.26v-30.19h4.91l16.14,20.87v-20.87Z"/>
    <path class="cls-2" d="m485.07,389.36c.2.43.57.83,1.1,1.21.53.37,1.27.72,2.2,1.04.94.32,2.13.65,3.57.99,1.58.4,2.99.85,4.22,1.34,1.22.49,2.24,1.09,3.05,1.79.81.71,1.42,1.53,1.84,2.46s.63,2.03.63,3.3c0,1.44-.26,2.72-.79,3.84-.53,1.12-1.26,2.07-2.2,2.85-.94.78-2.07,1.37-3.39,1.77-1.32.4-2.77.6-4.35.6-2.33,0-4.56-.4-6.68-1.19-2.13-.79-4.1-2.01-5.91-3.64l3.19-3.79c1.47,1.27,2.95,2.24,4.44,2.91,1.49.68,3.19,1.01,5.09,1.01,1.64,0,2.94-.35,3.9-1.04.96-.69,1.45-1.62,1.45-2.8,0-.54-.09-1.04-.28-1.47-.19-.43-.53-.83-1.04-1.19-.5-.36-1.2-.7-2.07-1.01-.88-.32-2.02-.65-3.44-.99-1.61-.37-3.05-.79-4.3-1.25-1.25-.46-2.31-1.04-3.16-1.72-.85-.69-1.5-1.52-1.95-2.5s-.67-2.17-.67-3.58c0-1.32.26-2.52.77-3.6.51-1.08,1.22-2.01,2.12-2.78s1.98-1.37,3.24-1.79c1.26-.42,2.64-.62,4.14-.62,2.21,0,4.2.32,5.97.97,1.77.65,3.43,1.59,4.98,2.82l-2.85,4.01c-1.38-1.01-2.75-1.77-4.1-2.31-1.35-.53-2.72-.8-4.1-.8-1.55,0-2.76.35-3.62,1.06s-1.29,1.56-1.29,2.57c0,.6.1,1.12.3,1.55Z"/>
  </g>
  <g>
    <path class="cls-1" d="m229.87,2l6.29,20.39c4.61-.75,9.33-1.15,14.15-1.15.41,0,.83,0,1.25,0V.08c-.41-.01-.83-.01-1.25-.01-6.99,0-13.82.66-20.44,1.93Z"/>
    <path class="cls-2" d="m359.19,105.65l-.04-1.29c-.01-.42-.03-.84-.06-1.27-.01-.44-.04-.9-.07-1.34-.03-.58-.07-1.16-.11-1.74-.03-.44-.07-.89-.11-1.33-.03-.39-.07-.78-.11-1.16-.04-.39-.08-.78-.12-1.16-.3-2.85-.73-5.69-1.26-8.51-.3-1.59-.64-3.16-1.01-4.72-.1-.39-.19-.79-.29-1.18-.08-.39-.19-.78-.29-1.16-.08-.3-.17-.61-.25-.91-.11-.43-.24-.86-.35-1.29-2.63-9.29-6.48-18.16-11.5-26.46-4.08-6.74-8.91-13.05-14.38-18.8l-.06.07-13.37,16.71-1.11,1.37-4.3,5.36-.06.07-.15.19-4.07,5.08-18.66-23.25-.26-.33-.11-.14-5.85-7.29-.61-.78-4.42-5.5L259.19,0l.11,30.16v.07l.08,21.27.44,113.37.08,21.27c.25-.03.51-.06.76-.1.65-.08,1.3-.17,1.95-.26.79-.12,1.58-.25,2.37-.4,2.53-.44,5.01-1.02,7.43-1.72h.04l.14-.04c2.52-.73,4.97-1.56,7.38-2.52l.08-.04c.24-.1.48-.18.72-.28v-115.74l10.44,13.05,6.42,8,8.48,10.56.61-.76.18-.22,7.65-9.58,6.42-8,1.4-1.74h0s.22-.28.22-.28l.06-.07,5.9-7.36.07-.08,1.44,3.13c.61,1.3,1.18,2.63,1.7,3.99.17.4.33.8.48,1.2.03.08.07.18.1.28.12.3.25.62.36.93.04.11.07.21.11.32.11.28.21.57.3.87.12.33.25.66.35,1,.24.68.46,1.36.66,2.03.11.35.21.68.3,1.02.11.35.21.69.3,1.04.21.68.39,1.37.57,2.08.04.15.08.3.12.47.12.53.26,1.07.37,1.62.1.35.17.69.25,1.05.07.36.15.71.22,1.07.07.35.14.71.21,1.07.1.51.19,1.05.29,1.59.06.3.11.62.15.94,0,.01.01.03.01.04s0,.04.01.06c.07.44.14.89.19,1.33.11.75.21,1.51.29,2.27.06.44.11.89.15,1.34,0,.06.01.11.01.18.06.5.1,1,.14,1.49.01.17.03.35.04.53.04.44.07.9.1,1.34,0,.1,0,.18.01.28.03.51.06,1.01.07,1.52.01.06.01.12.01.19.03.5.03,1.01.04,1.51v.22c.01.54.03,1.09.03,1.63,0,.19,0,.39-.01.6v.42c0,.14,0,.28-.01.43,0,.61-.01,1.25-.04,1.92-.01.36-.03.75-.04,1.14-.01.24-.03.47-.04.72-.18,3.05-.51,6.09-1.02,9.11-.61,3.65-1.44,7.29-2.52,10.85-7.64,25.36-26.09,45.65-50.65,55.68-7.88,3.2-16.11,5.22-24.53,6.01v21.26c7.78-.58,15.54-2.03,23.1-4.32,29.14-8.84,53.37-29.72,66.47-57.25,1.26-2.64,2.39-5.34,3.42-8.08.21-.54.42-1.08.6-1.61.26-.73.53-1.45.78-2.17.14-.43.28-.84.42-1.26.28-.84.54-1.69.79-2.55.1-.33.19-.68.29-1.01.15-.53.29-1.04.43-1.55.15-.51.28-1.02.4-1.54.17-.62.32-1.25.46-1.87.29-1.23.57-2.46.8-3.7.01-.03.03-.07.03-.11.22-1.09.42-2.2.61-3.31,0-.06.01-.1.01-.14.03-.1.04-.21.06-.3.06-.3.1-.6.14-.9.07-.44.14-.89.19-1.34.19-1.34.36-2.7.5-4.07.07-.76.14-1.52.21-2.3.01-.19.03-.4.04-.6.04-.48.07-.97.1-1.44.03-.39.06-.78.07-1.16.01-.1.01-.19.01-.29v-.29c.03-.17.03-.33.04-.5,0-.18.01-.35.01-.53.01-.04.01-.08.01-.12.03-.78.04-1.61.06-2.48v-1.36c0-.86-.01-1.7-.03-2.55Z"/>
    <path class="cls-2" d="m166.62,132.18c-.01-.06-.03-.11-.04-.17-.15-.54-.29-1.07-.44-1.61-.94-3.63-1.66-7.34-2.15-11.11-.08-.65-.15-1.3-.22-1.95-.07-.65-.14-1.3-.18-1.97-.03-.29-.04-.6-.07-.89-.03-.37-.06-.76-.07-1.13-.03-.46-.06-.9-.07-1.36v-.06c-.03-.43-.04-.84-.04-1.27-.03-.82-.04-1.63-.04-2.45,0-.65.01-1.29.03-1.94,0-.47.01-.96.04-1.43,0-.24.01-.46.03-.69.03-.57.06-1.15.1-1.72.03-.53.07-1.07.11-1.59.07-.75.14-1.48.22-2.21.04-.42.08-.83.15-1.25.04-.47.11-.94.18-1.43.11-.8.24-1.59.37-2.38.12-.8.28-1.59.43-2.38.12-.62.25-1.23.39-1.83.1-.51.22-1.02.35-1.52.03-.18.07-.35.12-.53.43-1.73.9-3.43,1.44-5.12.43-1.39.92-2.75,1.42-4.11,0,0,0,0,0,0,.25-.69.51-1.37.78-2.04.25-.64.52-1.27.79-1.91.07-.16.13-.32.2-.48,10.89-25.12,33.3-44.1,60.57-50.28l-.32-1.04-5.94-19.24c-26.01,6.3-48.33,21.98-63.21,43.28-.01.01-.03.04-.04.06-12.14,17.5-19.05,38.87-19.05,61.77,0,3.74.19,7.43.55,11.07.37,3.63.93,7.2,1.65,10.71.25,1.2.53,2.39.81,3.58h21.58c-.15-.46-.29-.93-.43-1.41Z"/>
    <path class="cls-1" d="m250.68,29.76c-36.2,0-66.69,24.51-75.74,57.84-1.79,6.56-2.74,13.48-2.74,20.62,0,1.56.04,3.1.15,4.64.11,2.17.32,4.32.62,6.44.17,1.2.37,2.41.61,3.6.39,2.1.87,4.18,1.44,6.23.36,1.27.73,2.55,1.15,3.79h55.14v60.28c-.62-.14-1.26-.29-1.88-.44v.19c-1.84-.47-3.67-.98-5.45-1.56-17.61-5.73-33.39-17-44.17-32.12-2.14-3-4.03-6.15-5.72-9.42-1.18-2.29-2.45-4.68-3.58-7.09h-22.33c6.01,17.11,15.28,32.42,28.73,44.91,13.11,12.18,29.2,21.03,46.53,25.51.18.05.35.09.53.14,1.8.46,3.61.87,5.45,1.23v.1c.62.12,1.26.25,1.88.36,3.6.65,7.23,1.11,10.84,1.38,0,0,0-.08.01-.08v-.17c2.69.21,5.41.3,8.15.3h1.05v-103.59h-57.91c-.12-1.52-.18-3.07-.18-4.64,0-3.06.24-6.05.71-8.97,1.31-8.47,4.5-16.32,9.09-23.12.03-.03.04-.06.06-.08.3-.43.62-.83.94-1.25,6.62-8.51,15.28-15.36,25.25-19.82.03-.01.06-.03.07-.03.29-.14.6-.26.89-.39.03-.01.06-.03.07-.03.32-.12.65-.25.97-.36v20.62h20.06V29.77c-.24-.01-.46-.01-.69-.01Z"/>
  </g>
</svg>