<svg xmlns="http://www.w3.org/2000/svg" viewBox="0 0 85 85" id="affinity-designer"><defs><radialGradient id="b" cx="500.401" cy="-2119.738" r="1216.45" gradientTransform="matrix(.0819 0 0 -.0819 23.686 -188.796)" gradientUnits="userSpaceOnUse"><stop offset="0" stop-color="#6be1fb"></stop><stop offset="1" stop-color="#38bdfa"></stop></radialGradient><linearGradient id="c" x1="-78.438" x2="-77.438" y1="2061.751" y2="2061.751" gradientTransform="matrix(-.00146 -83.86374 -83.8636 .00146 172947.836 -6496.646)" gradientUnits="userSpaceOnUse"><stop offset="0" stop-color="#4ac5fa"></stop><stop offset="1" stop-color="#97e8fc"></stop></linearGradient><clipPath id="a"><rect width="83.864" height="83.864" x=".568" y=".568" fill="none" rx="2.516"></rect></clipPath></defs><path fill="#144e8c" fill-rule="evenodd" d="M84.432,3.0839A2.5172,2.5172,0,0,0,81.916.568H3.084A2.5172,2.5172,0,0,0,.56805,3.0839V81.9161A2.5172,2.5172,0,0,0,3.084,84.432H81.916A2.5172,2.5172,0,0,0,84.432,81.9161Z"></path><g clip-path="url(#a)"><path fill="#1b72be" fill-rule="evenodd" d="M84.432,3.0839A2.5172,2.5172,0,0,0,81.916.568H3.084A2.5172,2.5172,0,0,0,.56805,3.0839V81.9161A2.5172,2.5172,0,0,0,3.084,84.432H81.916A2.5172,2.5172,0,0,0,84.432,81.9161Z"></path><path fill="#0568aa" fill-rule="evenodd" d="M84.432,3.0839A2.5172,2.5172,0,0,0,81.916.568H34.95225L.56805,60.12326V81.9161A2.5172,2.5172,0,0,0,3.084,84.432H81.916A2.5172,2.5172,0,0,0,84.432,81.9161Z"></path><path fill="#074f7f" fill-rule="evenodd" d="M39.34261,84.432H33.49383L18.3867,54.06007,47.82623.568h4.73744L21.74378,53.94986,39.34242,84.432Zm15.8435,0H40.60057L23.41389,54.66377H84.43777L84.432,60.22184ZM40.68908.568H35.79089L.568,61.57568v8.48421Zm8.50841,52.99859h-16.588a5.39927,5.39927,0,0,1-4.7049-8.10886L36.21021,31.072Zm35.23446,0H50.45545L36.83909,29.98237,53.82163.568l6.15325.00387L51.03746,30.976l4.14865,8.522L84.432,50.99874Z"></path><path fill="url(#b)" fill-rule="evenodd" d="M84.4317,84.43126H41.85839L25.30115,55.753H84.4317Zm-46.34717,0H.5681V63.75443L37.04876.56752H51.30558L20.4857,53.94958ZM47.314,52.48277H32.89941a4.4901,4.4901,0,0,1-3.90056-6.74186c3.202-5.54614,7.21128-12.49029,7.21128-12.49029Zm37.11775,0H51.08945L38.09706,29.98207,55.07944.56751H84.4317Z"></path><path fill="url(#c)" fill-rule="evenodd" d="M86.3776,85.97341H42.74888L25.30115,55.753H86.34731ZM20.48571,53.94958,38.975,85.97341H-2.0057L-2.143,68.44966,38.0616-1.18673H52.31842Zm6.55856,2.80993L43.32994,84.9677H85.37025l-.02784-28.20819ZM38.64259-.1802l-39.77706,68.896L-1.0072,84.9677H37.232L19.32366,53.94958,50.5753-.1802Zm8.67136,52.663H32.86173l-.01884-.00082H32.8053l-.01884-.00082h-.01875l-.01876-.00082-.01875-.00082-.01876-.00082-.01875-.00082-.01867-.00082-.01876-.00082-.01867-.00082-.01867-.00163-.01868-.00082-.01859-.00164L32.562,52.4705l-.01859-.00164-.01859-.00164-.01859-.00164-.01859-.00164-.01851-.00164-.01859-.00164L32.432,52.459l-.01851-.00246-.01851-.00164-.01843-.00246-.01851-.00164-.01842-.00246-.01843-.00246-.01835-.00246-.01842-.00246-.01835-.00246-.01834-.00245-.01835-.00246-.01834-.00328-.01827-.00246-.01826-.00328-.01826-.00246-.01826-.00328-.01827-.00328-.01818-.00328-.01818-.00328-.0181-.00328-.01818-.00328-.0181-.00327-.0181-.0041-.0181-.00328-.018-.0041-.0181-.00328-.018-.0041-.01794-.0041-.018-.0041-.01793-.00328-.01794-.00492-.01793-.00409-.01785-.0041-.01786-.0041-.01785-.00492-.01777-.0041-.01778-.0041-.01777-.00492-.01777-.00492-.01769-.00491-.01769-.00492-.01769-.00492-.01769-.00492-.01761-.00492-.01761-.00492-.01752-.00492-.01753-.00574-.01752-.00491-.01753-.00574-.01744-.00574-.01745-.00492-.01744-.00574-.01737-.00574L31.46111,52.25l-.01736-.00573-.01728-.00656-.01728-.00574-.01728-.00574-.0172-.00574-.0172-.00656-.0172-.00655-.01712-.00574-.01711-.00656-.017-.00656-.01712-.00656-.017-.00656-.017-.00655-.01695-.00656-.017-.00656-.01687-.00738-.01687-.00656-.01687-.00737-.01679-.00656-.01679-.00738-.01679-.00738-.0167-.00738-.01671-.00655-.01663-.0082-.01662-.00738-.01663-.00738-.01654-.00738-.01655-.00737-.01646-.0082-.01646-.00738-.01646-.0082-.01638-.00738-.01638-.00819-.0163-.0082-.01629-.0082-.0163-.0082-.01622-.0082-.01621-.00819-.01614-.0082-.01613-.0082-.01613-.009-.01606-.00819-.016-.009-.016-.0082-.016-.009-.01589-.009-.01589-.009-.01588-.009-.01581-.0082-.01572-.009-.01573-.00983-.01572-.009-.01564-.009-.01556-.00984-.01565-.009-.01548-.009-.01556-.00984-.01547-.00984-.0154-.00983-.0154-.009-.01531-.00984-.01532-.00984-.01523-.00983-.01523-.00984-.01524-.01064-.01515-.00983-.01507-.00984-.01507-.01064-.01506-.00984-.015-.01063-.01491-.01064-.01491-.00984-.0149-.01064-.01482-.01063-.01475-.01064-.01474-.01064-.01474-.01063-.01458-.01064-.01466-.01146-.01457-.01064-.0145-.01063-.0145-.01146-.01441-.01064-.01441-.01145-.01433-.01146-.01434-.01146-.01425-.01063-.01425-.01146-.01417-.01146-.01408-.01228-.01409-.01145-.01409-.01146-.01392-.01146-.014-.01227-.01384-.01146-.01393-.01146-.01376-.01227-.01376-.01228-.01375-.01146-.01368-.01227-.01359-.01228-.0136-.01228-.01351-.01227-.01343-.01228-.01343-.01228-.01344-.01227-.01335-.0131-.01326-.01228-.01319-.01309-.01326-.01228-.01311-.0131-.0131-.01227-.013-.0131-.013-.0131-.01293-.01309-.01286-.0131-.01286-.0131L29.657,51.1164l-.01278-.0131-.01269-.0131-.01261-.01309-.01261-.01392-.01253-.0131-.01245-.01309-.01245-.01392-.01237-.01391-.01237-.0131-.0122-.01392-.01228-.01391-.01212-.01392-.01213-.01392-.01212-.01391-.012-.01392-.012-.01392-.012-.01391-.01179-.01392-.0118-.01473-.01179-.01392-.01163-.01474-.01163-.01391-.01163-.01474-.01147-.01473-.01146-.01392-.01147-.01474-.0113-.01473-.0113-.01474-.01122-.01474-.01122-.01473-.01114-.01474-.01106-.01473-.011-.01474-.011-.01556-.01089-.01473-.01089-.01556-.01073-.01473-.01073-.01556-.01073-.01556-.01056-.01473-.01057-.01556L29.168,50.5147l-.0104-.01556-.01041-.01555-.01031-.01556-.01024-.01556-.01024-.01555-.01007-.01556-.01007-.01637-.01008-.01556-.00991-.01556-.00991-.01637-.00982-.01556-.00975-.01637-.00974-.01638-.00967-.01555-.00958-.01638-.0095-.01638-.00942-.01637-.00942-.01638-.00933-.01637-.00926-.01638-.00917-.01637-.00909-.01638-.009-.01637-.00893-.01638-.00892-.01638-.00877-.01719-.00876-.01638-.0086-.01637-.0086-.0172L28.88246,50.03l-.00843-.01638-.00835-.01719L28.8574,49.98l-.00827-.0172-.00811-.01637-.008-.0172-.008-.01719L28.817,49.8957l-.00778-.01719-.00778-.0172-.0077-.01637-.00762-.0172-.00761-.0172-.00745-.01637-.00737-.0172-.00738-.01719-.0072-.0172-.00721-.01719-.00713-.0172-.007-.01719-.007-.0172-.00688-.01719-.0068-.0172-.00672-.0172-.00671-.01719-.00655-.0172-.00655-.01719-.00647-.018-.00631-.01719-.0063-.0172-.00623-.01719-.00614-.0172-.00614-.018-.006-.0172-.0059-.01719-.0059-.018-.00573-.01719-.00573-.018-.00565-.0172-.00557-.01719-.00549-.018-.0054-.01719-.00533-.018-.00524-.018-.00524-.0172-.00508-.018-.00508-.0172-.005-.018-.00483-.0172-.00484-.018-.00475-.018-.00467-.01719-.00466-.018-.00451-.018-.00442-.018-.00442-.0172-.00434-.018-.00418-.018-.00417-.018-.0041-.0172-.004-.018-.00393-.018-.00385-.018-.00385-.018-.00369-.018-.00368-.018-.00353-.018-.00352-.018-.00344-.018-.00335-.0172-.00328-.018-.00319-.018-.00312-.018-.003-.01884-.003-.01719-.00287-.01884-.00287-.018-.00278-.018-.0027-.018-.00254-.018-.00262-.018-.00246-.018-.00238-.018-.00229-.018-.00229-.018-.00213-.018-.00213-.01884-.00205-.018-.00189-.018-.00188-.018-.0018-.018-.00172-.018-.00172-.01884-.00156-.018-.00147-.018-.00148-.018-.00139-.018-.00123-.01883-.00123-.018-.00115-.018-.00106-.018-.001-.018-.001-.01884-.00082-.018-.00074-.018-.00074-.018-.00065-.01884-.0005-.018-.00049-.018-.00041-.018-.00033-.01883-.00024-.018-.00025-.018-.00008-.018v-.03685l.00008-.018.00025-.018.00024-.01883.00033-.018.00041-.018.00049-.018.0005-.01883.00065-.018.00074-.018.00074-.018.00082-.01883.001-.018.001-.018.00106-.018.00115-.01883.00123-.018.00123-.018.00139-.018.00148-.018.00147-.018.00156-.01883.00172-.018.00172-.018.0018-.018.00188-.018.00189-.01883.00205-.018.00213-.018.00213-.018.00229-.018.00229-.018.00238-.018.00246-.018.00262-.01883.00254-.018.0027-.018.00278-.018.00287-.018.00287-.018.003-.018.003-.018.00312-.018.00319-.018.00328-.018.00335-.018.00344-.018.00352-.018.00353-.018.00368-.0172.00369-.018.00385-.018.00385-.018.00393-.018.004-.018.0041-.018.00417-.0172.00418-.018.00434-.018.00442-.018.00442-.0172.00451-.018.00466-.018.00467-.018.00475-.0172.00484-.018.00483-.018.005-.01719.00508-.018.00508-.01719.00524-.018.00524-.0172.00533-.018.0054-.0172.00549-.018.00557-.0172.00565-.018.00573-.0172.00573-.018.0059-.0172.0059-.01719.006-.0172.00614-.018.00614-.0172.00623-.01719.0063-.0172.00631-.018.00647-.01719.00655-.0172.00655-.01719.00671-.0172.00672-.01719.0068-.0172.00688-.01719.007-.0172.007-.01719.00713-.0172.00721-.0172.0072-.01719.00738-.0172.00737-.01719.00745-.0172.00761-.01637.00762-.0172.0077-.01719.00778-.01638.00778-.01719.00794-.0172.008-.01638.008-.01719.00811-.0172.00827-.01637.00828-.01638.00835-.01719.00843-.01638L28.891,45.939l.0086-.01638.0086-.01638.00876-.01637.00877-.0172.00892-.01637.00893-.01638.009-.01637.00909-.01638.00917-.01637.00926-.0172.00933-.01556.00942-.01637,7.21129-12.49029Zm39.01287,0h-35.239L38.09706,29.98209,56.09227-1.18672h29.8701ZM29.871,46.243l-.00794.01392-.00729.01228-.007.01227-.0072.0131-.007.0131-.00721.01309-.00688.01228-.00688.0131-.00688.01309L29.8,46.37148l-.00672.0131-.00671.01309-.00672.0131-.00639.01228-.00655.01309-.00655.01392-.00622.01228-.00631.01309-.0063.0131-.00615.0131-.00622.01309-.00614.0131-.00606.01392-.0059.01227-.00581.0131-.006.01391-.00582.0131-.00573.0131-.00565.01309-.00565.0131-.00557.01392-.00557.01309-.00549.0131-.00532.0131-.00541.01391-.00532.0131-.00516.0131-.00516.01391-.00516.0131-.00508.01392-.005.01309-.00492.0131-.00483.01391-.00491.01392-.00475.0131-.00467.01309-.00475.01392-.00459.01392-.0045.01309-.00451.01392-.00442.0131-.00434.01391-.00434.01392-.00426.01309-.00426.01392-.00409.01392-.00409.01309-.0041.01392-.00393.01392-.00385.01309-.00393.01474-.00377.0131-.00376.01391-.00369.01392-.0036.01391-.00361.01392-.00352.0131-.00344.01391-.00344.01392-.00335.01392-.0032.01391-.00327.01392-.0032.01392-.00311.01391-.00311.01392-.003.01391-.00295.01392-.00287.01392-.00286.01391-.00279.01392L29.465,47.33l-.0027.01391-.00262.01392-.00254.01391-.00246.01392-.00246.01392-.00237.01391-.00238.01392-.00221.01474-.00221.01309-.00213.01474-.00213.01391-.002.01392-.00205.01392-.00188.01391-.00189.01392-.0018.01392-.00172.01473-.00172.01392-.00156.01391-.00163.01392-.00148.01474-.00147.01391-.0014.01392-.00139.01392-.00123.01473-.00123.01392-.00123.01391-.00106.01392-.00107.01392-.001.01473-.001.01392-.0009.01392-.00082.01473-.00074.01392-.00073.01391-.00066.01392-.00057.01474-.00057.01391-.0005.01392-.00041.01392-.00041.01473-.00032.01392-.00025.01391-.00016.01392-.00017.01474-.00008.01391v.02868l.00008.01391.00033.02785.00024.01474.00033.01392.00041.01391.00041.01474.00049.01392.00058.01391.00057.01474.00065.01391.00148.02786.00082.01473.0009.01392.002.02785.00107.01474.00106.01391.00246.02786.00123.01473.00278.02785.00295.02786.00156.01473.00164.01392.00343.02785.00181.01392.00376.02785.00205.01474.002.01391.00426.02786.00442.02785.00238.01473.00237.01392.00492.02785.00254.01392.00524.02785.00278.01392.0027.01392.00574.02785.00295.01391.00606.02786.00311.01391.00639.02786.00327.01391.00336.0131.00344.01473.00352.0131.00344.01392.00721.02785.00368.01392.00377.01391.00377.0131.00385.01392.004.01391.00393.01392.00811.027.00409.01392.00418.01309.00868.02786.00434.01309.00442.01392.00451.01392.0045.01309.00459.01392.00467.01309.00475.01392.00475.0131.00483.01391.00483.0131.005.01392.005.01309.00508.01392.01032.02621.00524.01392.00524.0131.00533.01309.00548.01392.00541.01309.01671.03931.00573.01392.00573.0131.00582.01309.006.0131.00581.0131.006.01391.01212.02622.00615.01227.00622.0131.00631.01392.00622.01227.00647.0131.00639.01309.00647.0131.00655.0131.00663.01309.00664.01228.02039.03931.00688.0131.00688.01227.007.0131.00721.0131.00713.01227.007.0131.00729.01228.00721.01309.00745.01228.00753.0131.00738.01227.00728.01228.00754.01228.0077.01309.00761.01228.00754.01228.00778.01227.00786.01228.00778.01228.00786.01227.008.01228.00778.01146.016.02457.008.01146.00835.01227.008.01228.00811.01146.00835.01227.01671.02294.00852.01228.00827.01145.017.02294.00843.01145.0086.01146.00893.01228.00852.01063.0086.01146.018.02293.00868.01064.00868.01146.009.01146.00933.01145.00893.01064.00885.01064.00925.01145.00926.01064.00925.01146.00909.01064.00942.01063.00917.01064.00942.01064.00958.01145.00926.00984.00958.01064.00942.01064.00974.01063.00967.01064.00958.01064.00958.00983.00983.01064.00991.01064.00966.00984.00975.00983.01.01064.01015.01064.01966.01965.01024.00984.01.00984.01007.00983.01024.00984.0104.01064.01015.009.01016.00983.01056.00984.01024.00984.01024.009.0104.00983.01073.00984.01065.00984.01007.009.01056.009.01081.00984.011.009.01056.00984.01057.009.01081.009.01065.009.01113.009.01073.009.01081.009.011.009.01089.009.011.0082.0113.009.01106.009.01065.0082.01147.009.01154.009.01089.0082.01122.0082.01155.009.011.00819.0113.0082.01171.009.01147.0082.01138.0082.01147.00819.01122.00738.01154.0082.01188.0082.01163.00819.02342.01638.0113.00738.0118.00738.0122.00819.01138.00738.01188.0082.01236.00738.0231.01473.01237.0082.01212.00738.01171.00738.012.00656.04881.02949.01237.00738.01187.00655.012.00656.01278.00738.01245.00738.012.00656.01253.00656.012.00655.01261.00656.01253.00738.01261.00656.0127.00656.01228.00574.01228.00655.02556.0131.01236.00574.02572.01309.01245.00574.013.00656.01294.00574.01253.00574.01261.00574.013.00656.01319.00573.01269.00574.01311.00574.01269.00574.01286.00492.01327.00574.01318.00573L31.54,51.205l.01286.00492.02687.01146.01293.00492.013.00492.01293.00491.01352.00574.02621.00984.01367.00492.01311.00492.01367.00492.01319.00492.01319.00409.01384.00492.01326.00492.01327.0041.01392.00492.01335.0041.01335.00492.02686.00819.01352.0041.014.00492.027.0082.01408.0041.01311.00328.01359.0041.01417.0041.01368.0041.01367.00327.01425.0041.01376.00328.01327.0041.01384.00328.01433.00328.01384.0041.01327.00328.01392.00328.0145.00328.01392.00327.01393.00246.014.00328.01343.00328.01458.00328.01409.00246.01351.00328.01466.00246.01409.00328.01359.00246.01417.00246.01425.00246.01417.00246.01474.00246.02752.00491.01482.00246.01425.00246.01384.00164.01442.00246.01433.00246.01441.00164.01441.00246.01393.00164.01441.00164.029.00328.0145.00246.014.00164.014.00082.01458.00164.01523.00164.014.00164.01409.00082.01523.00163.01417.00082.01409.00164.01531.00082.01417.00082.01417.00164.01483.00082.01474.00082.01482.00082.01425.00082.01433.00082h.01483l.0149.00082.01433.00082h.01433l.015.00082h.02932l.01442.00082h12.716L36.21014,35.26212ZM56.67326-.1802,39.25912,29.98209,51.66888,51.47626H85.31374L84.96322-.1802Z"></path></g></svg>