<svg xmlns="http://www.w3.org/2000/svg" viewBox="0 0 24 24" id="bitdefender"><path fill="#F44336" d="M13.255 24c4.618 0 9.245-1.629 9.245-6.849 0-3.082-2.213-5.458-5.279-5.797v-.067c2.519-.745 4.244-2.54 4.244-5.253 0-4.372-3.797-6.032-7.48-6.032L1.501 0H1.5v.357l1.254 1.046c1.503 1.204 1.7 1.439 1.7 2.526V24h8.801zm-.864-20.336c2.426 0 3.177.327 3.913 1.013.558.521.813 1.237.815 2.07 0 .775-.272 1.466-.846 2.004-.717.676-1.704 1.011-3.504 1.011H8.805V3.664h3.586zm-3.588 9.758h4.173c3.518 0 5.176.881 5.176 3.39 0 3.153-3.11 3.526-5.35 3.526H8.803v-6.916z"></path></svg>