<svg xmlns="http://www.w3.org/2000/svg" width="148.474" height="47.271" viewBox="0 0 148.474 47.271" id="microsoft-office"><g><path fill="#eb3c00" d="M.5,38.634V9.9L25.917.5l13.816,4.42V43.608L25.917,47.773.5,38.634l25.421,3.059V8.24L9.338,12.108V34.767L.5,38.634Zm66.312.2a12.389,12.389,0,0,1-9.614-3.957,14.666,14.666,0,0,1-3.611-10.293q0-6.809,3.68-10.863T67.28,9.668A12.112,12.112,0,0,1,76.7,13.6,14.727,14.727,0,0,1,80.269,23.9q0,6.907-3.661,10.923a12.608,12.608,0,0,1-9.8,4.015Zm.236-26.176a9.1,9.1,0,0,0-7.222,3.208,12.417,12.417,0,0,0-2.776,8.423,12.511,12.511,0,0,0,2.706,8.394,8.824,8.824,0,0,0,7.055,3.178,9.266,9.266,0,0,0,7.321-3.031Q76.8,29.8,76.805,24.351q0-5.59-2.6-8.64a8.9,8.9,0,0,0-7.163-3.052ZM92.03,8.092A6.168,6.168,0,0,0,87.471,9.94a6.787,6.787,0,0,0-1.831,5.008v3.265H82.2v2.763H85.64v17.39h3.213V20.976h7.857v17.39h3.213V20.976h4.715V18.213H99.922V15.1q0-4.27,3.385-4.265a4.281,4.281,0,0,1,2.141.518v-2.9a6.889,6.889,0,0,0-6.907,1.485,6.786,6.786,0,0,0-1.831,5.008v3.265H88.853V15.106q0-4.271,3.384-4.266a4.285,4.285,0,0,1,2.141.518v-2.9a6.3,6.3,0,0,0-2.349-.365Zm17.3,5a2.047,2.047,0,0,1-1.477-.591,1.993,1.993,0,0,1-.61-1.5A2.068,2.068,0,0,1,109.33,8.9a2.081,2.081,0,0,1,1.506.6,2.1,2.1,0,0,1,0,2.981A2.07,2.07,0,0,1,109.33,13.091ZM110.9,38.36h-3.228V18.207H110.9V38.36Zm18.336-.924a10.491,10.491,0,0,1-5.51,1.4,9.117,9.117,0,0,1-6.956-2.805,10.167,10.167,0,0,1-2.649-7.272,11.17,11.17,0,0,1,2.854-8,9.983,9.983,0,0,1,7.617-3.021,10.6,10.6,0,0,1,4.683.985v3.305a8.209,8.209,0,0,0-4.8-1.574,6.493,6.493,0,0,0-5.069,2.214,8.4,8.4,0,0,0-1.977,5.815,8,8,0,0,0,1.859,5.59,6.413,6.413,0,0,0,4.99,2.046,8.094,8.094,0,0,0,4.959-1.751v3.07Zm19.729-8.344H134.742a7.542,7.542,0,0,0,1.809,5.2,6.25,6.25,0,0,0,4.764,1.829,9.9,9.9,0,0,0,6.258-2.244V36.9a11.7,11.7,0,0,1-7.025,1.929,8.513,8.513,0,0,1-6.711-2.746Q131.4,33.34,131.4,28.362a11.024,11.024,0,0,1,2.666-7.666,8.55,8.55,0,0,1,6.622-2.961,7.576,7.576,0,0,1,6.12,2.558,10.668,10.668,0,0,1,2.164,7.1v1.694Zm-3.305-2.736a6.564,6.564,0,0,0-1.349-4.349,4.592,4.592,0,0,0-3.69-1.555,5.216,5.216,0,0,0-3.878,1.634,7.41,7.41,0,0,0-1.967,4.27h10.882Z" transform="translate(-.496 -.502)"></path></g></svg>