<svg xmlns="http://www.w3.org/2000/svg" viewBox="0 0 64 64" id="microsoft-365"><defs><linearGradient id="a" x1="55.66" x2="21.49" y1="25.07" y2="16.81" gradientUnits="userSpaceOnUse"><stop offset="0" stop-color="#4ddbf4"></stop><stop offset="1" stop-color="#2b3a7a"></stop></linearGradient><linearGradient id="b" x1="15.02" x2="29.24" y1="20.27" y2="51.11" gradientUnits="userSpaceOnUse"><stop offset="0" stop-color="#9f7ad8"></stop><stop offset=".92" stop-color="#0a467c"></stop></linearGradient><linearGradient id="c" x1="30.33" x2="46.61" y1="52.69" y2="29.41" gradientUnits="userSpaceOnUse"><stop offset="0" stop-color="#ca95f3"></stop><stop offset="1" stop-color="#4c3675"></stop></linearGradient></defs><path fill="url(#a)" d="m21.55,27.53c.3-.33.61-.64.93-.93,0,0,0,0,0,0,1.88-1.78,4.17-3.02,6.64-3.63.55-.15,1.11-.24,1.66-.32,2.02-.27,4.08.21,5.87,1.24l16.17,9.28c2.98,1.71,4.65,4.78,4.69,7.97v-5.27s.01-13.14.01-13.14c0-3.43-1.82-6.57-4.78-8.27l-16-9.19c-2.96-1.7-6.59-1.7-9.55.04l-5.59,3.26-.04,17.49h0s0,1.46,0,1.46Z"></path><path fill="url(#b)" d="m33.34,43.23c-.44-.1-.86-.21-1.27-.34,0,0,0,0,0,0-2.48-.74-4.69-2.12-6.45-3.95-.4-.4-.76-.84-1.11-1.28-1.24-1.62-1.85-3.64-1.85-5.71V13.31c0-3.43,1.83-6.41,4.58-8.03l-4.58,2.61-11.39,6.54c-2.98,1.7-4.79,4.85-4.79,8.26v18.45c0,3.42,1.81,6.56,4.79,8.26l5.61,3.22,15.19-8.68h0s1.27-.73,1.27-.73Z"></path><path fill="url(#c)" d="m57.5,41.14c-.04-3.19-1.71-6.26-4.69-7.97l-11.32-6.5c.55,2.46.46,4.99-.23,7.36-.15.55-.35,1.08-.55,1.6-.78,1.88-2.23,3.42-4.02,4.45l-16.15,9.32c-2.97,1.72-6.47,1.62-9.25.05l4.55,2.66,11.36,6.59c2.96,1.73,6.59,1.73,9.55.02l15.98-9.22c2.96-1.71,4.78-4.85,4.76-8.28v-.08Z"></path></svg>