<svg xmlns="http://www.w3.org/2000/svg" viewBox="0 0 128 128" id="sketch"><path fill="#fdb300" d="M29.62,12.85,64,9.24l34.38,3.61L125,48.29,64,118.76,3,48.29Z"></path><polygon fill="#ea6c00" points="27.71 48.29 64 118.76 3 48.29 27.71 48.29"></polygon><polygon fill="#ea6c00" points="100.29 48.29 64 118.76 125 48.29 100.29 48.29"></polygon><polygon fill="#fdad00" points="27.71 48.29 100.29 48.29 64 118.76 27.71 48.29"></polygon><polygon fill="#fdd231" points="64 9.24 29.62 12.85 27.71 48.29 64 9.24"></polygon><polygon fill="#fdd231" points="64 9.24 98.38 12.85 100.29 48.29 64 9.24"></polygon><polygon fill="#fdad00" points="125 48.29 98.38 12.85 100.29 48.29 125 48.29"></polygon><polygon fill="#feeeb7" points="64 9.24 27.71 48.29 100.29 48.29 64 9.24"></polygon><polygon fill="#fdad00" points="3 48.29 29.62 12.85 27.71 48.29 3 48.29"></polygon></svg>