<svg xmlns="http://www.w3.org/2000/svg" height="800" width="1200" version="1.0" viewBox="-11.483955 -20.199775 99.52761 121.19865"><path d="M41.1755.0006c-.3128-.007-.4143.046-.4562.1594v35.911l35.4266-.1282c.3495-.4253.4466-3.6435.4046-14.6875l-.0421-11.2719-.9079-.028c-10.597-.3545-16.372-1.8561-22.789-5.9391-2.139-1.361-2.5718-1.5885-4.1516-2.2407C46.8425 1.0384 44.8718.5 42.9005.2022c-.8877-.1276-1.4121-.1945-1.725-.2016zm-5.839.0313c-.2656 0-1.1454.0988-1.9563.2406-3.6489.6238-6.2216 1.6444-9.3672 3.686-3.2993 2.1407-5.4808 3.1762-8.878 4.1828-3.2855.9782-8.807 1.7006-13.7 1.814l-1.3985.0281-.0281 11.3422c-.028 8.1377.0132 11.8245.139 13.0438l.1688 1.7015h35.5093V.06zm39.8437 40.7875c0 .3402-34.4328.1-34.4328.1l.0969 39.8797c.1817 0 .727-.2968 2.3906-1.275.3076-.1843 1.9302-1.2488 3.6078-2.3688 5.732-3.842 9.8417-7.2292 14.0078-11.539 4.8233-5.0046 8.0397-9.3865 10.8079-14.7313 1.7894-3.4734 3.5218-8.2364 3.5218-9.725zm-39.3547.0718l-34.3906.0704c-.1118.1984.14 1.5029.5594 2.878 1.454 4.6927 4.2769 10.1368 7.5203 14.4891 3.7048 4.9479 8.7518 10.0367 14.6375 14.772 3.7188 2.9771 10.639 7.5562 11.436 7.5562z" fill="#0177d7"/></svg>