<?xml version="1.0" encoding="UTF-8" standalone="no"?>
<!DOCTYPE svg PUBLIC "-//W3C//DTD SVG 1.1//EN" "http://www.w3.org/Graphics/SVG/1.1/DTD/svg11.dtd">
<svg width="100%" height="100%" viewBox="0 0 252 46" version="1.1" xmlns="http://www.w3.org/2000/svg" xmlns:xlink="http://www.w3.org/1999/xlink" xml:space="preserve" xmlns:serif="http://www.serif.com/" style="fill-rule:evenodd;clip-rule:evenodd;stroke-linejoin:round;stroke-miterlimit:1.41421;">
    <g transform="matrix(1,0,0,1,-36.0095,-272.823)">
        <g transform="matrix(1,0,0,1,-54,-49.12)">
            <path d="M149.85,345.66C149.628,344.957 149.125,344.378 148.46,344.06C147.531,343.595 146.498,343.374 145.46,343.42C144.606,343.406 143.756,343.545 142.95,343.83C142.265,344.068 141.643,344.457 141.13,344.97C140.702,345.386 140.382,345.901 140.2,346.47C140.003,347.24 139.856,348.021 139.76,348.81L139.19,353.02C139.013,354.073 139.013,355.147 139.19,356.2C139.376,356.93 139.884,357.538 140.57,357.85C141.507,358.289 142.536,358.495 143.57,358.45C144.652,358.478 145.724,358.237 146.69,357.75C147.444,357.398 148.075,356.826 148.5,356.11C148.927,355.1 149.197,354.031 149.3,352.94L149.38,352.37L145.12,352.37L144.87,354.18C144.834,354.7 144.712,355.21 144.51,355.69C144.368,355.912 144.112,356.036 143.85,356.01C143.53,356.01 143.33,355.9 143.27,355.69C143.192,355.237 143.192,354.773 143.27,354.32L144.19,347.61C144.229,347.119 144.344,346.636 144.53,346.18C144.685,345.951 144.956,345.827 145.23,345.86C145.54,345.86 145.73,345.95 145.79,346.13C145.87,346.58 145.87,347.04 145.79,347.49L145.44,350L149.7,350L149.89,348.63C150.054,347.646 150.041,346.64 149.85,345.66Z" style="fill:white;fill-rule:nonzero;"/>
        </g>
        <g transform="matrix(1,0,0,1,-54,-49.12)">
            <path d="M161.65,356.89C165.23,359.22 167.11,361.27 166.65,362.71C166.14,364.32 162.8,364.89 157.65,364.53C159.781,360.393 160.893,355.806 160.893,351.153C160.893,335.129 147.707,321.943 131.683,321.943C117.247,321.943 104.867,332.645 102.78,346.93C99.04,344.53 97.06,342.42 97.52,340.93C97.98,339.44 100.69,338.93 104.96,339.03C96.35,337.62 90.65,337.7 90.06,339.58C89.25,342.17 98.26,347.46 111.99,352.93C111.877,353.712 111.807,354.5 111.78,355.29C111.778,355.882 111.964,356.46 112.31,356.94C112.693,357.466 113.227,357.863 113.84,358.08C114.581,358.344 115.363,358.473 116.15,358.46C116.994,358.472 117.833,358.336 118.63,358.06C119.314,357.822 119.934,357.428 120.44,356.91C120.623,356.716 120.787,356.505 120.93,356.28L123.26,357.09L123.26,358.15L126.43,358.15L129.76,359.22C152.82,366.48 172.43,369.45 173.55,365.86C174.14,364 169.52,360.66 161.65,356.89ZM117.07,355.69C116.956,355.917 116.713,356.053 116.46,356.03C116.18,356.03 116.01,355.93 115.96,355.74C115.92,355.222 115.95,354.7 116.05,354.19L116.98,347.44C116.994,346.971 117.117,346.512 117.34,346.1C117.478,345.949 117.675,345.865 117.88,345.87C118.15,345.87 118.31,345.96 118.37,346.15C118.44,346.577 118.44,347.013 118.37,347.44L117.46,354.08C117.399,354.63 117.272,355.171 117.08,355.69L117.07,355.69ZM128.53,358.12C129.67,354.307 130.41,351.793 130.75,350.58C130.75,353.41 130.83,355.94 131,358.16L136.3,358.16L140.18,343.74L136.04,343.74C135.033,347.073 134.17,350.493 133.45,354L133.72,348.51C133.85,345.75 133.92,344.17 133.92,343.75L129.51,343.75C128.323,347.83 127.477,351.133 126.97,353.66L127.21,348.79L127.45,343.79L123.32,343.79L123.26,356.38L121.26,355.66C121.306,355.549 121.346,355.435 121.38,355.32C121.615,354.304 121.795,353.276 121.92,352.24L122.26,349.78C122.425,348.747 122.529,347.705 122.57,346.66C122.57,346.071 122.385,345.497 122.04,345.02C121.657,344.494 121.124,344.096 120.51,343.88C119.769,343.617 118.986,343.488 118.2,343.5C117.356,343.487 116.517,343.623 115.72,343.9C115.035,344.137 114.415,344.531 113.91,345.05C113.438,345.503 113.093,346.072 112.91,346.7C112.675,347.716 112.494,348.744 112.37,349.78L112.07,351.92C110.803,351.347 109.603,350.777 108.47,350.21C108.987,337.87 119.279,328 131.63,328C144.346,328 154.81,338.464 154.81,351.18C154.81,355.667 153.507,360.059 151.06,363.82C143.925,362.567 136.888,360.812 130,358.57L128.53,358.12Z" style="fill:white;fill-rule:nonzero;"/>
        </g>
        <g transform="matrix(1,0,0,1,-54,-49.12)">
            <path d="M200.21,339.45C200.229,340.355 200.048,341.253 199.68,342.08C199.357,342.8 198.828,343.41 198.16,343.83C196.762,344.646 195.028,344.646 193.63,343.83C192.956,343.415 192.42,342.81 192.09,342.09C191.715,341.275 191.527,340.387 191.54,339.49L191.54,339C191.52,338.087 191.704,337.182 192.08,336.35C192.405,335.628 192.938,335.019 193.61,334.6C195.005,333.787 196.735,333.787 198.13,334.6C198.802,335.019 199.335,335.628 199.66,336.35C200.035,337.179 200.219,338.081 200.2,338.99L200.21,339.45ZM198.09,338.99C198.145,338.142 197.947,337.296 197.52,336.56C197.145,336.033 196.537,335.719 195.89,335.719C195.243,335.719 194.635,336.033 194.26,336.56C193.83,337.287 193.628,338.127 193.68,338.97L193.68,339.47C193.63,340.315 193.828,341.156 194.25,341.89C194.624,342.421 195.235,342.738 195.885,342.738C196.535,342.738 197.146,342.421 197.52,341.89C197.943,341.157 198.141,340.315 198.09,339.47L198.09,338.99Z" style="fill:white;fill-rule:nonzero;"/>
        </g>
        <g transform="matrix(1,0,0,1,-54,-49.12)">
            <path d="M204,334.88L204,336.74L205.29,336.74L205.29,338.22L204,338.22L204,342C203.98,342.213 204.037,342.425 204.16,342.6C204.333,342.743 204.557,342.808 204.78,342.78C204.976,342.798 205.174,342.798 205.37,342.78L205.37,344.31C204.975,344.43 204.563,344.491 204.15,344.49C204.07,344.5 203.99,344.505 203.91,344.505C202.852,344.505 201.98,343.634 201.98,342.575C201.98,342.483 201.987,342.391 202,342.3L202,338.22L200.9,338.22L200.9,336.74L202,336.74L202,334.88L204,334.88Z" style="fill:white;fill-rule:nonzero;"/>
        </g>
        <g transform="matrix(1,0,0,1,-54,-49.12)">
            <path d="M208.41,337.57C208.884,336.943 209.624,336.573 210.41,336.57C212.05,336.57 212.883,337.523 212.91,339.43L212.91,344.27L210.91,344.27L210.91,339.48C210.947,339.123 210.847,338.765 210.63,338.48C210.378,338.249 210.04,338.136 209.7,338.17C209.174,338.134 208.672,338.403 208.41,338.86L208.41,344.24L206.41,344.24L206.41,333.57L208.41,333.57L208.41,337.57Z" style="fill:white;fill-rule:nonzero;"/>
        </g>
        <g transform="matrix(1,0,0,1,-54,-49.12)">
            <path d="M217.93,344.45C216.929,344.496 215.951,344.135 215.22,343.45C214.524,342.722 214.161,341.736 214.22,340.73L214.22,340.53C214.213,339.839 214.364,339.155 214.66,338.53C214.932,337.957 215.367,337.477 215.91,337.15C216.466,336.82 217.103,336.65 217.75,336.66C218.67,336.619 219.563,336.985 220.19,337.66C220.826,338.441 221.144,339.435 221.08,340.44L221.08,341.27L216.26,341.27C216.304,341.725 216.514,342.149 216.85,342.46C217.193,342.765 217.641,342.926 218.1,342.91C218.812,342.943 219.496,342.625 219.93,342.06L220.93,343.17C220.617,343.608 220.192,343.953 219.7,344.17C219.139,344.396 218.534,344.492 217.93,344.45ZM217.7,338.24C217.322,338.22 216.955,338.37 216.7,338.65C216.424,338.982 216.257,339.39 216.22,339.82L219.03,339.82L219.03,339.66C219.036,339.294 218.908,338.938 218.67,338.66C218.423,338.385 218.07,338.229 217.7,338.23L217.7,338.24Z" style="fill:white;fill-rule:nonzero;"/>
        </g>
        <g transform="matrix(1,0,0,1,-54,-49.12)">
            <path d="M226.44,338.64C226.198,338.604 225.954,338.584 225.71,338.58C225.097,338.501 224.497,338.813 224.21,339.36L224.21,344.31L222.21,344.31L222.21,336.75L224.12,336.75L224.18,337.65C224.507,337.028 225.158,336.641 225.86,336.65C226.073,336.648 226.286,336.678 226.49,336.74L226.44,338.64Z" style="fill:white;fill-rule:nonzero;"/>
        </g>
        <g transform="matrix(1,0,0,1,-54,-49.12)">
            <path d="M239,341.37L240.37,334.13L242.46,334.13L240.2,344.31L238.09,344.31L236.43,337.5L234.77,344.31L232.7,344.31L230.44,334.13L232.53,334.13L233.91,341.36L235.59,334.13L237.37,334.13L239,341.37Z" style="fill:white;fill-rule:nonzero;"/>
        </g>
        <g transform="matrix(1,0,0,1,-54,-49.12)">
            <path d="M243,340.46C242.987,339.769 243.134,339.085 243.43,338.46C243.702,337.893 244.138,337.419 244.68,337.1C245.255,336.771 245.908,336.605 246.57,336.62C247.495,336.585 248.397,336.924 249.07,337.56C249.739,338.239 250.125,339.147 250.15,340.1L250.15,340.62C250.186,341.643 249.828,342.643 249.15,343.41C247.7,344.801 245.38,344.801 243.93,343.41C243.237,342.627 242.878,341.604 242.93,340.56L243,340.46ZM245,340.6C244.965,341.179 245.108,341.755 245.41,342.25C245.686,342.607 246.113,342.817 246.565,342.817C247.017,342.817 247.444,342.607 247.72,342.25C248.036,341.706 248.179,341.078 248.13,340.45C248.166,339.874 248.022,339.301 247.72,338.81C247.459,338.43 247.02,338.211 246.56,338.23C246.102,338.211 245.666,338.43 245.41,338.81C245.099,339.353 244.956,339.976 245,340.6Z" style="fill:white;fill-rule:nonzero;"/>
        </g>
        <g transform="matrix(1,0,0,1,-54,-49.12)">
            <path d="M255.63,338.64C255.388,338.604 255.144,338.584 254.9,338.58C254.287,338.501 253.687,338.813 253.4,339.36L253.4,344.31L251.4,344.31L251.4,336.75L253.31,336.75L253.37,337.65C253.697,337.028 254.348,336.641 255.05,336.65C255.263,336.648 255.476,336.678 255.68,336.74L255.63,338.64Z" style="fill:white;fill-rule:nonzero;"/>
        </g>
        <g transform="matrix(1,0,0,1,-54,-49.12)">
            <rect x="256.73" y="333.57" width="2" height="10.74" style="fill:white;fill-rule:nonzero;"/>
        </g>
        <g transform="matrix(1,0,0,1,-54,-49.12)">
            <path d="M260.08,340.47C260.026,339.469 260.304,338.477 260.87,337.65C261.385,336.981 262.197,336.606 263.04,336.65C263.74,336.637 264.41,336.943 264.86,337.48L264.86,333.62L266.86,333.62L266.86,344.36L265.04,344.36L264.94,343.56C264.481,344.165 263.759,344.514 263,344.5C262.158,344.522 261.358,344.129 260.86,343.45C260.273,342.572 259.999,341.522 260.08,340.47ZM262.08,340.62C262.046,341.187 262.175,341.753 262.45,342.25C262.679,342.622 263.094,342.841 263.53,342.82C264.09,342.858 264.618,342.542 264.85,342.03L264.85,339.03C264.624,338.518 264.098,338.201 263.54,338.24C262.58,338.247 262.1,339.04 262.1,340.62L262.08,340.62Z" style="fill:white;fill-rule:nonzero;"/>
        </g>
        <g transform="matrix(1,0,0,1,-54,-49.12)">
            <path d="M280.15,340.92C280.12,341.913 279.682,342.85 278.94,343.51C278.128,344.165 277.102,344.5 276.06,344.45C274.886,344.506 273.749,344.019 272.98,343.13C272.183,342.098 271.785,340.812 271.86,339.51L271.86,338.89C271.842,337.999 272.02,337.115 272.38,336.3C272.691,335.592 273.206,334.993 273.86,334.58C275.465,333.675 277.465,333.813 278.93,334.93C279.674,335.617 280.119,336.569 280.17,337.58L278.07,337.58C278.071,337.052 277.875,336.541 277.52,336.15C277.116,335.821 276.599,335.663 276.08,335.71C275.463,335.67 274.867,335.954 274.51,336.46C274.112,337.169 273.928,337.979 273.98,338.79L273.98,339.56C273.919,340.394 274.093,341.229 274.48,341.97C274.832,342.487 275.436,342.778 276.06,342.73C276.581,342.772 277.1,342.615 277.51,342.29C277.861,341.92 278.058,341.43 278.06,340.92L280.15,340.92Z" style="fill:white;fill-rule:nonzero;"/>
        </g>
        <g transform="matrix(1,0,0,1,-54,-49.12)">
            <path d="M281.08,340.46C281.067,339.769 281.214,339.085 281.51,338.46C281.782,337.893 282.218,337.419 282.76,337.1C283.335,336.771 283.988,336.605 284.65,336.62C285.575,336.585 286.477,336.924 287.15,337.56C287.819,338.239 288.205,339.147 288.23,340.1L288.23,340.62C288.266,341.643 287.908,342.643 287.23,343.41C285.78,344.801 283.46,344.801 282.01,343.41C281.317,342.627 280.958,341.604 281.01,340.56L281.08,340.46ZM283.08,340.6C283.045,341.179 283.188,341.755 283.49,342.25C283.766,342.607 284.193,342.817 284.645,342.817C285.097,342.817 285.524,342.607 285.8,342.25C286.116,341.706 286.259,341.078 286.21,340.45C286.246,339.874 286.102,339.301 285.8,338.81C285.539,338.43 285.1,338.211 284.64,338.23C284.182,338.211 283.746,338.43 283.49,338.81C283.186,339.355 283.05,339.978 283.1,340.6L283.08,340.6Z" style="fill:white;fill-rule:nonzero;"/>
        </g>
        <g transform="matrix(1,0,0,1,-54,-49.12)">
            <path d="M291.38,336.74L291.44,337.59C291.964,336.933 292.77,336.561 293.61,336.59C294.451,336.512 295.255,336.974 295.61,337.74C296.114,336.988 296.976,336.552 297.88,336.59C298.567,336.538 299.242,336.804 299.71,337.31C300.157,337.937 300.369,338.702 300.31,339.47L300.31,344.3L298.31,344.3L298.31,339.48C298.338,339.147 298.25,338.815 298.06,338.54C297.822,338.315 297.496,338.205 297.17,338.24C296.604,338.212 296.085,338.57 295.91,339.11L295.91,344.3L293.91,344.3L293.91,339.48C293.952,339.126 293.859,338.769 293.65,338.48C293.412,338.262 293.091,338.156 292.77,338.19C292.25,338.157 291.758,338.436 291.52,338.9L291.52,344.25L289.52,344.25L289.52,336.69L291.38,336.74Z" style="fill:white;fill-rule:nonzero;"/>
        </g>
        <g transform="matrix(1,0,0,1,-54,-49.12)">
            <path d="M308.69,340.6C308.741,341.595 308.463,342.579 307.9,343.4C307.406,344.083 306.603,344.477 305.76,344.45C305.055,344.473 304.376,344.18 303.91,343.65L303.91,347.22L301.91,347.22L301.91,336.74L303.78,336.74L303.85,337.48C304.316,336.902 305.028,336.576 305.77,336.6C306.613,336.555 307.427,336.929 307.94,337.6C308.502,338.44 308.776,339.441 308.72,340.45L308.69,340.6ZM306.69,340.45C306.724,339.883 306.595,339.317 306.32,338.82C306.086,338.448 305.669,338.23 305.23,338.25C304.685,338.198 304.162,338.489 303.92,338.98L303.92,342.08C304.164,342.576 304.689,342.874 305.24,342.83C306.193,342.823 306.67,342.03 306.67,340.45L306.69,340.45Z" style="fill:white;fill-rule:nonzero;"/>
        </g>
        <g transform="matrix(1,0,0,1,-54,-49.12)">
            <path d="M314.47,343.54C313.962,344.151 313.194,344.489 312.4,344.45C311.708,344.498 311.029,344.242 310.54,343.75C310.089,343.184 309.858,342.473 309.89,341.75L309.89,336.75L311.89,336.75L311.89,341.64C311.89,342.427 312.25,342.82 312.97,342.82C313.537,342.88 314.09,342.601 314.38,342.11L314.38,336.75L316.38,336.75L316.38,344.31L314.48,344.31L314.47,343.54Z" style="fill:white;fill-rule:nonzero;"/>
        </g>
        <g transform="matrix(1,0,0,1,-54,-49.12)">
            <path d="M320.37,334.88L320.37,336.74L321.66,336.74L321.66,338.22L320.37,338.22L320.37,342C320.35,342.213 320.407,342.425 320.53,342.6C320.703,342.743 320.927,342.808 321.15,342.78C321.346,342.798 321.544,342.798 321.74,342.78L321.74,344.31C321.345,344.43 320.933,344.491 320.52,344.49C320.436,344.501 320.351,344.507 320.265,344.507C319.207,344.507 318.335,343.636 318.335,342.577C318.335,342.498 318.34,342.419 318.35,342.34L318.35,338.26L317.25,338.26L317.25,336.78L318.35,336.78L318.35,334.92L320.37,334.88Z" style="fill:white;fill-rule:nonzero;"/>
        </g>
        <g transform="matrix(1,0,0,1,-54,-49.12)">
            <path d="M322.78,334.79C322.77,334.509 322.879,334.237 323.08,334.04C323.559,333.652 324.251,333.652 324.73,334.04C325.137,334.454 325.137,335.126 324.73,335.54C324.256,335.931 323.564,335.931 323.09,335.54C322.885,335.345 322.773,335.072 322.78,334.79ZM324.93,344.31L322.93,344.31L322.93,336.75L324.93,336.75L324.93,344.31Z" style="fill:white;fill-rule:nonzero;"/>
        </g>
        <g transform="matrix(1,0,0,1,-54,-49.12)">
            <path d="M328.45,336.74L328.51,337.61C329.032,336.95 329.839,336.578 330.68,336.61C331.354,336.559 332.014,336.821 332.47,337.32C332.905,337.934 333.116,338.679 333.07,339.43L333.07,344.32L331.07,344.32L331.07,339.48C331.099,339.146 330.999,338.813 330.79,338.55C330.532,338.332 330.196,338.227 329.86,338.26C329.33,338.239 328.832,338.523 328.58,338.99L328.58,344.32L326.58,344.32L326.58,336.76L328.45,336.74Z" style="fill:white;fill-rule:nonzero;"/>
        </g>
        <g transform="matrix(1,0,0,1,-54,-49.12)">
            <path d="M334.31,340.47C334.263,339.47 334.556,338.483 335.14,337.67C335.667,336.977 336.5,336.581 337.37,336.61C338.114,336.569 338.835,336.885 339.31,337.46L339.39,336.75L341.22,336.75L341.22,344.06C341.236,344.667 341.08,345.267 340.77,345.79C340.468,346.281 340.025,346.671 339.5,346.91C338.896,347.177 338.24,347.307 337.58,347.29C337.039,347.297 336.503,347.199 336,347C335.532,346.822 335.118,346.526 334.8,346.14L335.7,344.91C336.152,345.453 336.824,345.765 337.53,345.76C337.987,345.788 338.437,345.633 338.78,345.33C339.095,345.005 339.258,344.562 339.23,344.11L339.23,343.7C338.766,344.225 338.09,344.516 337.39,344.49C336.524,344.512 335.7,344.112 335.18,343.42C334.584,342.601 334.287,341.602 334.34,340.59L334.31,340.47ZM336.31,340.62C336.278,341.186 336.421,341.748 336.72,342.23C336.971,342.605 337.399,342.824 337.85,342.81C338.385,342.852 338.899,342.584 339.17,342.12L339.17,338.93C338.901,338.47 338.392,338.201 337.86,338.24C337.402,338.228 336.97,338.456 336.72,338.84C336.415,339.381 336.279,340.001 336.33,340.62L336.31,340.62Z" style="fill:white;fill-rule:nonzero;"/>
        </g>
        <g transform="matrix(1,0,0,1,-54,-49.12)">
            <path d="M194.29,350.64L196.22,355.77L198.14,350.65L199.64,350.65L199.64,357.34L198.48,357.34L198.48,355.14L198.59,352.19L196.59,357.34L195.76,357.34L193.76,352.19L193.87,355.13L193.87,357.33L192.71,357.33L192.71,350.64L194.29,350.64Z" style="fill:white;fill-rule:nonzero;"/>
        </g>
        <g transform="matrix(1,0,0,1,-54,-49.12)">
            <path d="M203.88,357.33C203.815,357.183 203.772,357.029 203.75,356.87C203.416,357.232 202.943,357.436 202.45,357.43C202.004,357.447 201.567,357.293 201.23,357C200.924,356.734 200.752,356.345 200.76,355.94C200.736,355.46 200.958,354.999 201.35,354.72C201.856,354.408 202.447,354.261 203.04,354.3L203.72,354.3L203.72,354C203.731,353.773 203.652,353.55 203.5,353.38C203.323,353.213 203.083,353.13 202.84,353.15C202.618,353.143 202.4,353.21 202.22,353.34C202.068,353.452 201.978,353.631 201.98,353.82L200.86,353.82C200.863,353.544 200.958,353.276 201.13,353.06C201.324,352.812 201.579,352.619 201.87,352.5C202.187,352.368 202.527,352.3 202.87,352.3C203.371,352.275 203.865,352.431 204.26,352.74C204.612,353.049 204.807,353.501 204.79,353.97L204.79,356.21C204.775,356.576 204.84,356.941 204.98,357.28L204.98,357.36L203.88,357.33ZM202.65,356.53C202.867,356.53 203.08,356.475 203.27,356.37C203.456,356.273 203.609,356.123 203.71,355.94L203.71,355L203.11,355C202.785,354.98 202.461,355.057 202.18,355.22C201.978,355.355 201.86,355.587 201.87,355.83C201.861,356.023 201.938,356.21 202.08,356.34C202.242,356.475 202.45,356.543 202.66,356.53L202.65,356.53Z" style="fill:white;fill-rule:nonzero;"/>
        </g>
        <g transform="matrix(1,0,0,1,-54,-49.12)">
            <path d="M208,356.53C208.252,356.54 208.499,356.454 208.69,356.29C208.865,356.139 208.97,355.921 208.98,355.69L210.03,355.69C210.018,356.002 209.917,356.304 209.74,356.56C209.556,356.833 209.305,357.053 209.01,357.2C208.7,357.355 208.357,357.434 208.01,357.43C207.389,357.46 206.785,357.214 206.36,356.76C205.93,356.239 205.712,355.575 205.75,354.9L205.75,354.78C205.718,354.118 205.936,353.468 206.36,352.96C206.781,352.5 207.387,352.25 208.01,352.28C208.54,352.255 209.058,352.443 209.45,352.8C209.827,353.151 210.042,353.644 210.04,354.16L209,354.16C208.999,353.898 208.895,353.646 208.71,353.46C208.526,353.273 208.272,353.172 208.01,353.18C207.683,353.165 207.369,353.311 207.17,353.57C206.948,353.925 206.843,354.342 206.87,354.76L206.87,354.94C206.836,355.364 206.937,355.788 207.16,356.15C207.361,356.406 207.675,356.548 208,356.53Z" style="fill:white;fill-rule:nonzero;"/>
        </g>
        <g transform="matrix(1,0,0,1,-54,-49.12)">
            <path d="M214.53,355.61C214.544,355.347 214.428,355.092 214.22,354.93C213.876,354.71 213.497,354.547 213.1,354.45C212.648,354.327 212.215,354.145 211.81,353.91C211.256,353.614 210.906,353.038 210.9,352.41C210.894,351.887 211.139,351.391 211.56,351.08C212.053,350.715 212.657,350.531 213.27,350.56C213.697,350.554 214.121,350.643 214.51,350.82C214.861,350.976 215.159,351.229 215.37,351.55C215.575,351.861 215.683,352.227 215.68,352.6L214.52,352.6C214.543,352.29 214.421,351.987 214.19,351.78C213.926,351.565 213.59,351.458 213.25,351.48C212.938,351.461 212.629,351.545 212.37,351.72C212.162,351.882 212.046,352.137 212.06,352.4C212.062,352.648 212.191,352.878 212.4,353.01C212.746,353.228 213.124,353.39 213.52,353.49C213.958,353.611 214.378,353.789 214.77,354.02C215.052,354.187 215.289,354.42 215.46,354.7C215.612,354.975 215.688,355.286 215.68,355.6C215.698,356.121 215.458,356.619 215.04,356.93C214.531,357.283 213.918,357.455 213.3,357.42C212.843,357.424 212.39,357.332 211.97,357.15C211.592,356.995 211.263,356.739 211.02,356.41C210.792,356.089 210.673,355.704 210.68,355.31L211.84,355.31C211.822,355.646 211.963,355.972 212.22,356.19C212.533,356.416 212.915,356.526 213.3,356.5C213.623,356.522 213.944,356.434 214.21,356.25C214.413,356.1 214.532,355.862 214.53,355.61Z" style="fill:white;fill-rule:nonzero;"/>
        </g>
        <g transform="matrix(1,0,0,1,-54,-49.12)">
            <path d="M219.57,357.33C219.506,357.183 219.462,357.029 219.44,356.87C219.106,357.232 218.633,357.436 218.14,357.43C217.694,357.447 217.257,357.293 216.92,357C216.614,356.734 216.442,356.345 216.45,355.94C216.426,355.46 216.648,354.999 217.04,354.72C217.546,354.408 218.137,354.261 218.73,354.3L219.41,354.3L219.41,354C219.421,353.773 219.342,353.55 219.19,353.38C219.013,353.213 218.773,353.13 218.53,353.15C218.308,353.143 218.09,353.21 217.91,353.34C217.758,353.452 217.668,353.631 217.67,353.82L216.55,353.82C216.553,353.544 216.648,353.276 216.82,353.06C217.014,352.812 217.269,352.619 217.56,352.5C217.877,352.368 218.217,352.3 218.56,352.3C219.061,352.275 219.555,352.431 219.95,352.74C220.302,353.049 220.497,353.501 220.48,353.97L220.48,356.21C220.466,356.576 220.531,356.941 220.67,357.28L220.67,357.36L219.57,357.33ZM218.34,356.53C218.557,356.53 218.77,356.475 218.96,356.37C219.146,356.273 219.299,356.123 219.4,355.94L219.4,355L218.8,355C218.475,354.98 218.151,355.057 217.87,355.22C217.668,355.355 217.55,355.587 217.56,355.83C217.551,356.023 217.628,356.21 217.77,356.34C217.93,356.472 218.133,356.54 218.34,356.53Z" style="fill:white;fill-rule:nonzero;"/>
        </g>
        <g transform="matrix(1,0,0,1,-54,-49.12)">
            <rect x="221.76" y="350.28" width="1.12" height="7.05" style="fill:white;fill-rule:nonzero;"/>
        </g>
        <g transform="matrix(1,0,0,1,-54,-49.12)">
            <path d="M226.28,357.42C225.639,357.445 225.015,357.202 224.56,356.75C224.107,356.272 223.868,355.628 223.9,354.97L223.9,354.83C223.893,354.37 223.993,353.915 224.19,353.5C224.368,353.126 224.649,352.81 225,352.59C225.347,352.371 225.75,352.256 226.16,352.26C226.754,352.233 227.33,352.471 227.73,352.91C228.127,353.434 228.322,354.084 228.28,354.74L228.28,355.19L225,355.19C225.007,355.563 225.153,355.92 225.41,356.19C225.65,356.431 225.98,356.561 226.32,356.55C226.812,356.56 227.28,356.328 227.57,355.93L228.17,356.5C227.97,356.798 227.694,357.036 227.37,357.19C227.029,357.348 226.656,357.426 226.28,357.42ZM226.15,353.16C225.868,353.15 225.596,353.268 225.41,353.48C225.204,353.738 225.078,354.051 225.05,354.38L227.18,354.38L227.18,354.3C227.18,353.991 227.074,353.691 226.88,353.45C226.69,353.254 226.422,353.152 226.15,353.17L226.15,353.16Z" style="fill:white;fill-rule:nonzero;"/>
        </g>
        <g transform="matrix(1,0,0,1,-54,-49.12)">
            <path d="M231.92,356C231.924,355.816 231.828,355.644 231.67,355.55C231.414,355.411 231.137,355.317 230.85,355.27C230.505,355.212 230.17,355.111 229.85,354.97C229.356,354.792 229.02,354.325 229.01,353.8C229.008,353.378 229.209,352.979 229.55,352.73C229.946,352.431 230.434,352.279 230.93,352.3C231.446,352.275 231.956,352.431 232.37,352.74C232.724,353.01 232.929,353.434 232.92,353.88L231.8,353.88C231.805,353.673 231.717,353.475 231.56,353.34C231.384,353.194 231.159,353.119 230.93,353.13C230.717,353.121 230.507,353.181 230.33,353.3C230.184,353.403 230.097,353.571 230.1,353.75C230.095,353.913 230.18,354.067 230.32,354.15C230.593,354.291 230.887,354.388 231.19,354.44C231.536,354.51 231.872,354.625 232.19,354.78C232.415,354.889 232.607,355.055 232.75,355.26C232.875,355.464 232.937,355.701 232.93,355.94C232.939,356.374 232.728,356.784 232.37,357.03C231.943,357.326 231.429,357.474 230.91,357.45C230.535,357.457 230.163,357.382 229.82,357.23C229.522,357.098 229.267,356.887 229.08,356.62C228.906,356.378 228.811,356.088 228.81,355.79L230,355.79C230.003,356.028 230.113,356.252 230.3,356.4C230.513,356.549 230.77,356.623 231.03,356.61C231.266,356.625 231.5,356.565 231.7,356.44C231.842,356.34 231.925,356.174 231.92,356Z" style="fill:white;fill-rule:nonzero;"/>
        </g>
        <g transform="matrix(1,0,0,1,-54,-49.12)">
            <path d="M234.69,356.16C234.868,356.151 235.042,356.216 235.17,356.34C235.283,356.458 235.345,356.617 235.34,356.78C235.344,356.94 235.283,357.096 235.17,357.21C234.887,357.463 234.453,357.463 234.17,357.21C234.054,357.094 233.992,356.934 234,356.77C233.995,356.607 234.057,356.448 234.17,356.33C234.308,356.197 234.5,356.135 234.69,356.16Z" style="fill:white;fill-rule:nonzero;"/>
        </g>
        <g transform="matrix(1,0,0,1,-54,-49.12)">
            <path d="M238.66,356.53C238.912,356.54 239.159,356.454 239.35,356.29C239.525,356.139 239.63,355.921 239.64,355.69L240.69,355.69C240.678,356.002 240.577,356.304 240.4,356.56C240.216,356.833 239.965,357.053 239.67,357.2C239.36,357.355 239.017,357.434 238.67,357.43C238.049,357.46 237.445,357.214 237.02,356.76C236.59,356.239 236.372,355.575 236.41,354.9L236.41,354.78C236.381,354.135 236.591,353.501 237,353C237.421,352.54 238.027,352.29 238.65,352.32C239.18,352.295 239.698,352.483 240.09,352.84C240.467,353.191 240.682,353.684 240.68,354.2L239.63,354.2C239.629,353.938 239.525,353.686 239.34,353.5C239.156,353.313 238.902,353.212 238.64,353.22C238.313,353.205 237.999,353.351 237.8,353.61C237.578,353.965 237.473,354.382 237.5,354.8L237.5,354.98C237.466,355.404 237.567,355.828 237.79,356.19C238.006,356.44 238.332,356.567 238.66,356.53Z" style="fill:white;fill-rule:nonzero;"/>
        </g>
        <g transform="matrix(1,0,0,1,-54,-49.12)">
            <path d="M241.33,354.8C241.322,354.343 241.421,353.891 241.62,353.48C241.796,353.107 242.078,352.794 242.43,352.58C242.794,352.368 243.209,352.261 243.63,352.27C244.24,352.248 244.833,352.484 245.26,352.92C245.694,353.388 245.937,354.002 245.94,354.64L245.94,354.9C245.947,355.352 245.851,355.8 245.66,356.21C245.485,356.583 245.203,356.897 244.85,357.11C244.484,357.326 244.065,357.437 243.64,357.43C243.005,357.455 242.389,357.199 241.96,356.73C241.52,356.21 241.295,355.541 241.33,354.86L241.33,354.8ZM242.45,354.9C242.427,355.324 242.539,355.744 242.77,356.1C242.978,356.377 243.304,356.54 243.65,356.54C243.996,356.54 244.322,356.377 244.53,356.1C244.763,355.712 244.871,355.262 244.84,354.81C244.861,354.39 244.749,353.973 244.52,353.62C244.315,353.343 243.99,353.18 243.645,353.18C243.3,353.18 242.975,353.343 242.77,353.62C242.533,354.003 242.421,354.451 242.45,354.9Z" style="fill:white;fill-rule:nonzero;"/>
        </g>
        <g transform="matrix(1,0,0,1,-54,-49.12)">
            <path d="M247.95,352.36L247.95,352.88C248.309,352.47 248.836,352.245 249.38,352.27C249.946,352.216 250.489,352.52 250.74,353.03C251.082,352.533 251.657,352.246 252.26,352.27C252.713,352.234 253.159,352.399 253.48,352.72C253.774,353.103 253.919,353.579 253.89,354.06L253.89,357.33L252.77,357.33L252.77,354.1C252.788,353.852 252.713,353.606 252.56,353.41C252.373,353.247 252.127,353.168 251.88,353.19C251.656,353.18 251.436,353.251 251.26,353.39C251.094,353.531 250.976,353.72 250.92,353.93L250.92,357.34L249.8,357.34L249.8,354.07C249.803,354.041 249.805,354.012 249.805,353.983C249.805,353.544 249.444,353.183 249.005,353.183C248.97,353.183 248.935,353.185 248.9,353.19C248.485,353.147 248.085,353.367 247.9,353.74L247.9,357.34L246.78,357.34L246.78,352.34L247.95,352.36Z" style="fill:white;fill-rule:nonzero;"/>
        </g>
    </g>
</svg>
