<?xml version="1.0" encoding="UTF-8"?>
<!DOCTYPE svg PUBLIC "-//W3C//DTD SVG 1.1//EN" "http://www.w3.org/Graphics/SVG/1.1/DTD/svg11.dtd">
<!-- Creator: CorelDRAW 2018 (64-Bit) -->
<svg xmlns="http://www.w3.org/2000/svg" xml:space="preserve" width="100mm" height="100mm" version="1.1" style="shape-rendering:geometricPrecision; text-rendering:geometricPrecision; image-rendering:optimizeQuality; fill-rule:evenodd; clip-rule:evenodd"
viewBox="0 0 10000 10000"
 xmlns:xlink="http://www.w3.org/1999/xlink"
 xmlns:dc="http://purl.org/dc/elements/1.1/"
 xmlns:cc="http://web.resource.org/cc/"
 xmlns:rdf="http://www.w3.org/1999/02/22-rdf-syntax-ns#"
 xmlns:svg="http://www.w3.org/2000/svg"
 xmlns:sodipodi="http://sodipodi.sourceforge.net/DTD/sodipodi-0.dtd"
 xmlns:inkscape="http://www.inkscape.org/namespaces/inkscape"
 sodipodi:version="0.32"
 inkscape:version="0.44"
 sodipodi:docbase="C:\Dokumente und Einstellungen\Andreas\Eigene Dateien\Eigene Bilder\sonstiges\Logos\Vektor\Computer, Electronics"
 sodipodi:docname="maxtor.svg"
 enable-background="new 0 0 195 46">
 <defs>
  <style type="text/css">
   <![CDATA[
    .fil9 {fill:black}
    .fil8 {fill:#13B5EA}
    .fil1 {fill:#4154FF}
    .fil2 {fill:white}
    .fil5 {fill:#009933;fill-rule:nonzero}
    .fil6 {fill:#0F5FFF;fill-rule:nonzero}
    .fil0 {fill:#B3B3B3;fill-rule:nonzero}
    .fil4 {fill:red;fill-rule:nonzero}
    .fil3 {fill:#FFCC00;fill-rule:nonzero}
    .fil7 {fill:white;fill-rule:nonzero}
   ]]>
  </style>
 </defs>
 <g id="Layer_x0020_1">
  <metadata id="CorelCorpID_0Corel-Layer"/>
  <g id="_1867644297408">
   <path class="fil0" d="M5176.15 8791.52c0,-1.53 -0.51,-1.84 -2.05,-2.15 -3.28,-0.51 -7.27,-1.43 -19.46,-1.43 -13.32,0 -23.67,3.48 -23.67,21l0 53.88c0,1.13 0.92,2.06 2.05,2.06l10.03 0c1.13,0 2.06,-0.93 2.06,-2.06l0 -31.34 27.76 0c1.13,0 2.05,-0.92 2.05,-2.05l0 -7.38c0,-1.12 -0.92,-2.05 -2.05,-2.05l-27.76 0 0 -11.06c0,-6.87 2.05,-8.81 8.09,-8.81l20.9 0c1.13,0 2.05,-0.92 2.05,-2.05l0 -6.56zm42.52 16.91c0,-1.13 -0.92,-2.05 -2.05,-2.05 -4.1,0 -9.63,0.92 -14.65,4.92l0 -2.16c0,-1.13 -0.92,-2.05 -2.05,-2.05l-8.91 0c-1.13,0 -2.05,0.92 -2.05,2.05l0 53.58c0,1.13 0.92,2.16 2.05,2.16l9.42 0c1.13,0 2.05,-1.03 2.05,-2.16l0 -41.18c4.41,-2.36 8.5,-3.69 14.14,-3.69 1.13,0 2.05,-0.92 2.05,-2.05l0 -7.37zm55.93 23.97c0,-15.26 -8.5,-26.02 -24.38,-26.02 -15.68,0 -24.59,9.94 -24.59,26.02l0 7.58c0,20.18 14.65,25.72 24.79,25.72 9.33,0 13.12,-0.62 19.88,-1.75 1.94,-0.3 2.15,-1.02 2.15,-2.66l0 -6.76c0,-1.13 -0.71,-1.54 -1.84,-1.54l-0.31 0c-4.41,0.41 -11.37,1.03 -18.85,1.03 -9.74,0 -12.3,-6.97 -12.3,-13.02l0 -0.3 33.4 0c1.34,0 2.05,-0.82 2.05,-2.56l0 -5.74zm-13.62 -1.34l-21.72 0 0 -0.4c0,-8.2 4.51,-12.6 10.96,-12.6 6.45,0 10.76,4.5 10.76,12.6l0 0.4zm72.43 1.34c0,-15.26 -8.5,-26.02 -24.38,-26.02 -15.68,0 -24.59,9.94 -24.59,26.02l0 7.58c0,20.18 14.65,25.72 24.79,25.72 9.32,0 13.12,-0.62 19.88,-1.75 1.94,-0.3 2.15,-1.02 2.15,-2.66l0 -6.76c0,-1.13 -0.72,-1.54 -1.85,-1.54l-0.3 0c-4.41,0.41 -11.37,1.03 -18.85,1.03 -9.74,0 -12.3,-6.97 -12.3,-13.02l0 -0.3 33.4 0c1.34,0 2.05,-0.82 2.05,-2.56l0 -5.74zm-13.63 -1.34l-21.71 0 0 -0.4c0,-8.2 4.5,-12.6 10.96,-12.6 6.45,0 10.75,4.5 10.75,12.6l0 0.4zm106.86 -11.77c0,-20.39 -11.58,-31.35 -32.17,-31.35 -7.27,0 -17.11,0.71 -20.18,1.23 -1.74,0.3 -2.66,1.12 -2.66,3.17l0 68.95c0,2.05 0.92,2.87 2.66,3.18 3.07,0.51 12.91,1.23 20.18,1.23 20.59,0 32.17,-10.97 32.17,-31.35l0 -15.06zm-14.14 15.06c0,15.26 -7.79,19.36 -18.03,19.36 -3.79,0 -6.46,-0.21 -8.61,-0.31l0 -53.17c2.15,-0.1 4.82,-0.31 8.61,-0.31 10.24,0 18.03,4.1 18.03,19.37l0 15.06zm73.66 -2.46c0,-14.65 -8.5,-25.51 -24.49,-25.51 -15.98,0 -24.48,10.86 -24.48,25.51l0 8.3c0,14.65 8.5,25.51 24.48,25.51 15.99,0 24.49,-10.86 24.49,-25.51l0 -8.3zm-13.52 8.3c0,8.5 -3.69,13.83 -10.97,13.83 -7.27,0 -10.96,-5.33 -10.96,-13.83l0 -8.3c0,-8.5 3.69,-13.83 10.96,-13.83 7.28,0 10.97,5.33 10.97,13.83l0 8.3zm99.68 -31.05c0,-1.13 -0.92,-2.05 -2.05,-2.05l-9.94 0c-1.12,0 -1.74,0.92 -1.85,1.85l-6.44 43.34c-0.11,0.91 -0.31,1.43 -0.52,1.43 -0.31,0 -0.51,-0.52 -0.71,-1.43l-8.5 -34.43c-1.13,-3.99 -2.16,-4.4 -5.75,-4.4l-7.17 0c-3.58,0 -4.61,0.41 -5.73,4.4l-8.51 34.43c-0.2,0.91 -0.41,1.43 -0.71,1.43 -0.21,0 -0.41,-0.52 -0.52,-1.43l-6.45 -43.34c-0.11,-0.93 -0.72,-1.85 -1.84,-1.85l-9.94 0c-1.13,0 -2.05,0.92 -2.05,2.05l0 0.31 9.32 47.13c1.44,6.04 2.77,8.6 9.12,8.6l2.76 0c5.64,0 8.4,-2.66 9.74,-7.99l8.09 -31.34c0.1,-0.31 0.2,-0.52 0.31,-0.52 0.1,0 0.2,0.21 0.31,0.52l8.09 31.34c1.33,5.33 4.1,7.99 9.73,7.99l2.77 0c6.14,0 7.99,-2.46 9.12,-8.6l9.32 -47.13 0 -0.31zm56.65 20.19c0,-13.11 -2.97,-22.95 -17.73,-22.95 -6.75,0 -10.65,1.13 -16.59,4.92l0 -2.16c0,-1.13 -0.92,-2.05 -2.05,-2.05l-8.91 0c-1.13,0 -2.05,0.92 -2.05,2.05l0 53.58c0,1.13 0.92,2.16 2.05,2.16l9.42 0c1.13,0 2.05,-1.03 2.05,-2.16l0 -41.18c4.41,-2.36 7.99,-3.69 11.58,-3.69 7.88,0 8.71,2.56 8.71,11.48l0 33.39c0,1.13 0.92,2.16 2.05,2.16l9.42 0c1.12,0 2.05,-1.03 2.05,-2.16l0 -33.39zm27.35 -40.37c0,-1.12 -0.81,-2.04 -1.94,-2.04l-9.53 0c-1.13,0 -2.05,0.92 -2.05,2.04l0 73.76c0,1.13 0.92,2.16 2.05,2.16l9.53 0c1.13,0 1.94,-1.03 1.94,-2.16l0 -73.76zm61.06 42.93c0,-14.65 -8.5,-25.51 -24.49,-25.51 -15.98,0 -24.48,10.86 -24.48,25.51l0 8.3c0,14.65 8.5,25.51 24.48,25.51 15.99,0 24.49,-10.86 24.49,-25.51l0 -8.3zm-13.52 8.3c0,8.5 -3.69,13.83 -10.97,13.83 -7.27,0 -10.96,-5.33 -10.96,-13.83l0 -8.3c0,-8.5 3.69,-13.83 10.96,-13.83 7.28,0 10.97,5.33 10.97,13.83l0 8.3zm67.92 -14.24c0,-13.22 -7.88,-19.57 -22.53,-19.57 -7.07,0 -13.01,0.82 -17.11,1.63 -1.34,0.31 -1.95,1.03 -1.95,2.16l0 6.55c0,1.54 0.72,1.75 1.84,1.75l0.52 0c3.38,-0.41 10.13,-0.83 16.7,-0.83 6.14,0 9.01,1.65 9.01,8.31l0 4.5 -6.45 0c-17.73,0 -25.01,5.95 -25.01,17.72l0 0.42c0,13.83 9.23,17.11 17.73,17.11 4.92,0 9.63,-1.65 14.45,-4.51l0 1.63c0,1.13 0.92,2.06 2.04,2.06l8.71 0c1.13,0 2.05,-0.93 2.05,-2.06l0 -36.87zm-13.52 26.12c-2.97,1.64 -6.76,2.87 -10.45,2.87 -5.23,0 -7.38,-1.33 -7.38,-6.35l0 -0.42c0,-5.73 2.05,-8.7 11.38,-8.7l6.45 0 0 12.6zm72.63 -63.11c0,-1.12 -0.92,-2.04 -2.04,-2.04l-9.43 0c-1.13,0 -2.05,0.92 -2.05,2.04l0 18.13c-3.79,-0.51 -7.38,-0.71 -9.84,-0.71 -16.49,0 -24.48,9.63 -24.48,25.71l0 7.89c0,16.09 7.99,25.72 24.48,25.72 6.56,0 14.15,-1.03 20.6,-2.67 2.35,-0.71 2.76,-1.23 2.76,-2.77l0 -71.3zm-13.52 64.96c-1.94,0.4 -6.15,0.71 -9.84,0.71 -8.81,0 -10.96,-6.25 -10.96,-14.65l0 -7.89c0,-8.4 2.15,-14.65 10.96,-14.65 2.46,0 6.97,0.31 9.84,0.72l0 35.76zm110.54 -63.42c0,-1.13 -0.71,-1.74 -1.84,-1.74l-10.86 0c-0.92,0 -1.64,0.81 -1.95,1.74l-14.85 61.57c-0.31,1.23 -0.51,1.64 -1.64,1.64 -1.13,0 -1.33,-0.41 -1.64,-1.64l-14.86 -61.57c-0.3,-0.93 -1.02,-1.74 -1.94,-1.74l-10.86 0c-1.13,0 -1.85,0.61 -1.85,1.74 0,0.3 0.1,0.2 0.1,0.51l16.81 64.24c2.46,9.42 9.84,10.45 14.24,10.45 4.4,0 11.78,-1.03 14.24,-10.45l16.8 -64.24c0,-0.31 0.1,-0.21 0.1,-0.51zm56.35 41.9c0,-15.26 -8.5,-26.02 -24.38,-26.02 -15.68,0 -24.59,9.94 -24.59,26.02l0 7.58c0,20.18 14.65,25.72 24.79,25.72 9.32,0 13.12,-0.62 19.88,-1.75 1.94,-0.3 2.15,-1.02 2.15,-2.66l0 -6.76c0,-1.13 -0.72,-1.54 -1.85,-1.54l-0.3 0c-4.41,0.41 -11.37,1.03 -18.85,1.03 -9.74,0 -12.3,-6.97 -12.3,-13.02l0 -0.3 33.4 0c1.34,0 2.05,-0.82 2.05,-2.56l0 -5.74zm-13.63 -1.34l-21.71 0 0 -0.4c0,-8.2 4.5,-12.6 10.96,-12.6 6.45,0 10.75,4.5 10.75,12.6l0 0.4zm61.89 23.98c0,-1.12 -0.72,-1.54 -1.85,-1.54l-0.31 0c-4.09,0.52 -6.55,0.72 -13.21,0.72 -4.82,0 -9.84,-2.76 -9.84,-13.42l0 -9.53c0,-10.65 5.02,-13.42 9.84,-13.42 6.66,0 9.12,0.21 13.21,0.72l0.31 0c1.13,0 1.85,-0.41 1.85,-1.54l0 -6.66c0,-1.63 -0.41,-2.25 -2.16,-2.66 -2.35,-0.72 -6.96,-1.33 -13.21,-1.33 -13.32,0 -23.36,8.19 -23.36,24.89l0 9.53c0,16.7 10.04,24.9 23.36,24.9 6.25,0 10.86,-0.62 13.21,-1.34 1.75,-0.41 2.16,-1.02 2.16,-2.66l0 -6.66zm43.54 1.64c0,-1.03 -0.72,-1.53 -2.15,-1.53l-5.43 0c-3.69,0 -4,-0.52 -4,-5.75l0 -32.16 9.22 0c1.13,0 2.05,-0.92 2.05,-2.05l0 -6.05c0,-1.13 -0.92,-2.05 -2.05,-2.05l-9.22 0 0 -10.54c0,-1.03 -0.51,-1.54 -1.64,-1.54l-0.41 0 -9.52 1.64c-1.13,0.3 -2.06,0.92 -2.06,2.04l0 8.4 -9.63 0c-1.12,0 -2.04,0.92 -2.04,2.05l0 4.62c0,1.12 0.92,1.73 2.04,2.04l9.63 1.44 0 32.16c0,13.63 4.72,16.3 16.29,16.3 2.36,0 4.51,-0.31 6.97,-0.72 1.33,-0.2 1.95,-0.82 1.95,-1.85l0 -6.45zm56.44 -24.79c0,-14.65 -8.5,-25.51 -24.48,-25.51 -15.98,0 -24.48,10.86 -24.48,25.51l0 8.3c0,14.65 8.5,25.51 24.48,25.51 15.98,0 24.48,-10.86 24.48,-25.51l0 -8.3zm-13.52 8.3c0,8.5 -3.68,13.83 -10.96,13.83 -7.27,0 -10.96,-5.33 -10.96,-13.83l0 -8.3c0,-8.5 3.69,-13.83 10.96,-13.83 7.28,0 10.96,5.33 10.96,13.83l0 8.3zm54.82 -31.76c0,-1.13 -0.93,-2.05 -2.06,-2.05 -4.09,0 -9.63,0.92 -14.65,4.92l0 -2.16c0,-1.13 -0.92,-2.05 -2.04,-2.05l-8.92 0c-1.13,0 -2.05,0.92 -2.05,2.05l0 53.58c0,1.13 0.92,2.16 2.05,2.16l9.43 0c1.13,0 2.05,-1.03 2.05,-2.16l0 -41.18c4.4,-2.36 8.5,-3.69 14.13,-3.69 1.13,0 2.06,-0.92 2.06,-2.05l0 -7.37zm78.46 47.12c0,-1.13 -0.92,-2.05 -2.04,-2.05l-18.86 0c-6.04,0 -7.99,-1.94 -7.99,-8.81l0 -53.89c0,-1.12 -0.92,-2.04 -2.04,-2.04l-10.15 0c-1.12,0 -2.04,0.92 -2.04,2.04l0 53.89c0,17.52 10.34,21.01 23.66,21.01 5.53,0 14.44,-0.62 17.42,-1.44 1.54,-0.31 2.04,-0.61 2.04,-2.15l0 -6.56zm55.94 -23.66c0,-14.65 -8.5,-25.51 -24.48,-25.51 -15.98,0 -24.49,10.86 -24.49,25.51l0 8.3c0,14.65 8.51,25.51 24.49,25.51 15.98,0 24.48,-10.86 24.48,-25.51l0 -8.3zm-13.52 8.3c0,8.5 -3.69,13.83 -10.96,13.83 -7.28,0 -10.97,-5.33 -10.97,-13.83l0 -8.3c0,-8.5 3.69,-13.83 10.97,-13.83 7.27,0 10.96,5.33 10.96,13.83l0 8.3zm75.41 -30.33c0,-1.54 -1.23,-2.77 -2.77,-2.77l-23.98 0c-17.62,0 -24.38,8.61 -24.38,18.86l0 0.71c0,5.23 1.03,8.82 4.2,11.99 -2.77,1.95 -4.1,5.12 -4.1,8.29l0 0.11c0,3.69 1.75,7.27 4.62,9.43 -3.29,2.97 -5.23,7.07 -5.23,11.26l0 0.93c0,10.76 8.71,17.01 25.41,17.01 17.52,0 25.1,-5.54 25.1,-16.09l0 -0.72c0,-10.96 -9.02,-13.11 -22.95,-16.39l-12.09 -2.87c-2.36,-0.51 -3.48,-1.33 -3.48,-3.38 0,-1.02 0.61,-1.94 1.74,-2.66 2.05,0.81 5.74,1.74 11.16,1.74 15.58,0 24.29,-5.84 24.29,-18.65l0 -0.71c0,-3.59 -0.93,-5.85 -2.56,-8.2l3.38 -1.34c1.23,-0.5 1.64,-0.71 1.64,-2.25l0 -4.3zm-15.78 17.11c0,5.02 -2.46,8.09 -10.97,8.09 -9.42,0 -11.06,-4.3 -11.06,-8.09l0 -0.82c0,-4.92 2.36,-8.71 11.06,-8.71 8.81,0 10.97,3.79 10.97,8.71l0 0.82zm1.13 42.62c0,3.69 -1.75,5.84 -11.58,5.84 -9.53,0 -12.19,-2.56 -12.19,-6.76l0 -0.93c0,-3.69 1.02,-5.02 2.56,-7.17l9.11 2.15c10.77,2.46 12.1,4 12.1,6.15l0 0.72zm71.4 -37.7c0,-14.65 -8.5,-25.51 -24.49,-25.51 -15.98,0 -24.48,10.86 -24.48,25.51l0 8.3c0,14.65 8.5,25.51 24.48,25.51 15.99,0 24.49,-10.86 24.49,-25.51l0 -8.3zm-13.52 8.3c0,8.5 -3.69,13.83 -10.97,13.83 -7.27,0 -10.96,-5.33 -10.96,-13.83l0 -8.3c0,-8.5 3.69,-13.83 10.96,-13.83 7.28,0 10.97,5.33 10.97,13.83l0 8.3z"/>
   <path class="fil1" d="M6567.24 8514.7l131.81 0c67.14,0 121.84,54.7 121.84,121.84 0,67.14 -54.7,121.85 -121.84,121.85l-264.22 0c-20.1,0 -39.09,-4.9 -55.83,-13.58 -10.9,8.77 -24.76,13.84 -39.81,13.84 -28.89,0 -57.77,0 -86.65,0 -20.12,0 -37.43,-8.41 -49.85,-24.23 -0.56,-0.71 -1.1,-1.42 -1.62,-2.14 -30.34,18.47 -65.22,28.34 -101.87,28.34 -34.14,0 -67.71,-6.84 -95.28,-23.01 -28.01,15.76 -59.79,24.02 -93.69,24.02 -34.33,0 -64.46,-10.59 -86.83,-29.54 -35.31,19.2 -74.7,29.54 -117.81,29.54 -41.06,0 -79.24,-10.36 -107.67,-32.61 -36.67,21.17 -77.71,32.61 -123.19,32.61 -62.23,0 -113.97,-23.71 -139.68,-70.03 -4.33,9.76 -8.66,19.52 -12.97,29.29 -10.38,23.47 -32.32,37.76 -57.99,37.76 -30.49,0 -60.99,0 -91.49,0 -34.91,0 -63.39,-28.47 -63.39,-63.39 0,-46.25 0,-92.5 0,-138.75 -7.02,2.64 -14.61,3.99 -22.68,3.99 -3.62,0 -7.24,-0.08 -10.86,-0.24 -5.71,6.02 -11.8,11.65 -18.29,16.81 -8.37,44.62 -27.07,87 -58.36,120.7 -37.55,40.43 -88.38,62.85 -143.64,62.85 -33.57,0 -66.59,-6.57 -93.96,-22.23 -7.14,3.96 -14.55,7.47 -22.2,10.59 -0.14,0.59 -0.29,1.18 -0.43,1.77 -21.02,85.04 -82.94,133.87 -169.86,133.87 -66.77,0 -130.65,-38.72 -130.65,-112.23 0,-14.15 2.33,-26.97 6.54,-38.59 -9.6,-7.2 -18.08,-15.67 -25.3,-25.28 -36.43,33.65 -83.23,52.1 -133.32,52.1 -34.15,0 -67.72,-6.84 -95.28,-23.01 -28.02,15.76 -59.79,24.02 -93.69,24.02 -37.84,0 -70.58,-12.87 -93.45,-35.61 -32.77,26.96 -73.64,41.15 -118.89,41.15 -22.25,0 -44.5,-4 -63.84,-12.42 -6.93,2.54 -14.42,3.9 -22.24,3.9 -28.88,0 -57.76,0 -86.64,0 -20.19,0 -37.56,-8.48 -49.98,-24.39 -12.42,-15.92 -16.42,-34.83 -11.51,-54.41 10.36,-41.35 21.05,-82.62 31.57,-123.94 -10.07,-2.37 -19.61,-5.67 -28.42,-9.93l-191.38 339.69c-0.02,0.04 -0.04,0.07 -0.06,0.1 -16.48,29.59 -46.97,47.54 -80.85,47.62 -33.87,0.08 -64.45,-17.74 -81.07,-47.25l-194.77 -345.72c-8.08,-14.34 -14.87,-44.22 -14.87,-61l0 -160.58c0,-22.36 4.54,-44.32 13.54,-64.8 8.6,-19.6 20.73,-37.25 36.15,-52.11 14.79,-14.26 32.02,-25.58 50.89,-33.7 20.57,-8.86 42.57,-13.21 64.95,-13.21l248.41 0c21.93,0 43.52,4.16 63.75,12.66 19.03,8 36.35,19.38 51.22,33.7 14.91,14.37 26.89,31.33 35.56,50.13 9.13,19.82 14.01,41.19 14.72,62.99 0.03,1.01 0.05,2.02 0.05,3.03l0 1.83c7.29,-5.58 14.85,-10.75 22.58,-15.5 54.35,-33.4 121.59,-50.12 185.11,-50.12 62.25,0 132.42,19.43 168.06,69.29 9.52,-18.61 27.46,-31.16 49.17,-33.6 29.61,-3.32 59.22,-6.7 88.83,-10.07 21.38,-2.44 40.87,5.13 55,21.36 14.12,16.24 18.93,36.59 13.57,57.43 -4.16,16.12 -8.31,32.25 -12.45,48.38 33.5,-20.55 72.47,-31.3 114.95,-31.3 53.1,0 93.22,20.89 116.69,56.5 36.91,-34.4 84.04,-54.48 137.54,-54.48 13.16,0 26.44,1.5 39.03,4.64 5.28,-1.39 10.83,-2.12 16.55,-2.12 28.88,0 57.77,0 86.65,0 20.24,0 37.66,8.53 50.07,24.52 1.05,1.35 2.04,2.72 2.97,4.11 34.03,-21.79 74.03,-33.17 117.69,-33.17 19.63,0 37.71,2.89 53.91,8.46 18.22,-33.45 48.94,-60.68 81.39,-80.34 51.6,-31.26 115.75,-49.61 176.22,-49.61 9.39,0 18.7,0.54 28.06,1.15 33.03,2.15 58.71,29.11 59.26,62.21 0.01,0.63 0.02,1.27 0.03,1.9 3.21,-7.8 6.42,-15.6 9.62,-23.4 9.97,-24.3 32.39,-39.33 58.65,-39.33 14.06,0 28.12,0 42.18,0 22.12,0 41.14,10.33 53.18,28.88 12.04,18.56 13.72,40.13 4.71,60.33 -6.16,13.82 -12.33,27.63 -18.51,41.43 22.6,-7.71 46.96,-11.68 72.64,-11.68 42.47,0 80.54,13 104.23,39.68 35.7,-26.02 78.7,-39.68 126.06,-39.68 23.89,0 46.82,4.16 66.6,12.7 0.07,-0.04 0.15,-0.08 0.22,-0.12 2.58,-10.02 5.17,-20.03 7.76,-30.05 6.7,-25.97 27.65,-44.16 54.3,-47.16 29.61,-3.32 59.22,-6.7 88.82,-10.07 21.38,-2.43 40.87,5.14 55,21.37 14.12,16.23 18.93,36.58 13.57,57.41 -1.37,5.31 -2.73,10.61 -4.09,15.91 2.1,1.88 4.12,3.92 6.02,6.12 31.42,-17.16 67.24,-26.11 105.98,-26.11 39.72,0 72.17,11.68 95.82,32.47 11.44,-17.22 30.79,-27.93 52.68,-27.93 28.88,0 57.76,0 86.64,0 9.36,0 18.12,1.83 26.05,5.37 12.11,-3.43 24.94,-5.37 38.94,-5.37 57.7,0 105,42.83 105,101.25 0,12.05 -2.04,23.34 -5.78,33.68z"/>
   <g>
    <path class="fil2" d="M3383.32 8584.01l48.64 -112.93 -103.36 1.25 54.72 111.68zm23.73 270.85l-0.03 0.05c-5.32,9.55 -14.69,15.07 -25.62,15.09 -10.94,0.03 -20.33,-5.45 -25.7,-14.98l-194.77 -345.71c-2.41,-4.29 -6.71,-24.57 -6.71,-29.89l0 -160.58c0,-13.6 2.71,-26.86 8.18,-39.31 5.29,-12.04 12.64,-22.83 22.11,-31.96 9.31,-8.97 20.11,-16.01 31.97,-21.12 12.65,-5.45 26.11,-8.03 39.88,-8.03l248.41 0c13.5,0 26.72,2.46 39.18,7.7 11.84,4.98 22.55,11.99 31.8,20.91 9.24,8.9 16.6,19.36 21.97,31.01 5.6,12.14 8.5,25.17 8.94,38.52 0.01,0.34 0.02,0.63 0.02,0.97l0 50.4c0,9.69 -1.91,19.24 -5.81,28.12 -2.15,4.89 -4.78,9.47 -7.89,13.72 3.07,4.17 5.68,8.68 7.82,13.47 3.96,8.87 5.88,18.4 5.88,28.12l0 28.06c0,7.74 -1.47,23.71 -4.95,29.89l-194.68 345.55z"/>
    <path class="fil3" d="M3302.82 8494.91l-116.26 0 -2.92 -176.07c-0.16,-9.65 1.9,-18.84 5.7,-27.47 3.79,-8.65 8.94,-16.21 15.59,-22.62 6.64,-6.41 14.39,-11.5 23.18,-15.28 8.79,-3.78 18.2,-5.63 28.26,-5.63l46.45 0 0 77.33 0 53.71 0 62.06 0 53.97z"/>
    <polygon class="fil4" points="3302.82,8325.17 3302.82,8378.88 3302.82,8325.17 3302.82,8247.84 "/>
    <path class="fil4" d="M3577.26 8367.92c0,5.72 -1.11,11.2 -3.33,16.29 -2.29,5.17 -5.3,9.57 -9.18,13.35 -3.87,3.78 -8.38,6.8 -13.53,8.96 -5.22,2.16 -10.68,3.23 -16.54,3.23 5.86,0 11.32,1.17 16.54,3.33 5.15,2.16 9.66,5.17 13.53,8.95 3.88,3.71 6.89,8.1 9.18,13.2 2.22,5.01 3.47,10.43 3.33,16.13l-1.16 43.51 -116.26 0c0.93,-2.47 1.75,-18.46 2.52,-23.37l1.16 -7.41c0.5,-3.2 -0.61,-6.27 -1.83,-9.11 -1.23,-2.86 -3.02,-5.3 -5.13,-7.33 -2.16,-2.06 -4.66,-3.75 -7.6,-4.94 -2.99,-1.2 -6.1,-1.77 -9.34,-1.77l-135.84 0 -0.96 0 0 -62.06 0.74 0 136.06 0c3.24,0 6.35,-0.57 9.34,-1.77 2.94,-1.18 5.44,-2.88 7.6,-4.94 2.11,-2.02 3.9,-4.46 5.13,-7.33 1.22,-2.84 1.83,-5.86 1.83,-9.11l0 -7.25c0,-3.17 -0.61,-6.19 -1.83,-9.03 -1.23,-2.87 -3,-5.41 -5.13,-7.49 -2.14,-2.08 -4.66,-3.83 -7.6,-5.02 -2.99,-1.2 -6.1,-1.77 -9.34,-1.77l-136.27 0 -0.53 0 0 -77.33 0.25 0 201.7 0c9.89,0 19.15,1.77 27.78,5.4 8.62,3.62 16.22,8.64 22.79,14.97 6.57,6.33 11.79,13.74 15.67,22.15 3.87,8.41 5.93,17.52 6.25,27.17l0 50.39z"/>
    <polygon class="fil5" points="3381.4,8840.45 3381.33,8840.58 3186.57,8494.87 3302.82,8494.87 3384.32,8648.75 "/>
    <polygon class="fil6" points="3459.84,8494.87 3576.1,8494.87 3381.72,8839.89 3381.4,8840.45 3384.32,8648.75 3384.32,8648.75 3385.21,8646.94 "/>
    <path class="fil7" d="M4534.73 8765.33c0,-20.16 28.22,-33.32 59,-42.85 -1.42,4.89 -2.43,9.77 -3.7,14.57 -7.86,29.78 -22.23,44.92 -35.06,44.92 -13.11,0 -20.24,-9.58 -20.24,-16.64zm93.2 -293.43c19.1,0 23.94,13.1 24.52,18.65 -10.26,39.82 -19.34,79.96 -30.5,119.47 -7.37,26.07 -31.92,39.32 -48.17,39.32 -10.83,0 -30.21,-0.5 -30.21,-39.32 0,-23.64 8.27,-58.22 22.8,-86.81 14.53,-28.57 35.91,-51.31 61.56,-51.31zm-317.8 180.01c-22.79,0 -30.49,-7.56 -30.49,-40.83 0,-24.7 9.41,-60.15 23.94,-89.38 14.53,-29.24 34.49,-52.32 55.86,-52.32 15.68,0 21.67,8.06 23.09,29.23 -10.83,4.03 -18.81,13.11 -18.81,27.22 0,10.09 3.7,18.71 16.24,21.18 -9.68,59.53 -40.18,104.9 -69.83,104.9 0,0 0,0 0,0zm2006.26 -208.75c-5.7,22.49 -11.4,44.97 -17.1,67.4 -16.82,5.85 -33.92,9.78 -47.89,9.78 -1.71,0 -4.27,0 -6.56,-1.06 0,-52.93 -25.36,-80.66 -76.95,-80.66 -62.13,0 -103.46,30.3 -129.11,67.76 -25.65,37.45 -35.91,82.21 -35.91,111.2 0,1.41 0,2.72 0.28,4.08 -11.11,16.54 -27.93,27.68 -45.89,27.68 -16.81,0 -24.8,-4.54 -24.8,-18.6 0,-4.54 0.85,-9.56 2.57,-16.18 6.54,-25.14 12.83,-50.41 19.1,-75.62 6.27,-25.2 12.83,-50.41 19.38,-75.61 11.97,0 23.94,0 35.91,0 1.43,-6.71 3.14,-13.41 4.85,-20.17 -11.98,0 -23.95,0 -35.91,0 6.55,-26.51 13.39,-53.08 20.23,-79.64 -29.64,3.37 -59.29,6.75 -88.93,10.08 -5.98,23.18 -11.97,46.37 -17.95,69.56 -6.84,0 -13.4,0 -19.96,0 -1.7,6.76 -3.42,13.46 -4.84,20.17 6.56,0 13.11,0 19.95,0 -6.27,23.64 -12.25,47.28 -18.24,70.87 -5.99,23.59 -11.97,47.24 -17.95,70.83 -29.93,28.73 -59,50.86 -106.32,50.86 -29.07,0 -43.32,-8.07 -43.32,-42.29 0,-27.98 9.98,-65.03 24.23,-95.08 14.25,-30.03 33.63,-53.18 52.72,-53.18 11.4,0 16.82,8.12 16.82,20.67 0,8.62 -2.56,18.65 -7.12,29.79 0,0 0,0 0,0 7.12,3.99 14.25,6.05 20.8,6.05 17.68,0 31.92,-12.09 31.92,-36.85 0,-23.19 -13.11,-46.38 -66.69,-46.38 -59.28,0 -99.19,28.39 -124.27,64.22 -25.08,35.85 -36.19,79.25 -37.34,109.39 -27.64,25.11 -55.29,43.66 -98.9,43.66 -28.78,0 -43.32,-8.07 -43.32,-42.29 0,-6.1 0.57,-13.16 1.14,-20.21 72.4,-3.48 138.52,-48.4 138.52,-106.32 0,-25.26 -12.83,-48.45 -66.12,-48.45 -61.86,0 -102.62,30.4 -127.69,68.01 -25.08,37.6 -34.78,82.47 -34.78,111.45 0,56.97 37.34,80.16 93.77,80.16 61.57,0 105.75,-27.63 138.81,-61.46 7.41,43.41 42.18,61.46 92.06,61.46 62.42,0 107.45,-28.49 140.23,-63.07 0,0.86 0,1.71 0,2.57 0,42.35 28.5,60.5 64.41,60.5 24.8,0 65.56,-6.46 98.9,-46.43 13.12,32.31 47.04,45.42 90.07,45.42 37.06,0 70.69,-14.62 96.05,-40.89 25.37,-26.26 42.76,-64.22 47.6,-110.84 17.96,-2.43 35.06,-6.36 50.45,-11.55 -6.84,26.92 -13.97,53.84 -20.52,80.71 -6.56,26.86 -13.68,53.73 -20.24,80.6 28.79,0 57.58,0 86.65,0 7.98,-31.91 15.96,-63.87 23.94,-95.78 7.98,-31.9 15.96,-63.87 24.23,-95.82 15.1,-11.6 25.93,-19.16 43.89,-19.16 17.96,0 1.14,33.27 35.06,33.27 29.36,0 43.32,-19.16 43.32,-36.75 0,-19.21 -14.54,-37.86 -41.61,-37.86 -28.79,0 -51.88,16.13 -72.97,31.26 2.57,-10.39 5.13,-20.82 7.98,-31.26 -29.07,0 -57.86,0 -86.64,0zm-193.25 208.75c-22.8,0 -30.5,-7.56 -30.5,-40.83 0,-24.7 9.42,-60.14 23.95,-89.38 14.53,-29.23 34.48,-52.32 55.86,-52.32 15.68,0 21.66,8.06 23.09,29.23 -10.83,4.03 -18.81,13.11 -18.81,27.22 0,10.09 3.7,18.71 16.24,21.18 -9.69,59.53 -40.18,104.9 -69.83,104.9 0,0 0,0 0,0zm-560.06 -165.9c0,41.89 -40.76,80.66 -87.22,83.18 11.98,-49.91 41.61,-103.85 72.11,-103.85 11.69,0 15.11,8.12 15.11,20.67zm-683.76 165.9c-22.8,0 -30.49,-7.56 -30.49,-40.83 0,-24.7 8.83,-60.14 22.79,-89.38 13.97,-29.24 33.92,-52.32 55.3,-52.32 15.11,0 21.66,7.56 22.8,28.73 -10.26,4.08 -16.82,12.6 -16.82,26.21 0,12.66 4.85,19.71 14.54,22.69 -9.12,59.53 -38.48,104.9 -68.12,104.9zm378.22 -333.76c-7.69,-0.51 -15.67,-1.02 -23.94,-1.02 -50.45,0 -103.18,16.09 -143.37,40.43 -40.18,24.35 -67.83,57.12 -67.83,90.64 0,15.13 3.7,26.11 11.4,33.78 -7.98,10.13 -19.95,22.18 -35.34,24.75 -3.71,-44.92 -28.79,-68.11 -76.39,-68.11 -62.13,0 -103.18,30.3 -128.26,67.76 -25.08,37.45 -34.77,82.21 -34.77,111.2 0,2.07 0,4.04 0.29,6 -15.96,30.45 -36.77,44.16 -67.55,53.48 9.69,-38.96 19.96,-77.93 29.64,-116.9 9.69,-38.96 19.95,-77.98 29.93,-117 -29.07,0 -57.86,0 -86.65,0 -2.28,8.77 -4.56,17.5 -6.84,26.22 0,-1.02 0,-2.02 0,-3.03 0,-14.62 -14.25,-25.71 -48.74,-25.71 -55.29,0 -95.48,30.45 -120.85,69.22 -17.38,6.25 -35.34,10.48 -49.88,10.48 -1.7,0 -4.27,0 -6.55,-1.06 0,-52.93 -25.36,-80.66 -76.95,-80.66 -62.14,0 -103.47,30.3 -129.12,67.76 -25.65,37.45 -35.91,82.21 -35.91,111.2 0,1.41 0,2.72 0.28,4.08 -11.11,16.54 -27.93,27.68 -45.88,27.68 -16.82,0 -24.8,-4.54 -24.8,-18.6 0,-4.54 0.85,-9.56 2.56,-16.18 11.69,-45.3 22.81,-90.74 34.21,-136.11 11.4,-45.37 23.08,-90.74 34.77,-136.11 -29.64,3.38 -59.29,6.76 -88.93,10.09 -10.83,42.14 -21.95,84.23 -32.49,126.32 -10.54,42.09 -21.51,84.15 -31.92,126.28 -2.98,12.06 -4.85,23.14 -4.85,32.71 0,42.35 28.51,60.5 64.42,60.5 24.79,0 65.55,-6.46 98.9,-46.43 13.11,32.31 47.03,45.42 90.06,45.42 37.06,0 70.69,-14.63 96.05,-40.89 25.37,-26.26 42.76,-64.22 47.6,-110.84 15.4,-2.07 30.22,-5.3 43.9,-9.43 -12.83,27.67 -19.1,56.86 -19.1,81.05 0,59.94 39.05,81.12 80.09,81.12 31.07,0 54.72,-12.1 72.11,-27.73 -2.57,8.92 -4.85,17.84 -7.12,26.72 -45.32,11.64 -98.05,32.82 -98.05,75.16 0,32.71 30.5,48.84 67.26,48.84 39.62,0 90.49,-13.57 108.31,-85.69 2.98,-12.06 5.98,-24.2 9.12,-36.3 25.94,-5.94 55.87,-16.98 79.52,-45.57 13.97,30.96 47.32,43.56 89.5,43.56 37.91,0 71.83,-15.28 97.19,-42.6 25.37,-27.31 42.18,-66.79 45.89,-115.18 23.08,-10.54 39.04,-29.85 50.45,-47.89 9.97,3.88 22.51,5.54 37.62,5.54 -0.57,-4.53 -8.27,-8.52 -8.27,-34.28 0,-55.45 28.79,-94.77 94.34,-111.91 0,57.42 0,114.84 0,172.2 0,57.37 0,114.78 0,172.15 30.5,0 61,0 91.49,0 27.66,-62.56 55.87,-125.21 83.52,-187.77 27.64,-62.55 55.86,-125.22 83.79,-187.83 -14.25,0 -28.21,0 -42.18,0 -21.09,51.41 -42.48,102.84 -63.28,154.25 -20.8,51.42 -42.17,102.84 -62.99,154.26 -1.14,-51.67 -1.99,-103.34 -2.84,-155.01 -0.86,-51.67 -1.72,-103.34 -2.57,-155.01zm-1463.57 56.45c-13.68,53.49 -27.65,106.92 -41.05,160.36 -13.39,53.43 -27.36,106.87 -40.75,160.3 28.78,0 57.57,0 86.64,0 7.99,-32.16 16.53,-64.33 24.51,-96.48 7.98,-32.16 16.53,-64.37 24.8,-96.59 10.83,-1.06 23.09,-1.51 27.65,-1.51 43.89,0 57.29,28.74 57.29,63.97 0,38.31 -15.68,90.74 -59.57,90.74 -13.97,0 -25.37,-5.04 -40.19,-18.15 -5.41,11.6 -7.98,21.17 -7.98,29.24 0,30.75 33.63,37.3 59.57,37.3 50.16,0 83.22,-24.2 103.46,-54.44 20.23,-30.25 28.22,-66.54 28.22,-90.74 0,-37.81 -19.67,-72.59 -70.97,-81.16 39.05,-18.65 60.13,-50.41 60.13,-80.15 0,-41.34 -39.61,-80.16 -127.97,-80.16 -57,0 -111.73,16.04 -151.91,40.74 -40.19,24.69 -66.41,58.07 -66.41,92.86 0,33.77 24.51,46.37 64.13,46.37 -0.57,-4.53 -8.27,-8.52 -8.27,-34.28 0,-83.17 80.09,-122.49 150.49,-122.49 57.01,0 79.24,25.71 79.24,54.44 0,37.81 -38.48,81.66 -86.65,81.66 -1.14,0 -2.28,0 -3.42,0 9.41,-37.3 18.81,-74.6 28.22,-111.91 -29.93,3.38 -59.57,6.76 -89.21,10.08z"/>
    <path class="fil2" d="M6430.26 8671.72c-1.17,0.92 -2.63,1.55 -4.38,1.88 -1.76,0.34 -3.8,0.5 -6.14,0.5 -5.43,0 -8.89,-0.96 -10.39,-2.88 -0.93,-1.08 -1.38,-2.8 -1.38,-5.14 0,-2.92 0.5,-5.65 1.5,-8.2 1,-2.55 2.42,-4.4 4.26,-5.58 2.17,-1.33 5.6,-2 10.27,-2 5.09,0 8.35,0.84 9.77,2.51 1.17,1.16 1.75,3 1.75,5.51 0,2.59 -0.43,5.13 -1.31,7.64 -0.88,2.51 -2.19,4.42 -3.95,5.76zm70.9 -53.49c-2.67,0 -5.09,0.26 -7.26,0.76 -2.17,0.5 -4.01,1.33 -5.51,2.5 -1.42,1.08 -2.7,2.59 -3.83,4.51 -1.12,1.92 -2.08,4.01 -2.88,6.26 -0.79,2.26 -1.4,4.56 -1.81,6.89 -0.42,2.34 -0.63,4.47 -0.63,6.39 0,3.34 0.84,5.85 2.51,7.52 1.83,1.84 5.22,2.75 10.14,2.75 3.26,0 6.56,-0.24 9.9,-0.75 3.34,-0.5 6.22,-1 8.64,-1.5l-4.13 16.78c-2.92,0.93 -6.26,1.72 -10.02,2.38 -3.76,0.67 -8.02,1.01 -12.78,1.01 -5.01,0 -9.29,-0.48 -12.84,-1.44 -3.55,-0.97 -6.57,-2.57 -9.08,-4.83 -2.09,-1.92 -3.7,-4.36 -4.82,-7.32 -1.13,-2.97 -1.69,-6.46 -1.69,-10.47 0,-3.83 0.35,-7.82 1.06,-11.96 0.71,-4.13 1.82,-8.14 3.32,-12.02 1.5,-3.88 3.38,-7.48 5.64,-10.78 2.25,-3.29 4.92,-6.03 8.02,-8.2 3.17,-2.17 6.7,-3.74 10.58,-4.7 3.88,-0.96 8.2,-1.44 12.96,-1.44 5.6,0 10.23,0.27 13.9,0.82 3.68,0.54 6.81,1.11 9.4,1.69l-2.75 16.66c-2.34,-0.42 -4.76,-0.78 -7.27,-1.07 -2.5,-0.29 -5.42,-0.44 -8.77,-0.44zm96.83 7.52c0,3.76 -0.38,7.66 -1.13,11.71 -0.75,4.05 -1.88,7.96 -3.38,11.72 -1.5,3.76 -3.34,7.2 -5.51,10.33 -2.17,3.13 -4.68,5.7 -7.52,7.7 -3.51,2.43 -7.43,4.11 -11.77,5.08 -4.34,0.96 -9.4,1.44 -15.16,1.44 -6.68,0 -12.03,-0.76 -16.04,-2.26 -4,-1.5 -7.09,-3.47 -9.26,-5.88 -1.67,-1.93 -2.97,-4.32 -3.88,-7.21 -0.93,-2.88 -1.38,-6.32 -1.38,-10.33 0,-3.43 0.31,-7.04 0.94,-10.84 0.62,-3.8 1.62,-7.51 3,-11.15 1.38,-3.63 3.11,-7.03 5.2,-10.2 2.09,-3.18 4.59,-5.89 7.52,-8.15 3.25,-2.42 7.1,-4.25 11.52,-5.51 4.43,-1.25 9.73,-1.88 15.91,-1.88 7.18,0.09 12.76,0.92 16.72,2.51 3.97,1.58 6.91,3.46 8.83,5.64 1.51,1.75 2.78,4.03 3.82,6.82 1.05,2.8 1.57,6.28 1.57,10.46zm-31.82 27.56c1.17,-1.01 2.28,-2.51 3.32,-4.51 1.04,-2 1.97,-4.22 2.76,-6.64 0.79,-2.42 1.42,-4.91 1.88,-7.45 0.45,-2.55 0.69,-4.91 0.69,-7.08 0,-1.67 -0.13,-3.01 -0.38,-4.01 -0.25,-1 -0.67,-1.84 -1.26,-2.5 -1.5,-1.92 -4.3,-2.89 -8.38,-2.89 -2.51,0 -4.56,0.28 -6.14,0.82 -1.59,0.54 -2.97,1.27 -4.14,2.19 -1.25,1 -2.42,2.51 -3.5,4.51 -1.09,2.01 -2.01,4.19 -2.76,6.58 -0.75,2.38 -1.34,4.82 -1.76,7.32 -0.41,2.51 -0.62,4.81 -0.62,6.9 0,3.08 0.5,5.26 1.5,6.51 0.84,1 1.97,1.77 3.39,2.31 1.41,0.55 3.29,0.82 5.63,0.82 4.35,0 7.6,-0.96 9.77,-2.88zm80.8 19.16l8.64 -40.21c0.67,-3.17 1.01,-5.63 1.01,-7.38 0,-1.34 -0.25,-2.47 -0.76,-3.39 -0.67,-0.75 -1.52,-1.27 -2.56,-1.57 -1.05,-0.29 -2.16,-0.43 -3.32,-0.43 -2.26,0 -4.41,0.31 -6.46,0.94 -2.04,0.62 -3.9,1.27 -5.57,1.94l-10.65 50.1 -23.92 0 14.91 -70.27 18.78 0 1.76 12.78 0.87 0 8.39 -10.15c1.76,-0.83 3.97,-1.61 6.64,-2.32 2.68,-0.7 5.89,-1.06 9.65,-1.06 4.76,0 8.65,1.02 11.65,3.07 3.01,2.04 4.84,5.53 5.51,10.46l1 0 8.9 -10.15c1.75,-0.83 3.94,-1.61 6.57,-2.32 2.63,-0.7 5.83,-1.06 9.59,-1.06 3.51,0 6.53,0.44 9.08,1.32 2.54,0.87 4.53,2.23 5.95,4.07 0.92,1.25 1.6,2.67 2.07,4.26 0.46,1.58 0.68,3.46 0.68,5.63 0,1.67 -0.14,3.72 -0.44,6.14 -0.29,2.42 -0.76,5.22 -1.43,8.39l-8.9 41.21 -23.92 0 8.51 -40.21c0.76,-3 1.13,-5.46 1.13,-7.38 0,-1.34 -0.25,-2.47 -0.75,-3.39 -0.67,-0.75 -1.54,-1.27 -2.63,-1.57 -1.09,-0.29 -2.21,-0.43 -3.38,-0.43 -2.01,0 -4.08,0.31 -6.2,0.94 -2.13,0.62 -4.12,1.27 -5.95,1.94l-10.4 50.1 -24.05 0zm-212.14 -94.38l264.22 0c32.15,0 58.45,26.3 58.45,58.45l0 0.01c0,32.15 -26.3,58.45 -58.45,58.45l-264.22 0c-32.15,0 -58.45,-26.3 -58.45,-58.45l0 -0.01c0,-32.15 26.3,-58.45 58.45,-58.45z"/>
   </g>
   <path class="fil0" d="M3087.11 9295.23l-49.42 0 -52.69 -179.96 39.16 0 40.57 139.22 43.36 -139.22 40.57 0 46.62 139.22 40.1 -139.22 39.16 0 -53.15 179.96 -49.42 0 -43.83 -127.53 -41.03 127.53zm304.92 0l-49.41 0 -52.69 -179.96 39.16 0 40.57 139.22 43.36 -139.22 40.56 0 46.63 139.22 40.1 -139.22 39.16 0 -53.16 179.96 -49.41 0 -43.84 -127.53 -41.03 127.53zm304.93 0l-49.42 0 -52.69 -179.96 39.17 0 40.56 139.22 43.36 -139.22 40.57 0 46.63 139.22 40.1 -139.22 39.16 0 -53.16 179.96 -49.42 0 -43.83 -127.53 -41.03 127.53zm188.37 0l0 -35.78 40.56 0 0 35.78 -40.56 0zm82.53 0l0 -249.04 39.63 0 0 84.66c11.19,-12.04 29.06,-18.06 53.62,-18.06l24.71 0c18.65,0 34.19,4.96 46.62,14.88 12.44,9.92 18.65,21.84 18.65,35.78l0 75.1c0,16.53 -7.22,30.53 -21.67,41.98 -14.46,11.46 -32.25,17.18 -53.39,17.18l-23.31 0c-22.38,0 -37.77,-4.36 -46.17,-13.1l0 10.62 -38.69 0zm88.12 -155.16c-13.05,0 -24.02,3.78 -32.87,11.33 -8.85,7.56 -13.6,16.18 -14.22,25.86l0 66.96c0,7.79 3.89,14.17 11.66,19.13 7.76,4.96 17.25,7.44 28.44,7.44l19.58 0c13.37,0 23.7,-3.72 31.01,-11.16 7.3,-7.44 10.95,-16.35 10.95,-26.75l0 -59.51c0,-9.45 -3.18,-17.36 -9.55,-23.74 -6.38,-6.37 -15.31,-9.56 -26.82,-9.56l-18.18 0zm138.02 155.16l0 -249.04 41.03 0 0 249.04 -41.03 0zm161.78 -182.44l31.24 0c21.76,0 40.17,5.9 55.25,17.71 15.08,11.81 22.62,26.1 22.62,42.87l0 63.77c0,16.76 -7.54,31.05 -22.62,42.86 -15.08,11.81 -33.49,17.71 -55.25,17.71l-31.24 0c-21.76,0 -40.17,-5.9 -55.25,-17.71 -15.08,-11.81 -22.61,-26.1 -22.61,-42.86l0 -63.77c0,-16.77 7.53,-31.06 22.61,-42.87 15.08,-11.81 33.49,-17.71 55.25,-17.71zm5.6 158l20.05 0c13.05,0 23.47,-3.6 31.23,-10.81 7.77,-7.2 11.66,-15.99 11.66,-26.39l0 -56.33c0,-10.39 -3.89,-19.18 -11.66,-26.39 -7.76,-7.2 -18.18,-10.8 -31.23,-10.8l-20.05 0c-13.06,0 -23.47,3.6 -31.24,10.8 -7.77,7.21 -11.66,16 -11.66,26.39l0 56.33c0,10.4 3.89,19.19 11.66,26.39 7.77,7.21 18.18,10.81 31.24,10.81zm337.09 -129.3l-23.77 0c-1.87,0 -4.67,0.23 -8.4,0.7 4.98,7.56 7.46,15.47 7.46,23.74l0 18.77c0,14.65 -6.52,27.17 -19.58,37.56 -13.05,10.39 -29.68,15.59 -49.89,15.59l-35.43 0c-8.39,0 -15.7,-0.83 -21.91,-2.49 -1.25,3.08 -1.87,7.33 -1.87,12.76l0 2.48c0,11.34 8.85,17 26.57,17l59.69 0c18.64,0 34.03,4.43 46.15,13.29 12.13,8.85 18.19,19.77 18.19,32.77l0 5.67c0,14.88 -6.61,26.68 -19.81,35.42 -13.21,8.74 -33.19,13.11 -59.92,13.11l-59.22 0c-21.76,0 -38.54,-4.43 -50.35,-13.28 -11.81,-8.86 -17.72,-18.6 -17.72,-29.24l0 -11.33c0,-8.74 2.72,-16.35 8.16,-22.85 5.44,-6.49 12.83,-11.28 22.14,-14.35 -6.21,-6.85 -9.31,-13.93 -9.31,-21.25l0 -6.03c0,-12.98 2.79,-22.32 8.39,-27.98 -12.13,-9.92 -18.19,-22.09 -18.19,-36.49l0 -19.13c0,-14.65 6.61,-27.16 19.82,-37.56 13.21,-10.38 29.92,-15.58 50.12,-15.58l35.9 0c13.37,0 25.49,2.83 36.37,8.5 8.4,-3.78 17.41,-5.67 27.04,-5.67l29.37 0 0 25.87zm-121.69 -3.9c-11.49,0 -20.67,2.95 -27.5,8.85 -6.85,5.91 -10.26,13.35 -10.26,22.32l0 13.11c0,9.45 3.57,17 10.73,22.67 7.14,5.67 16.15,8.51 27.03,8.51l19.59 0c11.81,0 21.06,-2.9 27.74,-8.68 6.68,-5.79 10.02,-13.29 10.02,-22.5l0 -13.11c0,-8.97 -3.42,-16.41 -10.25,-22.32 -6.84,-5.9 -16.01,-8.85 -27.51,-8.85l-19.59 0zm-14.92 204.05l49.89 0c29.22,0 43.83,-7.91 43.83,-23.73l0 -2.83c0,-5.67 -3.03,-10.52 -9.09,-14.53 -6.07,-4.02 -13.6,-6.02 -22.61,-6.02l-68.08 0c-18.34,0.7 -27.51,7.79 -27.51,21.25l0 3.9c0,5.66 2.8,10.74 8.4,15.23 5.59,4.49 13.98,6.73 25.17,6.73zm229.86 -228.85l31.25 0c21.75,0 40.17,5.9 55.24,17.71 15.08,11.81 22.62,26.1 22.62,42.87l0 63.77c0,16.76 -7.54,31.05 -22.62,42.86 -15.07,11.81 -33.49,17.71 -55.24,17.71l-31.25 0c-21.76,0 -40.17,-5.9 -55.25,-17.71 -15.07,-11.81 -22.61,-26.1 -22.61,-42.86l0 -63.77c0,-16.77 7.54,-31.06 22.61,-42.87 15.08,-11.81 33.49,-17.71 55.25,-17.71zm5.61 158l20.04 0c13.06,0 23.47,-3.6 31.24,-10.81 7.77,-7.2 11.65,-15.99 11.65,-26.39l0 -56.33c0,-10.39 -3.88,-19.18 -11.65,-26.39 -7.77,-7.2 -18.18,-10.8 -31.24,-10.8l-20.04 0c-13.06,0 -23.47,3.6 -31.25,10.8 -7.77,7.21 -11.66,16 -11.66,26.39l0 56.33c0,10.4 3.89,19.19 11.66,26.39 7.78,7.21 18.19,10.81 31.25,10.81zm244.78 24.44l-58.29 0 -68.07 -179.96 41.03 0 56.42 149.5 56.42 -149.5 41.03 0 -68.54 179.96zm225.67 -69.08l39.16 0 0 10.28c0,17.47 -7.3,32.06 -21.91,43.75 -14.61,11.69 -32.95,17.53 -55.01,17.53l-27.52 0c-21.76,0 -40.02,-5.78 -54.78,-17.36 -14.77,-11.57 -22.15,-25.98 -22.15,-43.21l0 -64.48c0,-16.53 7.77,-30.65 23.31,-42.33 15.54,-11.7 34.35,-17.54 56.42,-17.54l24.72 0c21.75,0 40.01,5.79 54.78,17.35 14.76,11.58 22.14,25.75 22.14,42.52l0 27.63 -142.67 0 0 35.07c0,10.16 3.96,18.9 11.89,26.22 7.92,7.32 18.57,10.98 31.94,10.98l17.72 0c13.05,0 23.31,-3.66 30.77,-10.98 7.46,-7.32 11.19,-16.3 11.19,-26.92l0 -8.51zm-103.51 -52.07l0 2.83 103.98 0 0 -2.83c0,-10.16 -3.66,-18.66 -10.97,-25.51 -7.3,-6.85 -17.63,-10.27 -31,-10.27l-19.58 0c-13.36,0 -23.78,3.42 -31.24,10.27 -7.46,6.85 -11.19,15.35 -11.19,25.51zm320.31 48.88l40.1 0 0 14.18c0,16.76 -7.46,31.05 -22.37,42.86 -14.93,11.81 -33.27,17.71 -55.02,17.71l-29.38 0c-21.76,0 -40.18,-5.9 -55.25,-17.71 -15.08,-11.81 -22.61,-26.1 -22.61,-42.86l0 -63.77c0,-16.77 7.53,-31.06 22.61,-42.87 15.07,-11.81 33.49,-17.71 55.25,-17.71l29.38 0c21.75,0 40.09,5.9 55.02,17.71 14.91,11.81 22.37,26.1 22.37,42.87l0 14.52 -40.1 0 0 -10.63c0,-10.39 -3.72,-19.18 -11.18,-26.39 -7.46,-7.2 -17.72,-10.8 -30.78,-10.8l-20.04 0c-13.06,0 -23.32,3.6 -30.78,10.8 -7.46,7.21 -11.19,16 -11.19,26.39l0 56.33c0,10.4 3.88,19.19 11.66,26.39 7.77,7.21 18.18,10.81 31.24,10.81l19.11 0c13.06,0 23.32,-3.6 30.78,-10.81 7.46,-7.2 11.18,-15.99 11.18,-26.39l0 -10.63zm59.22 -80.77l0 -26.92 29.38 0 0 -30.82 40.1 0 0 30.82 106.77 0 0 26.92 -106.77 0 0 103.45c0,7.32 2.72,13.4 8.15,18.24 5.45,4.84 12.83,7.26 22.15,7.26l8.86 0c11.19,0 19.35,-2.47 24.48,-7.43 5.13,-4.96 7.69,-11.23 7.69,-18.78l0 -12.4 37.77 0 0 17.71c0,12.99 -5.98,24.15 -17.95,33.48 -11.97,9.33 -26.66,13.99 -44.06,13.99l-26.11 0c-17.41,0 -31.94,-4.54 -43.6,-13.64 -11.65,-9.09 -17.48,-19.89 -17.48,-32.41l0 -109.47 -29.38 0zm279.75 -29.4l31.25 0c21.76,0 40.17,5.9 55.25,17.71 15.07,11.81 22.61,26.1 22.61,42.87l0 63.77c0,16.76 -7.54,31.05 -22.61,42.86 -15.08,11.81 -33.49,17.71 -55.25,17.71l-31.25 0c-21.75,0 -40.17,-5.9 -55.24,-17.71 -15.08,-11.81 -22.62,-26.1 -22.62,-42.86l0 -63.77c0,-16.77 7.54,-31.06 22.62,-42.87 15.07,-11.81 33.49,-17.71 55.24,-17.71zm5.6 158l20.05 0c13.05,0 23.47,-3.6 31.24,-10.81 7.77,-7.2 11.66,-15.99 11.66,-26.39l0 -56.33c0,-10.39 -3.89,-19.18 -11.66,-26.39 -7.77,-7.2 -18.19,-10.8 -31.24,-10.8l-20.05 0c-13.06,0 -23.47,3.6 -31.24,10.8 -7.77,7.21 -11.65,16 -11.65,26.39l0 56.33c0,10.4 3.88,19.19 11.65,26.39 7.77,7.21 18.18,10.81 31.24,10.81zm146.4 24.44l0 -179.96 39.17 0 0 24.09c5.29,-8.03 13.44,-14.06 24.48,-18.07 11.03,-4.01 22.14,-6.02 33.34,-6.02l19.11 0 0 27.99 -18.65 0c-16.79,0 -30.22,4.31 -40.33,12.93 -10.1,8.61 -15.46,19.18 -16.09,31.7l0 107.34 -41.03 0zm129.62 0l0 -35.78 40.57 0 0 35.78 -40.57 0zm214.95 -72.27l40.1 0 0 14.18c0,16.76 -7.46,31.05 -22.38,42.86 -14.92,11.81 -33.26,17.71 -55.02,17.71l-29.38 0c-21.75,0 -40.17,-5.9 -55.25,-17.71 -15.07,-11.81 -22.61,-26.1 -22.61,-42.86l0 -63.77c0,-16.77 7.54,-31.06 22.61,-42.87 15.08,-11.81 33.5,-17.71 55.25,-17.71l29.38 0c21.76,0 40.1,5.9 55.02,17.71 14.92,11.81 22.38,26.1 22.38,42.87l0 14.52 -40.1 0 0 -10.63c0,-10.39 -3.73,-19.18 -11.19,-26.39 -7.46,-7.2 -17.72,-10.8 -30.77,-10.8l-20.05 0c-13.06,0 -23.31,3.6 -30.77,10.8 -7.46,7.21 -11.2,16 -11.2,26.39l0 56.33c0,10.4 3.89,19.19 11.66,26.39 7.77,7.21 18.18,10.81 31.24,10.81l19.12 0c13.05,0 23.31,-3.6 30.77,-10.81 7.46,-7.2 11.19,-15.99 11.19,-26.39l0 -10.63zm152 -110.17l31.24 0c21.76,0 40.17,5.9 55.25,17.71 15.08,11.81 22.62,26.1 22.62,42.87l0 63.77c0,16.76 -7.54,31.05 -22.62,42.86 -15.08,11.81 -33.49,17.71 -55.25,17.71l-31.24 0c-21.76,0 -40.18,-5.9 -55.25,-17.71 -15.08,-11.81 -22.61,-26.1 -22.61,-42.86l0 -63.77c0,-16.77 7.53,-31.06 22.61,-42.87 15.07,-11.81 33.49,-17.71 55.25,-17.71zm5.6 158l20.05 0c13.05,0 23.46,-3.6 31.23,-10.81 7.77,-7.2 11.66,-15.99 11.66,-26.39l0 -56.33c0,-10.39 -3.89,-19.18 -11.66,-26.39 -7.77,-7.2 -18.18,-10.8 -31.23,-10.8l-20.05 0c-13.06,0 -23.47,3.6 -31.25,10.8 -7.77,7.21 -11.65,16 -11.65,26.39l0 56.33c0,10.4 3.88,19.19 11.65,26.39 7.78,7.21 18.19,10.81 31.25,10.81zm375.33 -129.3l-11.19 0c-12.74,0 -23.47,3.59 -32.18,10.8 -8.7,7.2 -13.36,15.65 -13.98,25.33l0 117.61 -40.56 0 0 -123.63c0,-8.5 -2.88,-15.65 -8.63,-21.44 -5.75,-5.78 -13.91,-8.67 -24.48,-8.67l-11.19 0c-12.43,0 -23.08,3.48 -31.93,10.45 -8.87,6.96 -13.76,15.05 -14.69,24.26l0 119.03 -40.1 0 0 -179.96 39.63 0 0 19.84c5.9,-7.56 13.99,-13.17 24.24,-16.83 10.26,-3.66 20.52,-5.49 30.77,-5.49l16.79 0c22.69,0 39.8,7.44 51.29,22.32 14.92,-14.88 35.9,-22.32 62.94,-22.32l17.26 0c16.78,0 30.92,4.66 42.43,13.99 11.5,9.33 17.25,20.49 17.25,33.48l0 134.97 -40.56 0 0 -123.63c0,-8.5 -2.88,-15.65 -8.64,-21.44 -5.75,-5.78 -13.9,-8.67 -24.47,-8.67zm-189.3 2.48l0 -8.86 0 11.33 0 -2.47z"/>
  </g>
  <sodipodi:namedview id="base" pagecolor="#ffffff" bordercolor="#666666" borderopacity="1.0" inkscape:pageopacity="0.0" inkscape:pageshadow="2" inkscape:zoom="0.35" inkscape:cx="350" inkscape:cy="520" inkscape:document-units="px" inkscape:current-layer="layer1" inkscape:window-width="904" inkscape:window-height="574" inkscape:window-x="92" inkscape:window-y="92"/>
  <g id="_1867644291136">
   <g>
    <path class="fil8" d="M2010.26 4828.88c-184.54,5.61 -335.81,-145.63 -330.15,-330.16 5.31,-173.96 151.95,-310.4 325.94,-310.4l17.67 -0.01c12.55,0 22.66,10.07 22.66,22.8l0 82.32c0,12.52 -10.11,22.61 -22.66,22.61l-18.93 0c-99.09,0 -189.99,80.42 -196.68,179.4 -7.83,116.51 88.81,213.25 205.42,205.46 98.92,-6.67 179.44,-97.66 179.44,-196.76l-0.02 -705.92c0,-278.87 227.74,-523.07 506.64,-533.01 305.02,-11.47 555.58,239.17 544.71,544.05 -9.94,278.94 -254.41,506.78 -533.41,506.78l-222.4 0c-12.63,0 -22.72,-10.1 -22.72,-22.61l0 -82.32c0,-12.73 10.1,-22.8 22.72,-22.8l223.19 0c212.43,0 398.56,-173.48 405.03,-385.77 7.04,-229.21 -181,-417.31 -410.27,-410 -212.36,6.37 -385.85,192.57 -385.85,404.79l0 705.67c-0.01,173.92 -136.4,320.57 -310.33,325.88z"/>
   </g>
   <g>
    <path class="fil9" d="M3889.31 3760.38c24.9,11.37 46.5,25.92 64.98,44.4 9.63,9.05 17.96,18.97 25,30.34 7.05,10.78 13.68,22.44 19.35,34.62 10.54,25.85 15.85,52.76 15.85,80.85 0,28.4 -4.69,55 -14.22,79.39 -9.52,24.02 -23.39,45.18 -41.93,63.24 -18.03,17.86 -41.13,32.29 -69.84,42.73 -29.06,10.47 -61.78,15.75 -98.11,15.75l-104.63 0.01c-6.9,0 -12.72,2.35 -17.44,7.31 -4.76,4.8 -7.07,10.38 -7.07,17.22l0 123.72c0,6.8 -2.25,12.75 -6.78,17.48 -4.48,4.73 -10.1,7.05 -16.97,7.05l-62.6 -0.02c-6.86,0 -12.73,-2.31 -17.52,-7.04 -4.69,-4.73 -7.07,-10.65 -7.07,-17.49l0 -530.61c0,-6.8 2.38,-12.79 7.07,-17.42 4.79,-4.76 10.64,-7.17 17.52,-7.17l233.76 0c27.82,-0.03 54.81,5.2 80.65,15.64zm-37.93 282.82c12.07,-5.27 22.22,-12.42 30.04,-22.18 3.74,-4.65 6.96,-9.9 9.9,-15.37 2.95,-5.42 5.23,-11.29 6.8,-16.87 3.7,-11.33 5.47,-23.75 5.47,-38.17 0,-12.8 -2.35,-25.99 -7.04,-39.73 -4.86,-13 -11.7,-24.45 -20.61,-33.85 -8.44,-10.11 -19.63,-18.21 -33.34,-24.66 -12.58,-6.47 -27.92,-9.53 -45.99,-9.53l-110.85 0c-6.9,0 -12.72,2.32 -17.44,7.05 -4.76,4.94 -7.07,10.58 -7.07,17.42l0 160.11c0,6.87 2.31,12.59 7.07,17.35 4.73,4.9 10.54,7.38 17.44,7.38l122.9 0c15.71,0.02 29.97,-2.97 42.72,-8.95z"/>
    <path class="fil9" d="M4348.78 4324.45l-62.36 0c-6.86,0 -12.85,-2.32 -17.48,-7.05 -4.73,-4.73 -7.28,-10.64 -7.28,-17.48l0 -530.59c0,-6.8 2.55,-12.79 7.28,-17.42 4.59,-4.76 10.62,-7.17 17.48,-7.17l239.34 0c29.08,0 56.57,4.89 81.1,14.11 24.43,10.69 45.34,24.43 62.62,41.26 9.18,9.15 16.84,18.87 23.71,29.29 6.87,10.54 12.96,21.94 17.55,34.12 9.94,24.8 14.53,51.91 14.53,80.92 0,44.66 -10.69,83 -32.86,114.7 -16.85,25.32 -38.45,45.31 -65.73,60.35 -5.37,3.1 -9.18,7.55 -10.71,13.02 -1.53,5.38 -0.57,10.79 3.81,16.13 19.63,26.56 38.23,51.29 55.78,74.86 17.59,23.6 35.92,48.44 55.04,74.86 4.57,5.96 5.34,11.6 3.81,17.53 -2.28,5.61 -6.12,8.6 -13,8.6l-80.24 0.02c-6.86,0 -13.74,-1.73 -21.39,-5.51 -7.62,-3.68 -13,-8.23 -17.59,-13.54 -9.08,-12.07 -17.59,-23.95 -26.53,-36.02 -8.61,-11.7 -17.53,-23.78 -26.19,-36.03l-52.69 -73.47c-3.88,-5.99 -9.94,-10.65 -17.21,-14.43 -7.28,-3.7 -14.56,-5.44 -21.33,-5.44l-60.85 0c-6.87,0 -12.96,2.38 -17.59,6.97 -4.59,4.73 -7.01,10.69 -7.01,17.59l0 135.35c0,6.8 -2.21,12.76 -6.77,17.49 -4.57,4.73 -10.44,6.98 -17.24,6.98zm48.57 -282.82l128.37 0c9.22,0 19.66,-2.15 30.59,-6.2 11.46,-4.38 21.39,-10.47 29.12,-18.33 8.3,-7.73 15.21,-17.79 20.54,-29.87 5.34,-11.36 8.41,-25.5 8.41,-42.78 0,-9.76 -1.49,-19.8 -3.2,-30.34 -1.39,-5.58 -2.93,-11.5 -5.21,-16.97 -1.63,-5.42 -4.28,-10.75 -6.9,-16.09 -6.12,-10.64 -15.31,-19.76 -26.77,-27.01 -12.21,-7.35 -27.86,-11.16 -46.63,-11.16l-128.39 -0.01c-6.86,0 -12.96,2.31 -17.58,7.04 -4.59,4.94 -7.01,10.59 -7.01,17.42l0 149.78c0,6.87 2.38,12.9 7.01,17.55 4.69,4.59 10.74,6.97 17.65,6.97z"/>
    <path class="fil9" d="M5277.46 4335.67c-41.26,0 -79.97,-8.1 -116.18,-23.74 -36.66,-15.92 -68.74,-37.39 -96.27,-64.7 -27.11,-27.03 -48.92,-58.94 -64.11,-95.52 -15.79,-36.26 -24.02,-75.48 -24.02,-117.05 0,-41.25 8.23,-80.21 24.02,-116.91 15.21,-36.71 37.01,-68.79 64.11,-95.76 27.52,-27.24 59.61,-48.67 96.27,-64.69 36.19,-15.86 74.91,-23.71 116.18,-23.71 41.26,0 81.02,7.85 117.56,23.71 35.58,16.02 67.38,37.45 94.9,64.69 27.52,26.97 48.92,59.09 64.22,95.76 16.77,36.7 24.45,75.64 24.45,116.91 0,41.61 -7.68,80.79 -24.45,117.05 -15.27,36.54 -36.7,68.47 -64.22,95.52 -27.51,27.35 -59.32,48.82 -94.9,64.7 -36.58,15.64 -76.35,23.74 -117.56,23.74zm0 -498.2c-25.99,0 -50.42,5.37 -73.38,16.08 -22.92,10.71 -42.78,25.24 -60.47,43.24 -17.45,17.92 -31.13,38.88 -40.39,63 -10.68,23.87 -15.27,48.92 -15.27,74.86 0,26.23 4.59,51.3 15.27,75.07 9.22,23.71 22.93,44.91 40.39,63.16 17.71,18.13 37.55,32.7 60.47,43.57 22.96,10.71 47.42,16.13 73.38,16.13 26.02,0 51.23,-5.38 74.11,-16.13 22.93,-10.89 43.55,-25.44 60.38,-43.57 16.84,-18.27 30.58,-39.45 40.1,-63.16 10.37,-23.77 14.94,-48.88 14.94,-75.07 0,-25.98 -4.59,-51.03 -14.94,-74.86 -9.49,-24.12 -23.27,-45.08 -40.1,-63 -16.84,-18 -37.49,-32.49 -60.38,-43.24 -22.92,-10.71 -48.13,-16.08 -74.11,-16.08z"/>
    <path class="fil9" d="M6434.58 3758.07l0 541.87c0,6.81 -2.31,12.76 -7.52,17.49 -4.69,4.73 -9.63,7.04 -16.26,7.04l-62.34 0c-7.18,0 -13.31,-2.31 -17.86,-7.04 -4.55,-4.73 -6.8,-10.65 -6.8,-17.49l0 -243.9c0,-6.86 -1.43,-11.01 -4.16,-12.25 -2.93,-1.49 -7.14,0.79 -10.68,6.7l-151.04 179.77c-4.32,5.34 -9.22,7.79 -15.31,7.79 -6.09,0 -10.79,-2.45 -15.27,-7.79l-149.78 -179.77c-4.59,-5.21 -7.73,-7.42 -10.79,-6.53 -3.1,1.32 -4.63,5.2 -4.63,12.07l0 243.9c0,6.8 -2.93,12.76 -7.52,17.49 -4.63,4.73 -10.68,7.04 -17.05,7.04l-62.43 0.01c-6.22,0 -12.25,-2.31 -16.9,-7.04 -4.59,-4.73 -7.55,-10.65 -7.55,-17.49l0 -541.87c0,-6.91 3.06,-10.75 9.18,-11.74 6.67,-1.3 12.21,0.99 16.74,6.32l249.75 308.77c4.05,4.73 9.96,7.11 16.19,7.11 6.22,0 11.09,-2.38 15.41,-7.11l251.31 -308.77c3.98,-5.33 9.83,-7.62 16.06,-6.32 6.19,0.99 9.25,4.83 9.25,11.74z"/>
    <path class="fil9" d="M6838.35 4324.45l-62.58 0c-6.53,0 -12.52,-2.32 -16.97,-7.05 -4.59,-4.73 -6.39,-10.64 -6.39,-17.48l-0.01 -529.74c0,-6.84 1.83,-12.9 6.39,-17.53 4.46,-4.69 10.43,-7.14 16.97,-7.14l62.59 0.01c7.22,0 13.11,2.45 17.82,7.15 4.66,4.63 6.78,10.68 6.78,17.52l0 529.77c0,6.8 -2.15,12.75 -6.78,17.48 -4.71,4.69 -10.6,7.01 -17.82,7.01z"/>
    <path class="fil9" d="M7170.39 4228.76l33.27 -49.19c3.95,-5.81 9.01,-9.32 15.17,-10.38 6.22,-0.88 12.32,0.21 18.27,3.91 23.77,14.97 47.04,27.51 69.77,38.1 29.91,14.73 62.59,22.13 97.18,22.13 18.07,0 33.96,-2.31 47.6,-6.96 12.86,-3.74 24.25,-9.7 34.8,-17.53 9.63,-7.52 16.7,-15.64 21.4,-24.49 4.79,-8.43 7.38,-17.55 7.38,-27.07 0,-11.06 -3.78,-21.02 -11.19,-30.14 -6.94,-7.38 -16.29,-13.81 -28.5,-19.86 -5.96,-2.38 -12.15,-4.76 -18.95,-6.97 -6.95,-2.21 -14.63,-4.39 -23,-6.29 -8.17,-2.11 -16.09,-4.18 -24.19,-5.75 -8.43,-1.59 -16.76,-3.16 -25.71,-4.73 -5.95,-0.85 -12.15,-2.25 -19.16,-3.53 -6.73,-1.16 -14.05,-2.65 -21.39,-4.18 -15.27,-2.25 -31.09,-6.12 -47.66,-12.11 -16.8,-4.66 -32.76,-11.37 -48.03,-19.84 -16.12,-7.79 -30.18,-18.17 -42.79,-30.71 -12.89,-11.54 -22.92,-26.56 -30.96,-44.33 -7.31,-17.55 -11.22,-37.45 -11.22,-60.35 0,-33.2 7.05,-61.4 20.79,-84.8 12.92,-21.43 30.59,-39.05 52.25,-52.79 20.44,-12.22 44.35,-21.33 71.33,-27.08 24.8,-5.23 49.97,-7.99 75.82,-7.99 24.29,0 46.06,1.53 65.21,4.73 9.43,1.63 18.58,3.64 27.32,5.99 8.64,2.31 17.28,4.96 25.79,7.62 8.33,3.06 16.58,6.84 24.49,10.69 7.96,3.84 15.61,8.02 22.97,12.21 5.2,3.06 10.2,6.26 15.1,9.49 4.73,3.26 9.97,6.49 15.85,9.59 5.73,4.09 9.29,9.32 10.28,15.85 0.91,6.33 -0.68,12.42 -4.73,18.1l-33.3 47.69c-4.26,5.58 -9.66,9.25 -16.33,10.06 -6.53,1.2 -12.69,-0.06 -18.47,-3.84 -20.69,-13.1 -40.28,-23.23 -58.64,-30.11 -25.07,-10.13 -51.47,-14.97 -80.25,-14.97 -4.66,0 -9.66,0 -15.34,0.75 -5.44,0.54 -11.12,1.36 -16.97,2.31 -12.11,2.63 -23.85,6.74 -34.97,11.95 -5.07,2.58 -9.97,5.62 -14.45,8.7 -4.49,3.06 -8.64,6.87 -12.26,11.02 -7,8.5 -10.33,18.68 -10.33,30.21 0,11.5 4.25,21.4 12.58,29.08 8.58,8.1 19.35,14.56 32.35,19.84 7.07,2.75 13.95,5.27 21.09,7.11 7.25,2.11 14.73,4.32 22.69,6.53 7.83,1.97 15.58,3.89 23.23,5.42 7.69,1.53 15.21,3.43 22.79,5.43 5.75,1.3 11.87,2.36 18.17,3.99 6.29,1.67 13.17,2.89 20.38,4.15 7.48,0.99 15.1,2.48 22.96,4.15 8.13,2.11 16.12,4.36 24.05,6.78 4.09,1.16 8.54,2.35 13,3.95 4.36,1.57 8.68,3.2 13.06,4.9 6.27,2.64 13.68,5.99 21.67,10.27 8.33,4.25 15.21,8.41 21.12,12.73 4.22,2.54 7.9,5.54 11.57,8.2 3.41,2.85 6.74,5.89 9.84,9.05 13.23,13.47 23.13,28.77 30.13,46.05 7.96,18.64 11.84,40.78 11.84,66.61 0,29.46 -5.23,55.62 -15.85,78.34 -10.64,22.13 -25.71,40.4 -45.07,54.76 -20.17,15.34 -43.47,26.3 -69.7,33.17 -28.03,7.45 -57.96,11.23 -89.76,11.23 -30.61,0 -57.11,-2.35 -79.84,-7.32 -21.64,-3.6 -42.7,-9.55 -62.69,-18 -9.36,-3.7 -18.6,-7.99 -27.62,-12.38 -9.07,-4.38 -17.92,-9.42 -26.08,-14.76 -5.58,-3.16 -10.62,-6.36 -16.02,-9.93 -5.23,-3.31 -10.92,-7.11 -16.5,-11.5 -5.81,-3.57 -9.21,-8.57 -10.31,-14.83 -1.37,-6.43 0.09,-12.55 3.67,-18.13z"/>
    <path class="fil9" d="M8003.95 3867.33l0 96.03c0,6.84 2.36,12.48 7.11,17.22 4.76,4.96 10.55,7.37 17.39,7.37l231.27 0c6.87,0 12.79,2.36 17.52,6.95 4.74,4.69 7.15,10.68 7.15,17.59l0 51.29c0,6.87 -2.41,12.9 -7.15,17.53 -4.73,4.65 -10.64,7.04 -17.52,7.04l-231.27 -0.01c-6.84,0 -12.63,2.38 -17.39,7.38 -4.75,4.65 -7.11,10.44 -7.11,17.24l0 87.15c0,6.87 2.36,12.69 7.11,17.39 4.76,4.86 10.55,7.38 17.39,7.38l267.05 0c6.8,0 12.59,2.35 17.38,6.96 4.73,4.73 7.18,10.65 7.18,17.59l0 50.55c0,6.8 -2.46,12.76 -7.18,17.49 -4.79,4.73 -10.58,7.04 -17.38,7.04l-377.98 0c-6.78,0 -12.55,-2.31 -17.38,-7.04 -4.7,-4.73 -7.15,-10.65 -7.15,-17.49l0 -530.65c0,-6.8 2.45,-12.79 7.15,-17.42 4.83,-4.76 10.62,-7.17 17.38,-7.17l377.98 0c6.8,0 12.59,2.45 17.38,7.17 4.73,4.63 7.18,10.62 7.18,17.42l0 49.05c0,6.9 -2.46,12.62 -7.18,17.55 -4.79,4.62 -10.58,6.94 -17.38,6.94l-267.05 0c-6.84,0 -12.63,2.31 -17.39,7.04 -4.75,4.94 -7.11,10.55 -7.11,17.42z"/>
   </g>
   <g>
    <path class="fil9" d="M5170.44 4626.89l-47.39 0c-3.06,0 -6.12,0.91 -7.65,2.93 -1.53,1.94 -3.06,4.25 -3.06,7.11l0 177.93c0,2.86 -1.39,5.27 -3.06,7.21 -1.53,1.95 -4.59,2.96 -7.36,2.96l-24.76 0c-3.06,0 -6.12,-1.01 -7.65,-2.96 -1.53,-1.94 -3.06,-4.35 -3.06,-7.21l0 -177.93c0,-2.86 -0.47,-5.17 -3.06,-7.11 -1.53,-2.01 -4.35,-2.93 -6.39,-2.93l-48.68 0c-3.06,0 -4.97,-1.06 -7.25,-3 -1.6,-2.01 -3.06,-4.38 -3.06,-7.15l0 -20.23c0,-2.94 1.46,-5.24 3.06,-7.11 2.31,-2.05 4.17,-3.06 7.25,-3.06l162.01 0c3.06,0 4.76,1.01 7.65,3.06 1.53,1.87 3.06,4.17 3.06,7.11l0 20.23c0,2.75 -1.53,5.14 -3.06,7.15 -2.79,1.94 -4.48,3 -7.54,3z"/>
    <path class="fil9" d="M5359.97 4636.91l0 39.5c0,2.73 1.53,5.14 3.06,7.15 1.53,2 4.59,2.93 7.65,2.93l94.78 -0.01c3.06,0 4.69,0.99 7.65,2.99 1.53,1.9 2.99,4.26 2.99,7.15l0 21.16c0,2.79 -1.46,5.23 -2.99,7.18 -2.96,2 -4.59,2.93 -7.65,2.93l-94.77 -0.02c-3.06,0 -6.12,0.92 -7.65,2.94 -1.53,1.94 -3.06,4.38 -3.06,7.21l0 35.85c0,2.79 1.53,5.21 3.06,7.18 1.53,1.97 4.59,2.85 7.65,2.85l109.9 0c1.97,0 4.73,1.06 6.26,3 2.69,2 3.06,4.32 3.06,7.21l0 20.79c0,2.85 -0.37,5.27 -3.06,7.21 -1.53,1.94 -4.28,2.96 -6.26,2.96l-155.78 -0.01c-3.06,0 -5.62,-1.02 -7.65,-2.96 -1.53,-1.94 -3.06,-4.36 -3.06,-7.21l0 -218.36c0,-2.93 1.53,-5.23 3.06,-7.11 2.04,-2.04 4.59,-3.06 7.65,-3.06l155.78 0c1.97,0 4.73,1.02 6.26,3.06 2.69,1.88 3.06,4.18 3.06,7.11l0 20.24c0,2.75 -0.37,5.14 -3.06,7.15 -1.53,1.94 -4.28,2.99 -6.26,2.99l-109.9 0c-3.06,0 -6.12,0.91 -7.65,2.93 -1.54,1.91 -3.07,4.22 -3.07,7.07z"/>
    <path class="fil9" d="M5846.06 4774.79c-1.59,3.06 -4.49,6.05 -6.2,9.01 -2.75,2.96 -4.59,5.72 -7.58,8.33 -7.42,7.59 -15.34,14.26 -25.38,19.86 -4.53,2.86 -9.76,5.31 -14.36,7.49 -4.65,2.21 -10.58,4.09 -15.34,5.58 -10.81,3.06 -22.9,4.56 -33.57,4.56 -16.8,0 -32.38,-3.26 -47.45,-9.83 -15.24,-6.43 -29.02,-15.38 -39.7,-26.71 -10.75,-11.02 -19.86,-24.05 -26.09,-39.04 -7.38,-15.01 -10.62,-30.96 -10.62,-47.97 0,-16.95 3.23,-32.96 10.62,-47.83 6.23,-14.9 15.31,-27.96 26.09,-39.45 11.39,-11.1 24.45,-19.87 39.7,-26.37 15.03,-6.57 30.61,-9.8 47.45,-9.8 10.69,0 22.76,1.57 33.57,4.57 10.71,3.06 20.71,7.25 29.7,12.58 5.31,2.96 9.66,6.02 13.17,9.39 4.56,3.33 9.07,6.94 12.21,10.51 6.02,5.79 10.62,11.43 13.74,17.35 1.53,2.41 2.21,4.79 1.53,7.04 -1.53,2.32 -3.06,3.91 -5.31,5.04l-23.81 9.84c-2.99,0.99 -5.81,1.19 -8.3,0.43 -2.52,-0.74 -5.34,-2.25 -6.95,-4.48 -1.46,-0.99 -2.25,-2.07 -3.09,-3.41 -1.43,-1.26 -2.96,-2.31 -3.1,-3.33 -2.96,-2.52 -5.31,-4.56 -7.59,-6.59 -2.99,-2.05 -5.47,-3.78 -7.79,-5.48 -2.96,-1.78 -5.99,-3.31 -9.05,-4.59 -3.06,-1.33 -6.12,-2.52 -9.18,-3.58 -6.16,-2 -12.89,-2.93 -19.84,-2.93 -10.68,0 -20.91,2.18 -30.58,6.5 -9.18,4.59 -17.72,10.64 -24.46,17.92 -6.8,7.65 -12.21,16.08 -16.8,25.69 -3.88,9.86 -6.12,20.17 -6.12,30.98 0,11.12 2.21,21.39 6.12,30.98 4.59,9.53 10,18.17 16.8,25.76 6.7,7.65 15.28,13.47 24.46,17.69 9.22,4.52 19.86,6.77 30.58,6.77 6.95,0 13.68,-0.99 19.84,-2.93 3.06,-1.12 6.12,-2.25 9.18,-3.54 3.06,-1.36 6.09,-2.89 9.05,-4.59 2.28,-1.77 4.8,-3.67 7.79,-5.72 2.25,-2.1 4.63,-4.28 7.59,-6.73 0.14,-1.02 1.67,-2.18 3.1,-3.44 0.82,-1.15 1.63,-2.27 3.09,-3.4 1.6,-2.15 4.43,-3.64 6.95,-4.57 2.48,-0.85 5.31,-0.78 8.3,0.27l23.81 9.86c2.25,1.1 3.78,2.76 5.31,5.15 0.76,2.43 0.04,4.74 -1.49,7.16z"/>
    <path class="fil9" d="M6197.66 4596.51l0 218.35c0,2.86 -0.2,5.27 -2.58,7.21 -2.01,1.95 -3.85,2.96 -6.78,2.96l-25.81 0c-3.06,0 -4.76,-1.01 -7.32,-2.96 -1.88,-1.94 -2.52,-4.35 -2.52,-7.21l0 -74.57c0,-2.85 -0.91,-5.27 -2.65,-7.21 -2.83,-1.97 -4.48,-2.96 -7.44,-2.96l-97.78 0c-3.06,0 -4.73,0.99 -7.17,2.96 -2,1.94 -2.48,4.36 -2.48,7.21l0 74.57c0,2.86 -1.09,5.27 -2.79,7.21 -2.83,1.95 -4.46,2.96 -7.44,2.96l-25.96 0c-2.65,0 -4.66,-1.01 -6.39,-2.96 -2.79,-1.94 -2.96,-4.35 -2.96,-7.21l0 -218.35c0,-2.94 0.17,-5.24 2.96,-7.11 1.73,-2.05 3.7,-3.06 6.39,-3.06l25.94 0c3,0 4.63,1.01 7.45,3.06 1.69,1.87 2.79,4.17 2.79,7.11l0 83.06c0,2.89 0.51,5.27 2.48,7.18 2.45,1.96 4.11,2.99 7.17,2.99l97.78 0c2.95,0 4.62,-1.01 7.44,-2.99 1.74,-1.91 2.65,-4.29 2.65,-7.18l0 -83.06c0,-2.94 0.68,-5.24 2.52,-7.11 2.54,-2.05 4.25,-3.06 7.31,-3.06l25.83 0c2.93,0 4.8,1.01 6.78,3.06 2.38,1.86 2.58,4.21 2.58,7.11z"/>
    <path class="fil9" d="M6398.66 4693.32l0 121.54c0,2.86 -0.89,5.27 -2.72,7.21 -2.59,1.95 -4.36,2.96 -7.32,2.96l-25.94 0c-2.96,0 -4.7,-1.01 -6.57,-2.96 -2.55,-1.94 -2.86,-4.35 -2.86,-7.21l0 -222.94c0,-2.86 1.26,-4.53 3.41,-4.97 2.99,-0.61 5.75,0.07 7.55,1.74l142.93 135.25c2.25,1.97 3.85,2.62 5.38,1.97 1.53,-0.62 1.94,-2.38 1.94,-5.17l0 -123.85c0,-2.85 1.12,-5.17 2.79,-7.15 2.55,-1.96 4.49,-3.02 7.52,-3.02l25.68 -0.01c2.51,0 4.89,1.05 6.56,3.02 2.55,1.97 3,4.28 3,7.15l0 222.6c0,2.85 -1.32,4.56 -3.54,5.06 -2.85,0.54 -5.68,-0.06 -7.41,-1.8l-143.25 -132.97c-1.8,-1.78 -3.54,-2.28 -4.96,-1.67 -1.44,0.63 -2.19,2.43 -2.19,5.22z"/>
    <path class="fil9" d="M6826.41 4829.58c-17.01,0 -32.66,-3.26 -47.86,-9.83 -15.14,-6.43 -27.76,-15.34 -39.4,-26.5 -11.01,-11.22 -20.1,-24.25 -26.37,-39.25 -6.32,-15 -9.48,-31.13 -9.48,-48.26 0,-16.98 3.2,-32.99 9.48,-48.08 6.29,-15.17 15.34,-28.23 26.37,-39.52 11.64,-11.09 24.25,-20 39.4,-26.43 15.2,-6.53 30.85,-9.9 47.86,-9.9 17.52,0 33.27,3.37 48.41,9.9 15.1,6.43 27.82,15.34 39.35,26.43 11.09,11.29 20.03,24.35 26.39,39.52 6.37,15.07 9.76,31.09 9.76,48.08 0,17.15 -3.43,33.27 -9.76,48.26 -6.39,15 -15.31,28.03 -26.39,39.25 -11.53,11.16 -24.25,20.07 -39.35,26.5 -15.18,6.57 -30.92,9.83 -48.41,9.83zm0.45 -205.01c-11.12,0 -21.02,2.25 -30.34,6.74 -9.69,4.36 -18,10.34 -25.01,17.72 -6.86,7.31 -12.79,16.05 -16.63,25.95 -4.01,9.94 -6.29,20.17 -6.29,30.76 0,10.85 2.25,21.22 6.29,30.98 3.84,9.69 9.75,18.4 16.63,25.85 7.01,7.55 15.32,13.5 25.01,17.93 9.28,4.52 19.18,6.69 30.34,6.69 10.85,0 20.61,-2.17 30.14,-6.69 9.73,-4.43 17.79,-10.42 25,-17.93 6.74,-7.44 12.59,-16.16 16.77,-25.85 3.78,-9.76 6.19,-20.13 6.19,-30.98 0,-10.62 -2.37,-20.82 -6.19,-30.76 -4.18,-9.9 -10.04,-18.64 -16.77,-25.95 -7.21,-7.38 -15.27,-13.38 -25,-17.72 -9.49,-4.5 -19.26,-6.74 -30.14,-6.74z"/>
    <path class="fil9" d="M7265.29 4794.65l0 20.24c0,2.85 -0.88,5.27 -2.82,7.21 -2.15,1.94 -4.36,2.96 -7.18,2.96l-151.54 0c-2.83,0 -5.51,-1.02 -7.28,-2.96 -1.83,-1.94 -3.02,-4.36 -3.02,-7.21l0 -218.36c0,-2.93 1.2,-5.23 3.02,-7.11 1.78,-2.04 4.47,-3.06 7.28,-3.06l25.14 0c2.82,0 5.47,1.02 7.35,3.06 1.8,1.88 3,4.18 3,7.11l0 177.94c0,2.89 1.01,5.2 2.95,7.14 1.78,1.97 4.36,3 7.22,3l105.88 0c2.83,0 5,0.95 7.18,2.93 1.94,1.94 2.82,4.39 2.82,7.11z"/>
    <path class="fil9" d="M7494.83 4829.58c-16.9,0 -32.96,-3.26 -48.09,-9.83 -14.86,-6.43 -27.86,-15.34 -39.09,-26.5 -11.39,-11.22 -20.17,-24.25 -26.7,-39.25 -6.32,-15 -9.63,-31.13 -9.63,-48.26 0,-16.98 3.33,-32.99 9.63,-48.08 6.53,-15.17 15.31,-28.23 26.7,-39.52 11.23,-11.09 24.25,-20 39.09,-26.43 15.13,-6.53 31.19,-9.9 48.09,-9.9 17.18,0 33.1,3.37 48.1,9.9 15.11,6.43 28.23,15.34 39.39,26.43 11.1,11.29 20.07,24.35 26.37,39.52 6.74,15.07 9.97,31.09 9.97,48.08 0,17.15 -3.23,33.27 -9.97,48.26 -6.32,15 -15.27,28.03 -26.37,39.25 -11.16,11.16 -24.28,20.07 -39.39,26.5 -15,6.57 -30.92,9.83 -48.1,9.83zm0.17 -205.01c-10.85,0 -20.98,2.25 -30.4,6.74 -9.47,4.36 -17.86,10.34 -24.77,17.72 -7.04,7.31 -12.89,16.05 -16.76,25.95 -4.09,9.94 -6.16,20.17 -6.16,30.76 0,10.85 2.07,21.22 6.16,30.98 3.88,9.69 9.73,18.4 16.76,25.85 6.87,7.55 15.28,13.5 24.77,17.93 9.38,4.52 19.53,6.69 30.4,6.69 10.81,0 20.89,-2.17 30.45,-6.69 9.38,-4.43 17.58,-10.42 24.69,-17.93 6.91,-7.44 12.65,-16.16 16.77,-25.85 4.09,-9.76 6.12,-20.13 6.12,-30.98 0,-10.62 -2.05,-20.82 -6.12,-30.76 -4.12,-9.9 -9.86,-18.64 -16.77,-25.95 -7.11,-7.38 -15.27,-13.38 -24.69,-17.72 -9.56,-4.5 -19.64,-6.74 -30.45,-6.74z"/>
    <path class="fil9" d="M7993.51 4704.78c-0.3,4.22 -0.43,8.68 -0.47,13 -0.1,4.32 -0.25,6.87 -0.54,7.52 -1.22,15.42 -5.34,29.29 -12.05,41.74 -6.97,12.81 -15.81,23.7 -26.39,32.9 -10.65,9.35 -23.03,16.59 -37.18,21.86 -14.08,5.24 -28.88,7.83 -44.33,7.83 -16.97,0 -32.99,-3.26 -47.97,-9.83 -14.9,-6.43 -28.03,-15.38 -39.35,-26.7 -11.54,-11.5 -20.55,-24.53 -26.81,-39.05 -6.39,-15 -9.69,-30.96 -9.69,-47.97 0,-16.63 3.3,-32.82 9.69,-48.26 3.26,-7.62 7.17,-14.59 11.6,-21.09 4.52,-6.57 9.63,-12.62 15.21,-18.26 11.46,-11.1 24.69,-19.91 39.35,-26.44 14.96,-6.43 30.98,-9.83 47.97,-9.83 21.8,0 41.54,5.04 59.32,15 15,8.37 27.55,19.02 37.51,32.01 1.74,2.18 2.28,4.59 1.78,7.15 -0.54,2.65 -1.94,4.66 -4.32,6.2l-22.22 13.43c-2.42,1.53 -4.96,1.88 -7.65,1.22 -2.75,-0.61 -5.06,-1.96 -7.07,-3.94 -3.06,-3.41 -6.33,-6.6 -9.55,-9.63 -3.44,-3.02 -7.15,-5.85 -11.29,-8.27 -11.53,-6.9 -23.71,-10.37 -36.46,-10.37 -10.31,0 -20.59,2.17 -30.21,6.49 -10.14,4.79 -18.3,10.75 -24.83,17.92 -7.07,7.35 -12.59,15.99 -16.97,25.69 -4.05,9.86 -6.2,20.17 -6.2,30.98 0,11.12 2.15,21.4 6.2,30.99 4.38,9.79 9.9,18.37 16.97,25.75 6.67,7.38 15,13.27 24.83,17.69 9.21,4.52 19.28,6.77 30.21,6.77 8.16,0 16.18,-1.32 23.71,-3.84 7.65,-2.46 14.69,-5.91 20.98,-10.52 6.12,-4.32 11.57,-9.75 16.57,-16.29 2.85,-3.63 4.96,-7.48 6.49,-11.43 1.36,-2.54 1.36,-4.85 -0.16,-6.69 -1.37,-1.88 -3.51,-2.73 -6.37,-2.73l-67.74 -0.01c-2.96,0 -5.31,-0.99 -7.21,-3 -1.97,-1.94 -2.93,-4.25 -2.93,-7.15l0 -20.78c0,-2.86 0.95,-5.28 2.93,-7.28 1.9,-1.9 4.25,-2.93 7.21,-2.93l117.26 0.01c2.83,0 5.24,1.02 7.28,2.93 1.9,1.94 2.89,4.35 2.89,7.21z"/>
    <path class="fil9" d="M8318.81 4595.08c-2.35,4.09 -4.9,8.06 -7.52,12.25 -2.59,4.32 -5.48,8.85 -8.47,13.6 -3.91,6.23 -7.9,12.76 -11.84,19.19 -4.05,6.53 -8.13,13.16 -12.22,19.86 -4.46,6.77 -8.6,13.47 -12.58,20.13 -4.09,6.57 -8,13.1 -11.87,19.33 -3.06,4.83 -6.02,9.36 -8.68,13.67 -2.75,4.32 -5.21,8.64 -7.65,12.69 -1.53,2.46 -2.75,5.52 -3.57,9.16 -0.95,3.74 -1.37,6.94 -1.37,9.79l0 70.07c0,2.86 -0.91,5.27 -2.89,7.22 -1.94,1.94 -4.36,2.95 -7.17,2.95l-25.82 0c-2.75,0 -5.14,-1.01 -6.97,-2.95 -1.82,-1.95 -2.79,-4.36 -2.79,-7.22l0 -70.07c0,-2.85 -0.41,-6.05 -1.49,-9.79 -0.95,-3.6 -2.15,-6.67 -3.7,-9.16 -6.33,-11.09 -12.69,-21.94 -19.35,-32.69 -6.63,-10.81 -13.4,-21.66 -20.38,-32.45 -7.21,-10.99 -14.08,-22.05 -20.85,-32.8 -6.74,-10.68 -13.27,-21.7 -19.56,-32.86 -1.49,-2.27 -1.77,-4.28 -0.82,-5.89 1.02,-1.77 2.89,-2.52 5.75,-2.52l33.26 0.02c2.79,0 5.64,0.74 8.64,2.52 2.96,1.59 5,3.57 6.28,5.88 4.22,7.15 8.27,14.06 12.39,21.03 4.21,6.9 8.37,13.94 12.72,21.12 4.16,7.17 8.27,14.22 12.38,21.22 4.16,6.91 8.27,13.81 12.42,20.82 1.3,2.45 2.94,3.64 5.01,3.64 2.07,0 3.94,-1.2 5.43,-3.64 1.57,-2.62 3.06,-5.14 4.63,-7.83 1.74,-2.58 3.41,-5.31 5.14,-8.06l15.61 -26.46c2.62,-4.38 5.17,-8.64 7.65,-13.02 2.59,-4.39 5.04,-8.64 7.65,-13.1 1.78,-2.55 3.47,-5.17 4.96,-7.8 1.43,-2.58 3.03,-5.16 4.49,-7.92 1.39,-2.27 3.43,-4.28 6.37,-5.88 2.99,-1.78 5.84,-2.52 8.63,-2.52l33.32 0c2.82,0 4.65,0.74 5.58,2.52 0.74,1.65 0.54,3.67 -0.75,5.95z"/>
   </g>
  </g>
 </g>
</svg>
